<?xml version="1.0" standalone="no"?>
<!DOCTYPE svg PUBLIC "-//W3C//DTD SVG 20010904//EN"
 "http://www.w3.org/TR/2001/REC-SVG-20010904/DTD/svg10.dtd">
<svg version="1.0" xmlns="http://www.w3.org/2000/svg"
 width="1081.000000pt" height="1080.000000pt" viewBox="0 0 1081.000000 1080.000000"
 preserveAspectRatio="xMidYMid meet">

<g transform="translate(0.000000,1080.000000) scale(0.100000,-0.100000)"
fill="#000000" stroke="none">
<path d="M0 5400 l0 -5400 5405 0 5405 0 0 5400 0 5400 -5405 0 -5405 0 0
-5400z m3000 4467 c44 -93 75 -147 83 -144 6 2 12 12 12 23 0 11 8 20 20 22
17 3 18 1 5 -8 -12 -9 -9 -10 15 -5 17 4 39 9 50 11 59 11 81 18 124 37 32 14
73 21 136 24 57 2 95 9 105 17 8 8 35 19 60 26 25 7 50 16 55 20 20 16 141 22
220 10 165 -24 211 -31 235 -34 14 -1 36 -5 50 -9 14 -3 79 -16 145 -27 108
-20 198 -54 196 -74 -3 -20 1 -26 14 -26 8 0 15 -4 15 -8 0 -5 19 -15 42 -23
33 -11 42 -11 46 -1 3 10 7 10 18 1 8 -6 14 -8 14 -4 0 4 9 -4 21 -19 11 -14
45 -42 75 -62 30 -20 54 -41 54 -46 0 -7 -5 -7 -13 1 -8 6 -30 17 -50 26 -32
13 -36 13 -31 0 4 -8 2 -15 -3 -15 -14 0 -49 41 -43 49 9 11 -64 41 -99 41
l-35 0 34 -25 c37 -27 45 -30 35 -15 -3 6 1 7 9 4 9 -3 14 -10 11 -14 -3 -4
18 -23 47 -41 28 -18 65 -45 81 -60 16 -15 43 -30 59 -33 16 -3 39 -16 50 -28
l20 -23 -5 23 c-4 17 -1 22 16 22 28 0 42 -10 51 -35 6 -17 4 -17 -18 4 -26
24 -26 24 -26 3 0 -12 -6 -27 -13 -34 -11 -10 -6 -22 28 -68 145 -190 260
-434 326 -692 27 -107 77 -368 71 -368 -3 0 -16 10 -29 22 -22 20 -23 21 -24
2 -1 -10 -1 -22 0 -26 2 -13 -13 -8 -39 12 -14 11 -29 20 -34 20 -5 0 -22 15
-37 33 -16 17 -28 27 -29 20 0 -22 -32 -2 -131 83 -146 125 -198 197 -202 277
-1 34 -5 43 -14 35 -7 -5 -15 -18 -18 -28 -4 -12 -12 -17 -22 -13 -11 4 -14 2
-9 -5 10 -17 -69 -35 -118 -27 -51 9 -186 70 -186 84 0 6 -4 11 -10 11 -21 0
-140 62 -150 78 -8 14 -11 15 -19 3 -7 -11 -17 -11 -57 5 -101 38 -138 108
-136 258 1 87 1 88 -19 70 -15 -13 -16 -19 -7 -25 20 -13 -38 -66 -112 -102
-62 -31 -69 -32 -191 -32 -72 0 -136 5 -150 11 -13 6 -37 17 -52 23 -15 6 -25
16 -22 21 8 13 -20 24 -42 16 -14 -6 -15 -9 -4 -15 29 -18 -103 -23 -160 -7
-30 9 -81 20 -114 24 -56 7 -59 9 -67 40 -5 17 -11 32 -13 32 -2 0 -29 -11
-59 -24 -54 -24 -177 -39 -192 -23 -13 13 -174 -3 -244 -24 -37 -11 -88 -19
-118 -18 -30 2 -57 -2 -60 -7 -15 -21 -162 -53 -162 -35 0 6 -4 11 -10 11 -5
0 -10 -7 -10 -15 0 -22 -21 -19 -74 11 -28 16 -46 21 -46 14 0 -9 -15 -10 -55
-5 -46 5 -55 4 -55 -9 0 -12 -11 -16 -42 -17 -24 0 -92 -3 -153 -5 l-110 -3
61 28 c33 16 64 35 67 44 3 9 23 25 44 36 21 10 51 31 66 45 31 29 113 74 102
57 -3 -6 -1 -11 4 -11 6 0 11 5 11 10 0 6 11 15 24 20 16 6 24 16 24 35 0 32
9 42 43 48 14 3 45 15 68 26 23 12 46 19 51 16 5 -3 11 -1 15 5 3 5 15 10 26
10 10 0 19 4 19 9 0 5 10 13 23 16 12 4 72 29 132 55 61 26 125 51 143 55 41
9 88 31 130 62 17 13 32 19 32 14 0 -17 31 -13 45 5 6 9 25 18 41 19 22 2 90
37 111 59 2 1 -20 87 -47 191 -28 103 -50 191 -49 194 0 7 15 -23 109 -222z
m4085 -26 c12 -7 57 -10 154 -11 40 0 91 -5 114 -11 34 -9 42 -8 49 5 11 19
34 21 44 4 5 -8 2 -9 -9 -5 -10 3 -17 3 -17 -2 0 -5 15 -11 33 -14 17 -3 57
-12 87 -21 30 -9 71 -16 91 -16 22 0 63 -14 104 -36 49 -26 83 -37 124 -40 31
-1 74 -5 96 -7 45 -5 152 -43 160 -58 4 -5 25 -19 48 -31 23 -11 55 -31 70
-44 16 -13 41 -24 57 -24 16 0 32 -5 36 -12 5 -7 3 -8 -6 -3 -9 5 -11 4 -6 -3
4 -7 16 -17 28 -23 16 -9 19 -8 13 3 -5 7 3 3 17 -9 13 -13 28 -23 32 -23 4 0
39 -15 79 -34 40 -18 83 -37 97 -41 40 -12 87 -52 94 -80 4 -14 13 -25 21 -25
8 0 15 -4 15 -8 0 -4 15 -13 33 -20 41 -15 50 -15 42 -2 -14 22 17 8 52 -24
21 -18 58 -43 81 -55 24 -12 42 -25 39 -28 -3 -2 -14 0 -24 5 -10 5 -31 12
-47 16 -23 6 -27 4 -23 -8 7 -19 3 -20 -24 -5 -12 6 -18 17 -15 25 9 23 -53
49 -108 45 -16 -1 -16 -3 7 -21 28 -22 42 -26 31 -8 -4 7 -3 8 5 4 6 -4 9 -11
7 -15 -3 -4 12 -17 32 -29 20 -12 55 -32 77 -46 l40 -25 -35 -14 c-19 -9 -49
-13 -65 -11 -30 5 -30 5 -6 -9 21 -13 22 -15 5 -21 -15 -6 -16 -9 -5 -15 9 -6
4 -8 -15 -7 -16 1 -38 7 -49 14 -17 10 -16 11 14 5 32 -6 33 -5 25 18 -4 13
-7 31 -6 40 0 13 -35 22 -196 48 -108 17 -200 31 -204 31 -17 0 -6 -18 14 -23
12 -4 19 -9 16 -12 -9 -9 -64 21 -58 32 9 15 -151 32 -305 32 -154 1 -245 15
-293 47 -12 8 -28 12 -34 8 -6 -4 -8 -3 -5 3 4 6 0 16 -8 23 -16 13 -18 2 -19
-90 -1 -35 -1 -35 -50 -38 -36 -2 -54 -9 -64 -23 -10 -15 -25 -19 -74 -19 -34
0 -140 -16 -236 -36 -183 -37 -229 -39 -325 -12 -41 11 -49 17 -54 41 -4 20
-8 25 -14 16 -4 -8 -10 -11 -12 -9 -2 3 -18 26 -37 52 -35 50 -53 53 -49 10 3
-36 -10 -62 -28 -62 -12 0 -13 -3 -4 -14 16 -19 4 -106 -20 -145 -28 -47 -91
-83 -152 -88 -81 -6 -100 -12 -93 -28 5 -15 -34 -32 -61 -27 -6 1 -25 -15 -43
-35 -17 -21 -28 -30 -24 -20 10 27 -11 20 -24 -8 -6 -14 -16 -25 -22 -25 -6 0
-8 5 -5 10 8 13 -1 13 -27 -1 -16 -8 -18 -13 -8 -19 15 -9 -48 -30 -93 -30
-32 0 -94 24 -118 46 -16 14 -20 12 -45 -23 -50 -65 -107 -119 -111 -105 -7
19 -33 -5 -33 -30 0 -18 2 -19 17 -7 17 13 17 13 0 -13 -9 -15 -17 -36 -17
-47 0 -22 -45 -63 -104 -93 -22 -11 -88 -51 -146 -88 -58 -37 -116 -73 -129
-79 l-23 -13 6 54 c4 29 6 61 5 71 -1 18 -1 138 0 227 0 64 19 149 36 166 7 7
15 36 18 64 4 29 13 62 20 74 8 12 20 48 27 81 15 70 23 88 62 136 16 20 28
40 26 45 -3 11 40 125 54 141 6 7 14 10 19 7 16 -9 31 6 19 21 -7 9 -6 16 6
26 10 8 19 13 21 12 13 -10 56 1 71 18 9 12 34 32 55 45 21 14 35 29 32 34 -7
11 37 51 102 92 24 16 42 32 39 36 -2 4 15 20 39 36 25 15 58 40 75 56 29 27
97 59 85 40 -10 -16 11 -11 25 5 7 8 19 15 26 15 8 0 14 10 14 23 0 30 36 65
51 50 8 -8 19 -6 39 4 16 7 55 16 87 19 32 3 65 7 73 11 47 18 467 30 495 14z
m-2518 -97 c-3 -3 -12 -4 -19 -1 -8 3 -5 6 6 6 11 1 17 -2 13 -5z m209 -192
c-4 -3 -14 2 -24 12 -16 18 -16 18 6 6 13 -6 21 -14 18 -18z m235 -194 c8 -14
6 -16 -7 -11 -13 5 -15 3 -9 -8 7 -11 3 -10 -15 2 -26 17 -26 36 0 30 11 -2
10 3 -5 20 l-20 24 23 -20 c13 -11 28 -28 33 -37z m89 -67 c-1 -13 -3 -13 -15
3 -19 26 -19 42 0 26 8 -7 15 -20 15 -29z m-37 -11 c8 -29 0 -24 -19 13 -14
27 -15 30 -2 19 9 -7 18 -22 21 -32z m-24 -43 c12 -15 12 -17 -3 -11 -9 3 -16
13 -16 22 0 8 1 13 3 11 1 -2 9 -12 16 -22z m98 -79 c-3 -8 -6 -5 -6 6 -1 11
2 17 5 13 3 -3 4 -12 1 -19z m2850 -15 c-20 -2 -52 -2 -70 0 -17 2 0 4 38 4
39 0 53 -2 32 -4z m938 -13 c3 -5 -1 -10 -9 -10 -8 0 -18 5 -21 10 -3 6 1 10
9 10 8 0 18 -4 21 -10z m-585 -10 c0 -5 -4 -10 -10 -10 -5 0 -10 5 -10 10 0 6
5 10 10 10 6 0 10 -4 10 -10z m730 -51 c38 -12 41 -14 20 -19 -21 -5 -15 -12
63 -75 47 -38 85 -71 83 -72 -1 -1 -53 14 -115 33 -62 19 -115 34 -117 32 -2
-2 12 -71 32 -152 19 -82 33 -150 31 -152 -2 -3 -139 284 -156 329 -3 9 26 5
64 -9 13 -5 16 -2 13 17 -2 17 -11 26 -33 30 l-30 7 29 1 c25 1 27 4 21 24 -3
12 -9 33 -12 47 l-6 25 34 -27 c19 -14 55 -32 79 -39z m-923 45 c-3 -3 -12 -4
-19 -1 -8 3 -5 6 6 6 11 1 17 -2 13 -5z m-3027 -31 c0 -19 -3 -24 -10 -17 -6
6 -8 18 -4 27 9 24 14 21 14 -10z m3455 17 c4 -6 -6 -10 -22 -10 -22 0 -25 2
-13 10 19 12 27 12 35 0z m-3394 -17 c13 -16 12 -17 -3 -4 -10 7 -18 15 -18
17 0 8 8 3 21 -13z m3016 1 c-3 -3 -12 -4 -19 -1 -8 3 -5 6 6 6 11 1 17 -2 13
-5z m158 -14 c3 -6 -1 -7 -9 -4 -18 7 -21 14 -7 14 6 0 13 -4 16 -10z m345
-10 c0 -5 -5 -10 -11 -10 -5 0 -7 -4 -4 -10 3 -5 -3 -10 -14 -10 -23 0 -24 1
-15 24 7 17 44 22 44 6z m-90 -16 c0 -2 -9 -4 -20 -4 -11 0 -20 4 -20 9 0 5 9
7 20 4 11 -3 20 -7 20 -9z m-3440 -8 c0 -3 -4 -8 -10 -11 -5 -3 -10 -1 -10 4
0 6 5 11 10 11 6 0 10 -2 10 -4z m3409 -27 c-14 -8 -29 -3 -29 11 0 4 9 6 21
3 15 -4 17 -8 8 -14z m-3310 -96 c0 -11 -3 -13 -6 -5 -2 6 -10 9 -15 6 -7 -4
-8 -2 -4 4 11 18 26 14 25 -5z m1 -69 c0 -8 -4 -12 -10 -9 -5 3 -10 10 -10 16
0 5 5 9 10 9 6 0 10 -7 10 -16z m2460 9 l25 -7 -25 -6 c-14 -4 31 -5 100 -4
282 6 339 6 349 -1 24 -14 207 -53 216 -45 5 4 35 4 65 -2 30 -5 74 -11 97
-13 58 -5 200 -50 248 -79 22 -13 74 -43 115 -67 41 -23 81 -51 89 -61 7 -11
47 -35 88 -55 41 -19 72 -38 69 -40 -3 -3 -13 0 -23 8 -10 8 -14 9 -10 2 11
-18 72 -59 63 -42 -4 7 8 -2 26 -21 18 -20 53 -51 78 -70 83 -63 242 -215 274
-260 17 -25 31 -58 32 -74 1 -16 9 -33 18 -38 9 -5 16 -14 16 -21 1 -20 81
-103 87 -89 7 18 38 -25 69 -94 20 -45 28 -55 36 -43 8 11 9 10 4 -4 -4 -12 7
-38 30 -73 41 -62 41 -85 0 -26 -15 22 -38 49 -51 62 l-24 22 6 -22 c8 -32
-13 -18 -33 22 -13 25 -14 32 -2 39 12 8 5 13 -14 10 -4 0 -5 5 -2 12 6 17
-59 92 -96 111 l-30 14 14 -26 c8 -15 22 -36 31 -47 9 -11 13 -14 9 -6 -5 9
-3 12 5 7 6 -4 9 -11 6 -16 -7 -11 102 -180 116 -180 5 0 9 -9 9 -20 0 -27 42
-92 76 -119 15 -12 35 -39 45 -61 22 -48 33 -52 24 -9 l-7 32 32 -23 c30 -21
51 -57 49 -83 0 -7 -10 8 -21 33 l-21 45 -9 -33 c-5 -18 -15 -35 -23 -38 -12
-5 -11 -12 5 -42 53 -100 170 -409 235 -617 84 -271 162 -621 205 -915 11 -80
23 -161 26 -180 l6 -35 -41 45 c-38 43 -40 44 -42 20 -1 -14 -1 -29 0 -35 4
-19 -124 121 -143 157 -12 23 -29 38 -45 42 -18 4 -43 30 -83 88 -31 46 -129
171 -218 278 -89 107 -171 214 -182 237 -17 39 -20 65 -19 206 l0 28 -18 -23
c-17 -20 -28 -23 -83 -23 -37 0 -83 8 -113 19 -71 27 -175 97 -175 119 0 9 -4
17 -9 17 -31 0 -197 140 -212 178 -6 15 -16 22 -27 20 -10 -1 -46 15 -80 37
-70 45 -73 54 -48 154 27 110 27 111 12 111 -8 0 -29 -20 -47 -45 -18 -25 -35
-45 -38 -46 -3 0 -31 -2 -61 -3 -30 -1 -77 -5 -105 -9 -27 -4 -39 -3 -25 1 22
7 23 9 7 15 -10 4 -36 7 -58 7 -27 0 -37 4 -33 13 3 8 -10 20 -32 30 -32 16
-36 16 -30 2 7 -19 -6 -13 -100 47 -55 34 -237 124 -386 191 l-58 26 1 53 c1
73 22 187 34 185 6 -1 11 10 13 26 2 19 -1 27 -12 27 -10 0 -16 -9 -17 -22 -1
-18 -2 -19 -6 -5 -4 16 -6 16 -31 -4 -52 -40 -178 -109 -226 -124 -27 -8 -68
-15 -91 -15 -41 0 -140 25 -160 40 -5 4 -37 10 -70 13 -62 6 -165 35 -165 47
0 4 -20 7 -44 7 -57 1 -180 30 -232 54 -23 10 -47 19 -55 19 -26 0 -119 49
-144 76 -14 15 -25 37 -25 49 0 13 -7 28 -15 35 -13 11 -20 9 -43 -12 -26 -25
-51 -35 -140 -58 -23 -6 -40 -14 -38 -19 6 -9 -149 -31 -216 -31 -38 0 -47 4
-51 21 -5 20 -7 20 -35 4 -28 -17 -29 -17 -76 19 -26 20 -53 37 -59 37 -7 1
-28 2 -47 3 -19 1 -61 6 -92 10 -51 7 -58 6 -58 -9 0 -12 -5 -15 -22 -9 -12 3
-76 12 -142 18 l-119 11 58 40 c32 22 68 46 81 53 13 7 24 17 24 22 0 5 25 23
56 40 30 18 75 48 100 66 54 42 160 102 150 86 -4 -7 -1 -12 7 -12 8 0 17 6
20 13 3 8 21 22 41 31 24 11 36 24 36 37 0 29 46 68 76 64 13 -1 27 2 30 7 9
15 135 69 145 62 5 -3 19 2 31 10 12 9 29 16 37 16 8 0 22 6 30 13 26 22 395
157 448 163 26 4 65 16 86 26 22 11 41 17 44 15 2 -3 31 8 64 24 48 24 63 28
80 19 17 -10 28 -7 59 14 22 14 41 22 44 17 6 -9 66 6 161 40 58 21 82 25 173
28 30 1 42 5 42 16 0 8 5 15 11 15 5 0 7 5 4 10 -7 12 1 12 35 3z m-4564 -18
c9 -8 29 -15 47 -15 36 0 150 -22 157 -30 7 -8 94 -35 103 -32 16 5 394 -121
460 -154 37 -19 77 -34 87 -34 10 0 21 -4 24 -9 3 -5 40 -17 81 -26 41 -9 73
-20 70 -25 -7 -11 15 -27 50 -35 17 -4 57 -20 90 -35 33 -16 87 -36 120 -45
33 -9 89 -34 125 -55 46 -27 67 -35 73 -27 5 9 11 7 21 -5 7 -10 28 -25 47
-33 19 -9 54 -29 79 -45 25 -16 92 -52 150 -80 58 -28 119 -64 135 -79 32 -30
231 -181 238 -181 10 0 35 79 63 192 23 98 30 114 40 100 10 -14 11 -13 7 11
-3 15 -9 25 -13 22 -5 -3 -14 12 -20 32 -7 21 -16 42 -20 46 -4 4 -15 -51 -25
-122 -10 -72 -21 -129 -23 -127 -2 3 0 82 4 177 7 170 7 172 24 139 l17 -33 8
34 c6 30 13 10 55 -156 27 -104 47 -191 45 -193 -2 -2 -9 15 -16 37 -18 60
-23 42 -10 -36 19 -108 30 -143 45 -137 9 4 17 -16 27 -70 8 -41 11 -72 7 -70
-4 3 -4 -6 1 -19 6 -14 8 -27 6 -29 -2 -2 5 -32 15 -67 23 -72 26 -105 9 -81
-11 15 -9 -3 6 -70 5 -21 4 -21 -9 5 -8 17 -15 26 -15 21 -2 -18 31 -132 45
-156 l15 -25 -6 28 c-4 19 -2 26 5 22 7 -4 9 3 5 22 -4 19 -1 16 10 -11 8 -22
12 -48 9 -59 -4 -14 -3 -17 6 -12 8 5 11 4 7 -2 -7 -12 15 -88 39 -134 10 -19
25 -59 34 -89 15 -49 22 -57 64 -79 35 -17 67 -24 134 -27 93 -5 90 8 -5 21
-29 4 -55 11 -59 16 -7 12 18 12 50 -1 14 -5 76 -16 138 -25 135 -19 218 -43
211 -61 -6 -17 22 -30 87 -39 30 -4 60 -11 65 -15 6 -4 37 -11 70 -15 96 -11
140 -25 173 -55 17 -15 68 -42 114 -59 46 -18 121 -56 168 -85 47 -30 119 -70
160 -89 137 -65 232 -136 562 -419 62 -53 126 -114 142 -135 24 -30 25 -34 6
-18 l-23 20 13 -25 c16 -31 94 -110 109 -110 6 0 16 -12 22 -27 12 -31 173
-260 199 -283 21 -19 51 -80 45 -91 -3 -4 -1 -11 5 -14 6 -4 10 -3 9 2 -1 4
-1 12 0 18 5 43 234 -441 278 -588 8 -29 22 -65 31 -82 9 -16 17 -37 18 -45 1
-8 9 -32 18 -53 9 -20 25 -96 36 -168 11 -72 22 -134 25 -138 2 -5 -1 -22 -7
-38 -9 -24 -8 -58 5 -154 90 -658 13 -1212 -239 -1718 -243 -489 -620 -884
-1188 -1245 -33 -21 -143 -83 -244 -138 -308 -167 -668 -287 -1043 -348 -67
-11 -129 -26 -138 -34 -13 -11 -79 -14 -331 -15 -259 -2 -320 -5 -347 -18 -26
-12 -44 -13 -88 -6 -30 6 -76 7 -102 2 -35 -5 -57 -3 -82 9 -26 12 -37 13 -52
4 -12 -8 -20 -8 -24 -1 -4 5 7 15 24 22 17 6 31 14 31 18 0 3 -28 10 -62 13
-35 4 -91 13 -125 21 -63 12 -63 12 -63 -10 0 -12 7 -28 15 -35 28 -23 15 -30
-22 -14 -80 34 -151 55 -221 66 -41 6 -68 14 -62 18 7 4 -17 15 -55 25 -65 18
-66 19 -38 30 27 11 27 12 8 22 -66 35 -322 94 -272 63 9 -6 61 -27 115 -45
53 -19 90 -34 81 -35 -9 0 -35 7 -59 15 -23 8 -57 16 -75 18 -18 2 -62 21 -99
41 -66 37 -82 50 -48 40 14 -4 14 -3 -2 8 -10 7 -31 24 -45 36 -19 17 -21 22
-8 18 32 -10 175 -46 184 -46 4 0 -28 20 -72 44 -53 29 -99 46 -135 50 -77 10
-89 15 -101 37 -7 15 -7 24 1 35 10 11 -1 20 -66 50 -44 19 -104 47 -134 61
-66 31 -170 128 -170 159 0 15 -15 32 -50 54 -44 28 -48 34 -34 44 14 11 14
13 1 25 -9 7 -28 16 -44 20 -21 6 -37 24 -69 85 -25 46 -44 73 -49 67 -4 -7
-4 -20 -1 -29 8 -24 -52 46 -71 83 -15 30 -15 30 4 13 23 -21 37 -23 51 -5 14
17 -36 81 -115 146 -66 54 -88 79 -60 68 10 -3 -2 21 -29 60 -48 70 -145 264
-162 323 -6 19 -22 75 -37 124 -14 49 -39 110 -55 134 -17 25 -30 53 -30 61 1
9 7 1 15 -16 26 -60 23 -34 -7 65 -16 53 -36 102 -44 108 -9 7 -15 31 -15 63
-1 28 -12 86 -24 129 -12 42 -20 81 -17 86 6 11 41 -114 49 -176 3 -27 7 -48
8 -48 18 0 35 16 35 33 0 11 -29 106 -65 212 l-64 191 -2 127 c-1 70 1 130 4
133 3 4 2 15 -4 25 -7 15 -6 19 5 19 8 0 19 -12 25 -27 9 -23 10 -18 5 31 -7
71 -13 88 -26 80 -7 -4 -7 5 -2 27 4 19 7 99 5 178 -2 101 1 141 8 137 7 -5
11 9 11 42 0 28 12 90 26 138 18 60 27 119 29 182 1 51 7 98 12 105 6 6 16 48
22 92 7 44 28 127 47 184 39 120 39 117 19 101 -28 -23 -17 10 16 48 37 42 59
90 59 131 0 37 9 61 24 61 6 0 21 22 34 48 41 86 87 167 110 196 12 16 22 35
22 42 0 20 78 167 96 181 9 6 22 9 28 7 8 -3 20 13 31 42 10 26 24 54 31 63
37 46 101 127 119 150 11 14 45 51 76 82 31 30 67 75 79 100 26 52 58 89 77
89 8 0 16 8 20 18 19 52 191 214 231 217 12 1 19 -3 15 -9 -6 -11 38 27 117
101 25 24 54 42 65 41 11 -1 44 16 74 37 51 37 53 40 30 45 -22 5 -20 7 19 23
23 9 47 17 53 17 6 0 25 11 42 24 41 31 173 96 265 130 39 15 72 34 72 41 0 7
7 16 16 19 8 3 12 2 9 -4 -10 -16 0 -13 138 47 104 44 148 58 207 63 41 4 88
13 103 19 40 15 52 14 37 -4 -11 -14 -10 -14 16 -4 16 6 44 11 63 11 19 0 66
10 105 23 87 28 186 42 186 26 0 -6 -17 -11 -37 -12 l-38 -1 38 -10 c61 -16
65 -11 62 86 -1 47 2 83 6 80 5 -3 9 7 9 23 0 22 2 25 11 13 7 -11 8 -1 4 35
-10 77 -10 128 -1 150 4 11 8 54 9 96 2 61 0 73 -10 60 -15 -20 -9 32 17 136
10 40 14 70 9 67 -12 -7 -11 5 5 59 l14 47 -138 0 c-83 0 -140 -4 -142 -10 -2
-6 -41 -15 -88 -22 -47 -7 -87 -15 -90 -19 -6 -8 -275 -24 -395 -23 -38 0 -99
6 -135 13 -36 7 -74 14 -85 15 -22 3 -65 24 -65 32 0 3 5 2 10 -1 18 -11 11 1
-12 21 -14 13 -19 14 -14 4 4 -8 -1 -5 -11 8 l-18 22 -14 -30 c-18 -42 -100
-121 -153 -147 -50 -26 -160 -46 -169 -31 -3 5 -30 7 -60 5 -66 -6 -147 -36
-128 -48 16 -9 -17 -24 -77 -35 -22 -3 -77 -17 -123 -30 -86 -25 -159 -33 -86
-10 22 7 58 22 80 34 36 19 37 21 15 22 -19 0 -21 3 -10 9 27 15 83 24 76 12
-4 -6 -1 -11 6 -11 20 0 135 57 158 78 21 19 21 19 -22 11 -24 -4 -47 -8 -51
-9 -5 0 -5 -5 -1 -11 4 -8 -1 -9 -16 -4 -17 5 -21 4 -15 -5 5 -9 4 -11 -3 -6
-10 6 -119 -21 -172 -42 -8 -3 -31 -7 -50 -9 -41 -4 -141 -33 -154 -44 -5 -4
-18 -3 -29 3 -11 5 -34 14 -51 19 l-31 8 24 -19 c13 -11 31 -21 40 -21 18 -2
-34 -16 -64 -18 -21 -1 -91 37 -82 45 2 3 20 -4 38 -15 43 -26 53 -26 38 0 -6
12 -9 32 -6 45 3 18 -2 25 -25 35 -34 14 -118 111 -149 171 l-21 42 -19 -25
c-25 -33 -32 -106 -22 -216 8 -82 7 -97 -11 -133 -25 -55 -63 -79 -250 -154
-86 -35 -211 -95 -278 -132 -141 -78 -190 -89 -254 -56 -21 11 -52 34 -68 51
-16 17 -34 28 -39 24 -6 -3 -7 -1 -3 5 8 14 -69 72 -95 72 -28 0 -28 -11 2
-65 22 -38 29 -44 29 -27 0 12 5 22 11 22 5 0 7 6 3 13 -5 9 -4 9 5 1 7 -7 23
-42 36 -78 25 -71 21 -124 -12 -175 -8 -13 -16 -36 -17 -52 -3 -39 -31 -66
-128 -124 -158 -93 -183 -110 -307 -212 -68 -57 -127 -103 -131 -103 -4 0 -42
16 -85 35 -43 20 -80 34 -82 31 -8 -8 8 -27 17 -21 12 7 20 -21 20 -73 0 -68
-37 -139 -120 -227 -39 -43 -78 -88 -87 -102 -9 -13 -22 -22 -29 -19 -8 3 -14
1 -14 -5 0 -38 -145 -207 -182 -213 -24 -3 -39 -18 -34 -32 3 -7 -5 -26 -18
-41 -13 -16 -36 -48 -51 -72 -60 -96 -341 -428 -353 -417 -1 2 6 39 17 82 11
44 20 88 19 99 0 11 3 34 7 50 7 26 6 28 -7 17 -14 -11 -14 -6 -6 40 5 29 16
68 24 86 11 24 14 52 11 95 -3 34 -3 52 -1 39 10 -43 23 -11 18 46 -2 37 -1
48 4 32 l8 -25 7 25 c10 36 8 62 -3 55 -14 -8 -14 -10 20 132 43 178 128 469
156 530 13 29 26 64 30 77 3 14 13 31 22 38 14 11 15 10 8 -7 -6 -18 -5 -18 8
-5 15 16 19 32 17 65 -2 19 -2 19 -15 2 -13 -17 -14 -15 -10 20 2 21 5 59 7
85 3 31 21 80 52 140 26 51 65 133 86 181 37 83 129 240 155 262 6 6 19 33 28
60 16 50 82 155 96 155 5 0 11 13 15 30 7 34 130 203 151 208 7 2 41 41 74 87
33 46 73 89 88 96 15 6 44 36 65 64 50 69 121 131 199 175 35 20 63 41 63 47
0 6 23 27 50 48 28 21 64 50 82 66 40 34 73 46 83 28 7 -10 11 -10 24 1 9 7
14 15 11 18 -3 3 0 11 5 17 7 8 34 10 86 7 53 -3 78 -1 83 7 6 9 93 30 169 41
1 0 2 6 2 13 0 16 148 47 220 47 25 0 54 6 65 14 37 25 320 49 364 30 30 -13
121 -7 139 9 15 13 37 22 65 26 5 0 15 -6 23 -14z m2138 -212 c5 -16 3 -23 -5
-23 -7 0 -10 3 -6 6 3 3 -1 24 -9 46 -8 22 -14 46 -13 52 0 10 17 -30 33 -81z
m-598 -314 c19 -22 19 -22 -3 -10 -13 6 -23 16 -23 21 0 15 5 12 26 -11z m564
-59 c0 -5 -5 -10 -11 -10 -5 0 -7 5 -4 10 3 6 8 10 11 10 2 0 4 -4 4 -10z
m4400 -275 c7 -8 8 -15 2 -15 -5 0 -15 7 -22 15 -7 8 -8 15 -2 15 5 0 15 -7
22 -15z m-6800 -148 c0 -7 -7 -22 -15 -33 -12 -16 -14 -17 -15 -2 0 23 11 48
21 48 5 0 9 -6 9 -13z m75 -144 l1 -25 -18 21 c-9 12 -14 29 -11 37 8 22 28 0
28 -33z m804 13 c-2 -2 -15 -9 -29 -16 -23 -12 -24 -12 -11 3 7 10 20 17 29
17 8 0 13 -2 11 -4z m6111 -100 c0 -6 -9 0 -20 14 -26 33 -25 52 0 21 11 -13
20 -28 20 -35z m-7025 -7 l-14 -44 6 40 c6 42 12 59 19 52 2 -2 -3 -23 -11
-48z m530 42 c-16 -14 -55 -23 -55 -12 0 8 16 14 55 20 5 0 5 -2 0 -8z m-262
-58 c-7 -2 -19 -2 -25 0 -7 3 -2 5 12 5 14 0 19 -2 13 -5z m-202 -30 c-8 -15
-10 -15 -11 -2 0 17 10 32 18 25 2 -3 -1 -13 -7 -23z m336 21 c-3 -3 -12 -4
-19 -1 -8 3 -5 6 6 6 11 1 17 -2 13 -5z m6708 -14 c3 -5 1 -10 -4 -10 -6 0
-11 5 -11 10 0 6 2 10 4 10 3 0 8 -4 11 -10z m-7102 -41 c-4 -13 -9 -17 -15
-11 -11 11 -3 32 12 32 4 0 6 -9 3 -21z m2744 -11 c-3 -8 -6 -5 -6 6 -1 11 2
17 5 13 3 -3 4 -12 1 -19z m26 -71 c-7 -11 -9 -7 -17 28 l-6 30 14 -25 c8 -14
12 -28 9 -33z m4377 28 c7 -9 8 -15 2 -15 -5 0 -12 7 -16 15 -3 8 -4 15 -2 15
2 0 9 -7 16 -15z m-7315 -135 c-3 -5 -16 -10 -28 -10 -18 0 -19 2 -7 10 20 13
43 13 35 0z m-95 -10 c-20 -13 -43 -13 -35 0 3 6 16 10 28 10 18 0 19 -2 7
-10z m-30 -25 c0 -2 -10 -9 -22 -15 -22 -11 -22 -10 -4 4 21 17 26 19 26 11z
m7528 -76 c-9 -6 -19 -2 -30 12 -22 26 -23 43 -2 35 12 -5 14 -1 9 17 -3 12 4
5 16 -17 17 -31 18 -40 7 -47z m-7783 0 c-42 -27 -80 -47 -84 -43 -3 4 -1 8 4
10 6 2 39 22 75 44 93 57 97 49 5 -11z m7844 -104 c0 -5 -6 -1 -14 9 -8 11
-15 24 -15 30 0 5 7 1 15 -10 8 -10 14 -23 14 -29z m41 -9 c0 -26 -9 -16 -20
25 -9 31 -8 32 5 15 8 -11 15 -29 15 -40z m-66 -53 c9 -18 14 -33 12 -33 -6 0
-36 55 -36 66 0 11 5 3 24 -33z m103 -145 c-3 -8 -6 -5 -6 6 -1 11 2 17 5 13
3 -3 4 -12 1 -19z m13 -83 c0 -5 -5 -3 -10 5 -5 8 -10 20 -10 25 0 6 5 3 10
-5 5 -8 10 -19 10 -25z m-30 -40 c0 -17 -2 -17 -10 -5 -5 8 -10 24 -10 35 0
17 2 17 10 5 5 -8 10 -24 10 -35z m79 -29 c-3 -3 -11 5 -18 17 -13 21 -12 21
5 5 10 -10 16 -20 13 -22z m-69 -6 c0 -5 -4 -10 -10 -10 -5 0 -10 5 -10 10 0
6 5 10 10 10 6 0 10 -4 10 -10z m40 -31 c0 -5 -4 -9 -10 -9 -5 0 -10 7 -10 16
0 8 5 12 10 9 6 -3 10 -10 10 -16z m-6450 -117 c0 -5 -12 -14 -27 -21 l-28
-12 25 21 c29 22 30 23 30 12z m6560 -79 c0 -22 -2 -25 -10 -13 -13 20 -13 40
0 40 6 0 10 -12 10 -27z m-6730 -46 c0 -2 -12 -14 -26 -28 l-27 -24 18 28 c14
22 35 36 35 24z m6730 -48 c0 -11 -4 -17 -10 -14 -5 3 -10 13 -10 21 0 8 5 14
10 14 6 0 10 -9 10 -21z m-13 -211 c-3 -8 -6 -5 -6 6 -1 11 2 17 5 13 3 -3 4
-12 1 -19z m37 -58 c4 -24 3 -29 -3 -15 -4 11 -11 36 -15 55 -4 24 -3 29 3 15
4 -11 11 -36 15 -55z m25 -94 c1 -32 -12 -9 -15 26 -2 26 -1 29 6 13 5 -11 9
-29 9 -39z m-7202 -22 c-3 -3 -12 -4 -19 -1 -8 3 -5 6 6 6 11 1 17 -2 13 -5z
m7173 -494 c0 -5 -7 -7 -15 -4 -8 4 -12 10 -9 15 6 11 24 2 24 -11z m-7588
-75 c-8 -25 -18 -45 -22 -45 -4 0 -27 -19 -50 -42 l-42 -43 42 65 c37 55 79
110 85 110 1 0 -4 -20 -13 -45z m-142 -225 c-6 -11 -13 -20 -16 -20 -2 0 0 9
6 20 6 11 13 20 16 20 2 0 0 -9 -6 -20z m250 -3370 c0 -37 -16 -35 -46 6 l-32
42 39 -17 c21 -9 39 -23 39 -31z m598 -684 c20 -13 46 -34 57 -47 l20 -24 -21
18 c-11 9 -27 17 -36 17 -18 0 -68 37 -68 51 0 13 7 11 48 -15z m2757 -356 c3
-5 1 -10 -4 -10 -6 0 -11 5 -11 10 0 6 2 10 4 10 3 0 8 -4 11 -10z m-235 -75
c-46 -18 -74 -18 -35 0 17 7 39 13 50 13 13 0 7 -5 -15 -13z m-101 1 c-2 -2
-33 -12 -68 -21 -50 -13 -66 -14 -75 -4 -8 9 -8 10 2 5 7 -4 18 -3 25 2 7 5
21 12 32 15 25 6 90 8 84 3z m-152 -42 c-3 -3 -12 -4 -19 -1 -8 3 -5 6 6 6 11
1 17 -2 13 -5z"/>
<path d="M3590 9799 c0 -18 4 -20 23 -14 12 4 38 7 57 6 l35 0 -30 14 c-16 8
-42 14 -57 15 -22 0 -28 -5 -28 -21z"/>
<path d="M3875 9810 c-3 -5 -1 -10 4 -10 6 0 11 5 11 10 0 6 -2 10 -4 10 -3 0
-8 -4 -11 -10z"/>
<path d="M4163 9803 c-33 -6 -28 -25 5 -22 15 2 32 0 39 -4 7 -4 50 -16 95
-27 46 -10 93 -22 105 -25 17 -5 25 -2 30 10 11 29 -24 45 -98 45 -47 0 -70 4
-79 15 -12 14 -49 17 -97 8z"/>
<path d="M3339 9772 c-15 -2 -37 -15 -50 -29 l-24 -26 35 7 c31 6 81 41 69 48
-2 2 -16 2 -30 0z"/>
<path d="M2805 9580 c-3 -5 -1 -10 4 -10 6 0 11 5 11 10 0 6 -2 10 -4 10 -3 0
-8 -4 -11 -10z"/>
<path d="M2084 9239 c-20 -23 -16 -24 20 -5 20 10 23 15 12 19 -8 3 -22 -3
-32 -14z"/>
<path d="M7075 9800 c-3 -5 -1 -10 4 -10 6 0 11 5 11 10 0 6 -2 10 -4 10 -3 0
-8 -4 -11 -10z"/>
<path d="M7560 9728 c-25 -11 -25 -11 13 -21 28 -7 46 -6 65 3 l27 13 -25 8
c-35 10 -51 9 -80 -3z"/>
<path d="M6309 9683 c-12 -15 -12 -16 4 -10 10 4 23 7 28 7 6 0 7 5 4 10 -9
15 -21 12 -36 -7z"/>
<path d="M7856 9643 c-8 -19 -10 -17 38 -37 51 -21 54 -20 25 10 -36 38 -56
47 -63 27z"/>
<path d="M8350 9406 c14 -8 29 -12 34 -9 5 4 14 -1 20 -9 20 -27 180 -103 196
-93 35 21 -13 58 -89 68 -30 4 -50 13 -61 28 -13 16 -30 23 -71 26 -51 4 -53
3 -29 -11z"/>
<path d="M7640 9289 c0 -25 3 -29 13 -20 8 6 17 8 20 4 4 -3 7 0 7 8 0 16 -19
39 -32 39 -4 0 -8 -14 -8 -31z"/>
<path d="M7970 8791 l-45 -16 60 -3 c38 -2 74 3 98 13 20 8 37 16 37 18 0 10
-114 1 -150 -12z"/>
<path d="M8436 8734 c-8 -20 -9 -18 30 -32 23 -7 35 -7 44 1 10 9 11 9 6 0 -5
-9 41 -34 63 -33 16 1 -115 80 -133 80 -2 0 -7 -7 -10 -16z"/>
<path d="M7200 8675 c-14 -16 -10 -18 14 -9 9 3 16 10 16 15 0 14 -16 11 -30
-6z"/>
<path d="M8830 8570 c8 -5 20 -10 25 -10 6 0 3 5 -5 10 -8 5 -19 10 -25 10 -5
0 -3 -5 5 -10z"/>
<path d="M9190 8342 c19 -15 37 -27 40 -27 14 -1 50 -27 46 -34 -3 -4 30 -39
72 -77 42 -38 73 -62 69 -54 -5 8 0 4 10 -10 42 -57 66 -80 84 -80 10 0 19 7
19 15 0 22 -59 84 -101 106 -48 24 -111 78 -104 89 7 11 -67 62 -119 84 -53
22 -56 20 -16 -12z"/>
<path d="M6086 8218 c-28 -23 -10 -22 34 2 30 16 32 18 11 17 -13 -1 -34 -9
-45 -19z"/>
<path d="M2980 8780 c-12 -8 -9 -10 12 -10 14 0 32 -2 40 -3 7 -2 10 -2 5 0
-4 3 -5 9 -1 14 7 12 -37 11 -56 -1z"/>
<path d="M4170 8466 c0 -2 7 -6 15 -10 8 -3 15 -1 15 4 0 6 -7 10 -15 10 -8 0
-15 -2 -15 -4z"/>
<path d="M4887 8101 c35 -21 65 -31 90 -30 21 0 31 3 23 6 -8 3 -24 14 -36 25
-13 11 -42 21 -75 24 l-54 6 52 -31z"/>
<path d="M4111 8009 c-5 -13 -10 -19 -10 -14 -1 6 -13 -10 -27 -35 -39 -70
-101 -128 -156 -146 -35 -11 -48 -21 -48 -35 0 -14 7 -19 26 -19 49 0 94 31
141 99 26 36 55 74 65 84 10 10 18 24 18 32 0 18 5 18 32 4 31 -17 31 -5 -2
26 l-29 28 -10 -24z"/>
<path d="M4824 7921 c7 -11 134 -34 146 -26 6 4 10 13 10 21 0 18 -76 20 -83
2 -4 -10 -6 -10 -6 0 -1 7 -15 12 -37 12 -19 0 -33 -4 -30 -9z"/>
<path d="M5702 6742 c-5 -15 -13 -35 -17 -45 -7 -16 -1 -15 58 7 l66 25 165
-247 c90 -136 169 -260 175 -275 12 -31 3 -86 -24 -149 -19 -47 -19 -58 0 -58
38 0 245 -79 384 -146 154 -74 178 -83 165 -63 -5 8 -1 8 14 0 12 -6 24 -16
27 -21 4 -6 52 -45 108 -87 103 -78 306 -273 430 -415 38 -43 78 -80 91 -84
14 -3 37 -30 62 -71 21 -36 46 -73 54 -82 70 -80 100 -129 100 -164 0 -13 9
-32 20 -42 11 -10 20 -25 20 -34 0 -10 -11 -4 -35 19 -19 19 -35 31 -35 28 0
-10 52 -131 62 -144 5 -7 11 -20 13 -30 2 -11 14 -50 27 -88 l24 -69 22 28
c12 15 22 37 22 48 0 46 12 2 26 -94 9 -57 29 -155 45 -218 29 -114 37 -166
18 -126 -7 16 -8 14 -4 -10 2 -16 7 -57 10 -90 4 -50 3 -56 -6 -37 -27 51 -32
21 -25 -145 3 -93 9 -185 13 -206 11 -73 23 -15 24 128 l2 140 9 -120 c7 -97
5 -139 -8 -215 -12 -65 -19 -89 -24 -75 -6 16 -9 12 -14 -20 -4 -22 -14 -51
-21 -65 -13 -22 -14 -11 -16 115 -1 77 -4 127 -6 110 -2 -16 -13 -70 -24 -120
-11 -52 -19 -129 -19 -185 0 -77 -4 -100 -19 -120 -16 -20 -22 -22 -34 -12
-13 11 -18 5 -35 -40 -11 -29 -30 -87 -42 -128 -12 -41 -32 -93 -43 -115 -11
-22 -22 -46 -23 -53 -3 -17 -110 -148 -142 -172 -14 -11 -33 -20 -42 -20 -10
0 -41 -29 -70 -66 -46 -58 -53 -64 -64 -49 -11 15 -15 13 -44 -20 -18 -20 -30
-41 -26 -46 6 -10 -114 -69 -183 -90 -49 -14 -56 -29 -15 -30 21 -1 10 -9 -53
-40 -96 -46 -105 -48 -65 -12 21 20 27 32 21 42 -8 12 -19 11 -73 -9 -34 -12
-79 -33 -99 -45 -40 -26 -175 -95 -185 -95 -4 0 0 8 7 17 13 15 11 16 -11 9
-108 -30 -192 -38 -370 -34 -133 4 -198 9 -230 21 -25 9 -74 23 -110 32 -36 9
-84 23 -108 31 -23 8 -58 14 -77 14 -18 0 -35 4 -37 9 -4 10 -254 111 -283
114 -26 3 -63 23 -95 52 -14 12 -69 48 -122 79 -53 31 -100 61 -104 67 -9 16
-5 14 133 -69 67 -39 125 -78 130 -84 5 -9 9 -5 13 12 5 23 -5 31 -155 115
-289 163 -335 197 -432 323 -37 48 -71 89 -75 90 -5 2 -8 12 -8 23 0 11 -9 27
-20 36 -11 10 -20 23 -20 30 0 6 -10 19 -22 27 -37 26 -12 30 29 5 35 -22 33
-18 -27 49 -35 39 -69 72 -76 72 -6 0 -20 19 -30 42 -10 24 -38 70 -60 103
-49 71 -134 226 -134 244 0 7 5 9 11 5 6 -3 4 7 -5 24 -24 46 -53 163 -61 239
-8 81 -33 190 -50 218 -7 11 -15 43 -18 70 -3 28 -9 59 -12 70 -4 12 -3 15 2
8 4 -6 8 76 8 185 0 128 5 216 13 252 7 30 15 66 18 80 l5 25 -20 -25 -20 -25
9 38 c4 21 16 47 25 57 20 22 64 146 65 180 0 40 20 101 31 95 5 -4 16 11 25
32 16 38 50 96 132 220 24 36 41 68 37 71 -3 3 -26 -14 -52 -39 l-46 -44 45
60 c53 70 128 144 128 128 0 -7 -4 -14 -9 -17 -5 -3 -19 -25 -31 -48 -14 -27
-16 -37 -7 -29 8 6 22 27 31 44 22 49 152 195 189 213 29 15 27 11 -20 -39
-29 -31 -53 -59 -53 -64 1 -4 22 16 49 45 26 28 51 52 54 52 4 0 26 21 49 46
24 26 68 62 98 82 69 44 282 154 287 148 8 -7 167 45 212 70 24 13 50 24 57
24 12 0 12 4 -1 24 -17 26 -79 305 -70 314 3 3 5 -3 6 -14 0 -15 2 -14 10 6
14 33 -6 171 -26 186 -8 6 -15 17 -15 23 0 7 -8 10 -17 7 -10 -2 -37 -10 -60
-17 -44 -12 -57 -28 -25 -30 40 -1 -25 -18 -74 -18 -35 -1 -101 -19 -217 -60
-220 -79 -284 -108 -308 -143 -19 -26 -49 -42 -33 -17 21 34 -128 -70 -241
-170 -38 -34 -88 -70 -111 -81 -23 -11 -63 -48 -94 -85 -57 -68 -68 -79 -50
-44 21 39 2 31 -30 -13 -17 -23 -34 -41 -36 -38 -6 6 -91 -126 -100 -155 -7
-22 -113 -205 -119 -205 -8 0 11 48 32 80 31 46 29 63 -3 25 -34 -40 -77 -132
-70 -150 3 -8 -10 -47 -28 -87 -19 -40 -40 -99 -47 -130 -7 -31 -17 -54 -21
-52 -5 3 -11 -9 -15 -27 -5 -28 -7 -30 -13 -14 -6 16 -10 12 -19 -22 -6 -23
-9 -54 -5 -68 7 -29 -14 -155 -26 -155 -5 0 -10 -47 -12 -105 -2 -58 -2 -105
0 -105 1 0 7 10 13 23 7 15 7 -2 3 -58 -6 -65 -12 -265 -15 -455 -1 -64 12
-120 26 -120 14 0 17 -12 29 -107 3 -23 9 -49 13 -59 4 -12 3 -15 -5 -10 -9 5
-9 0 -1 -21 5 -15 12 -41 14 -58 2 -16 17 -75 34 -130 35 -114 37 -126 11 -70
-25 54 -25 28 0 -37 25 -66 25 -73 0 -28 -11 19 -19 32 -20 29 -1 -26 102
-259 115 -259 3 0 -4 18 -15 40 -24 47 -25 57 -5 40 10 -8 7 5 -9 41 -13 30
-27 65 -31 79 -7 24 -7 24 9 5 8 -11 16 -27 16 -35 0 -8 14 -44 30 -78 17 -35
28 -67 25 -72 -3 -4 21 -57 52 -116 80 -152 136 -268 172 -356 37 -89 72 -145
131 -211 55 -62 64 -52 13 15 -54 71 -78 119 -54 104 5 -3 23 -30 39 -59 16
-28 87 -113 156 -187 117 -124 166 -183 137 -166 -20 13 -11 -12 15 -43 14
-17 46 -43 70 -57 25 -15 49 -35 55 -45 5 -11 38 -33 72 -50 86 -44 165 -99
213 -150 56 -60 488 -299 539 -299 12 0 68 -16 126 -35 144 -49 341 -101 484
-126 125 -22 298 -28 480 -16 61 4 82 3 65 -3 -17 -7 4 -8 69 -5 64 3 100 10
111 20 10 9 36 15 66 15 88 0 337 73 404 118 38 25 112 52 124 45 6 -4 6 0 -1
8 -10 13 -5 19 35 38 83 40 209 120 299 190 115 88 333 317 370 386 15 30 30
52 32 49 2 -2 18 22 34 53 16 32 60 110 98 173 38 63 76 138 85 165 10 28 28
61 42 75 33 33 48 70 78 195 81 337 96 748 39 1082 -97 570 -382 1112 -848
1617 -280 304 -726 625 -1002 720 -27 10 -62 24 -77 32 -14 8 -32 14 -40 14
-7 0 -26 7 -43 16 -91 48 -375 110 -582 128 -71 6 -71 6 -81 -22z m-463 -227
c1 -16 -1 -17 -9 -5 -5 8 -9 29 -9 45 1 29 1 29 9 5 4 -14 8 -34 9 -45z m931
-425 c0 -5 -5 -10 -11 -10 -5 0 -7 5 -4 10 3 6 8 10 11 10 2 0 4 -4 4 -10z
m198 -121 c23 -7 40 -14 38 -16 -5 -5 -116 27 -116 33 0 3 8 3 18 0 9 -2 36
-10 60 -17z m153 -85 c56 -23 87 -40 81 -46 -6 -6 -41 6 -93 32 -128 63 -124
68 12 14z m154 -65 c15 -14 -7 -10 -35 7 l-25 15 25 -7 c14 -3 29 -10 35 -15z
m-2491 -569 c-10 -16 -20 -28 -22 -26 -4 5 28 56 35 56 2 0 -4 -13 -13 -30z
m3456 -2138 c-7 -39 -36 -92 -51 -92 -5 0 -4 11 1 25 12 33 50 105 54 105 2 0
0 -17 -4 -38z m-2230 -752 c8 -5 11 -10 5 -10 -5 0 -17 5 -25 10 -8 5 -10 10
-5 10 6 0 17 -5 25 -10z m1294 -49 c15 -6 2 -13 -55 -34 l-74 -26 37 35 c38
34 56 39 92 25z"/>
<path d="M3566 6391 c-4 -5 -2 -12 3 -15 5 -4 12 -2 15 3 4 5 2 12 -3 15 -5 4
-12 2 -15 -3z"/>
<path d="M5495 5829 c-232 -32 -455 -121 -635 -253 -124 -90 -274 -254 -330
-359 -15 -28 -49 -91 -74 -138 -42 -79 -105 -249 -121 -327 -5 -24 -3 -33 9
-38 13 -5 13 -9 2 -27 -16 -25 -46 -183 -46 -239 0 -24 6 -41 18 -50 17 -12
32 -66 35 -128 1 -14 6 -28 12 -32 5 -4 1 -8 -10 -8 -12 0 -27 6 -34 13 -11
10 -12 0 -7 -53 4 -35 8 -66 10 -67 1 -1 19 6 39 16 20 10 37 18 37 17 0 0 -4
-17 -10 -35 -7 -27 -6 -42 6 -65 9 -17 18 -47 20 -67 3 -33 1 -36 -16 -32 -13
3 -20 0 -20 -8 0 -18 37 -81 58 -96 31 -25 34 -12 7 33 -15 25 -25 48 -22 50
3 3 13 -8 23 -25 10 -17 22 -31 26 -31 11 0 29 -75 19 -78 -5 -2 -7 -12 -4
-22 7 -28 -4 -25 -44 11 -19 16 -37 28 -40 26 -2 -3 2 -21 10 -40 11 -26 25
-38 51 -47 39 -13 48 -39 16 -47 -28 -7 -10 -36 41 -69 46 -29 81 -79 77 -112
-2 -15 6 -30 22 -42 20 -16 22 -20 8 -20 -10 0 -18 -4 -18 -10 0 -10 13 -14
37 -11 7 1 15 -18 19 -45 6 -41 9 -45 19 -31 16 22 20 22 40 -9 16 -25 16 -26
-2 -20 -11 3 -28 0 -38 -8 -19 -14 -19 -15 -2 -34 10 -11 41 -26 69 -32 35 -9
46 -15 37 -21 -10 -6 -11 -11 -3 -16 54 -39 90 -75 140 -138 39 -50 66 -75 79
-75 12 0 30 -7 41 -16 18 -14 18 -15 -4 -4 -40 20 -35 4 8 -24 22 -15 45 -24
50 -21 5 3 16 -5 24 -18 9 -12 31 -29 51 -36 19 -7 35 -17 35 -22 0 -5 -23 2
-51 17 -41 21 -53 23 -60 12 -6 -8 -3 -17 7 -25 14 -10 93 -33 164 -47 31 -6
99 -56 100 -72 0 -7 8 -15 18 -19 16 -6 16 -7 -2 -21 -18 -13 -17 -14 17 -14
21 0 37 5 37 12 0 7 7 5 18 -4 9 -9 45 -19 80 -23 35 -4 61 -9 58 -12 -2 -3
23 -19 57 -37 47 -25 68 -31 85 -24 32 11 75 10 67 -2 -4 -6 14 -10 47 -10 29
0 70 -3 91 -6 32 -6 36 -4 31 10 -9 22 5 20 33 -6 20 -19 26 -20 49 -9 19 8
29 9 34 2 10 -17 144 -19 187 -4 46 15 63 16 63 3 0 -5 -6 -10 -14 -10 -8 0
-18 -5 -21 -10 -8 -12 43 -3 61 11 17 13 127 41 157 40 19 -1 36 8 57 30 17
19 34 29 43 26 9 -3 18 0 20 7 3 8 30 28 60 45 30 17 58 39 61 48 4 9 9 13 13
9 3 -3 -1 -14 -11 -25 -16 -17 -16 -19 0 -25 11 -4 27 5 49 29 19 21 38 33 46
30 19 -7 59 24 42 31 -22 9 -14 24 12 24 13 0 28 6 32 14 4 8 34 35 65 60 38
31 55 52 51 61 -3 10 -1 13 9 10 9 -4 25 14 48 55 18 33 40 60 47 60 7 0 22
15 33 33 11 17 20 26 20 18 0 -29 41 30 47 67 6 38 29 92 39 92 4 0 3 -11 0
-25 -5 -19 -3 -23 9 -19 14 6 19 22 17 54 -2 24 21 94 35 108 9 9 13 10 13 2
0 -6 5 -8 10 -5 6 4 7 23 4 44 -4 24 -2 41 5 45 6 4 11 23 11 42 0 21 -4 33
-10 29 -13 -8 -13 -4 4 37 8 19 13 43 10 54 -3 11 6 33 21 53 27 37 33 81 12
81 -9 0 -12 11 -9 35 2 19 8 33 12 30 4 -3 8 1 7 8 -1 49 4 87 13 82 6 -3 10
4 10 17 0 19 2 20 11 8 8 -11 9 -3 4 30 -3 25 -11 50 -17 55 -8 7 -9 5 -5 -7
4 -10 2 -18 -3 -18 -6 0 -10 -12 -10 -27 0 -36 -6 -26 -13 22 -5 29 -4 36 4
25 7 -10 7 -3 2 25 -8 38 -8 112 -1 210 2 32 -2 49 -14 61 -16 17 -17 16 -11
-19 3 -24 2 -37 -5 -37 -6 0 -9 7 -6 15 4 8 -6 44 -20 80 -27 67 -33 100 -17
91 15 -10 20 22 5 34 -8 7 -14 19 -14 27 0 8 -16 29 -35 48 -27 25 -35 40 -33
62 1 17 -7 42 -18 59 -12 16 -33 55 -47 87 -14 31 -30 57 -36 57 -5 0 -43 46
-85 103 -89 120 -113 148 -150 172 -26 17 -62 66 -37 51 19 -12 12 10 -12 36
-12 13 -28 23 -35 20 -7 -2 -12 2 -12 10 0 16 -101 118 -117 118 -6 0 -14 7
-17 16 -3 8 -11 12 -17 8 -6 -3 -32 14 -57 39 -61 58 -202 157 -225 157 -10 0
-15 5 -12 10 3 6 -4 10 -18 10 -13 0 -45 16 -70 35 -25 19 -52 35 -59 35 -8 0
-18 13 -24 28 -9 24 -23 32 -100 55 -162 50 -269 68 -434 72 -85 2 -186 0
-225 -6z m-1098 -1011 c-3 -7 -5 -2 -5 12 0 14 2 19 5 13 2 -7 2 -19 0 -25z
m-31 -76 c-13 -12 -17 8 -10 40 l9 33 3 -33 c2 -19 1 -36 -2 -40z m191 -1099
c-9 -9 -30 12 -33 33 -2 14 1 13 19 -4 11 -12 18 -25 14 -29z m203 -363 l20
-20 -30 0 c-32 0 -33 1 -24 24 8 20 10 20 34 -4z m1494 -697 c5 -3 1 -10 -7
-15 -11 -6 -26 -2 -49 13 l-33 21 40 -7 c22 -4 44 -9 49 -12z"/>
<path d="M2902 5619 c-16 -25 -33 -69 -27 -69 7 0 47 81 43 86 -2 1 -9 -6 -16
-17z"/>
<path d="M2380 3563 c0 -10 5 -25 10 -33 8 -12 10 -9 10 12 0 15 -4 30 -10 33
-5 3 -10 -2 -10 -12z"/>
<path d="M3706 3447 c3 -10 9 -15 12 -12 3 3 0 11 -7 18 -10 9 -11 8 -5 -6z"/>
<path d="M4541 3077 c6 -13 20 -29 31 -36 16 -10 15 -6 -7 23 -32 42 -39 45
-24 13z"/>
<path d="M5335 2700 c3 -5 11 -10 16 -10 6 0 7 5 4 10 -3 6 -11 10 -16 10 -6
0 -7 -4 -4 -10z"/>
</g>
</svg>
