<?xml version="1.0" encoding="UTF-8" standalone="no"?>
<!-- Created with Inkscape (http://www.inkscape.org/) -->

<svg
   version="1.1"
   id="svg336"
   width="500"
   height="500"
   viewBox="0 0 500 500"
   sodipodi:docname="favicon-dark-final.svg"
   inkscape:version="1.2.2 (732a01da63, 2022-12-09)"
   xmlns:inkscape="http://www.inkscape.org/namespaces/inkscape"
   xmlns:sodipodi="http://sodipodi.sourceforge.net/DTD/sodipodi-0.dtd"
   xmlns="http://www.w3.org/2000/svg"
   xmlns:svg="http://www.w3.org/2000/svg">
  <defs
     id="defs340" />
  <sodipodi:namedview
     id="namedview338"
     pagecolor="#ffffff"
     bordercolor="#000000"
     borderopacity="0.25"
     inkscape:showpageshadow="2"
     inkscape:pageopacity="0.0"
     inkscape:pagecheckerboard="0"
     inkscape:deskcolor="#d1d1d1"
     showgrid="false"
     inkscape:zoom="0.95092593"
     inkscape:cx="292.34664"
     inkscape:cy="537.89679"
     inkscape:window-width="3840"
     inkscape:window-height="2054"
     inkscape:window-x="-11"
     inkscape:window-y="-11"
     inkscape:window-maximized="1"
     inkscape:current-layer="g342" />
  <g
     inkscape:groupmode="layer"
     inkscape:label="Image"
     id="g342">
    <path
       style="display:inline;fill:#ffffff;stroke-width:0.48414"
       d="m 512.34793,248.81709 c 0,-143.9227 0.0553,-202.800174 0.12283,-130.83882 0.0675,71.96135 0.0675,189.7163 0,261.67765 -0.0675,71.96136 -0.12283,13.08388 -0.12283,-130.83883 z M 220.60039,475.97822 c -0.67001,-0.46845 -1.14556,-0.49338 -1.88309,-0.0986 -0.99254,0.5312 -1.93499,0.29983 -1.93499,-0.47508 0,-0.2294 0.65359,-0.56064 1.45242,-0.7361 2.30773,-0.50683 1.69983,-1.0575 -1.57346,-1.4252 -1.66422,-0.18693 -4.38751,-0.62421 -6.05174,-0.97168 -2.79606,-0.58382 -3.02587,-0.56769 -3.02587,0.21206 0,0.46415 0.45153,1.41795 1.00341,2.11952 0.55188,0.70162 0.90054,1.27565 0.77479,1.27565 -0.12574,0 -2.15679,-0.74077 -4.51343,-1.64612 -2.35664,-0.90538 -5.91878,-1.8924 -7.91585,-2.19339 -1.99708,-0.30099 -3.86326,-0.85414 -4.14705,-1.22927 -0.2838,-0.37512 -1.5633,-0.94575 -2.84333,-1.26806 l -2.32734,-0.58604 1.39091,-0.57015 c 1.32144,-0.54168 1.34256,-0.59599 0.42263,-1.08758 -2.63537,-1.4083 -14.66134,-4.31159 -13.72932,-3.31452 0.1709,0.18282 2.78526,1.19016 5.80967,2.23851 5.25833,1.8227 6.06435,2.69614 1.0976,1.18942 -1.30714,-0.39653 -2.82127,-0.72333 -3.36474,-0.72621 -1.20924,-0.006 -9.07043,-4.44702 -9.03277,-5.10239 0.0149,-0.25876 -0.31801,-0.85172 -0.73971,-1.31771 -0.42171,-0.46598 -0.67851,-0.8435 -0.57068,-0.83894 0.10785,0.004 1.83005,0.43655 3.82712,0.95998 5.19245,1.36092 5.51821,1.19243 1.76762,-0.91434 -2.37171,-1.33224 -4.13565,-1.94826 -6.19509,-2.16352 -1.58359,-0.16552 -3.27931,-0.51504 -3.76827,-0.77672 -1.18469,-0.63403 -1.63279,-1.92235 -0.95336,-2.74101 0.44437,-0.53544 -0.0902,-0.95393 -2.77545,-2.17256 -1.82922,-0.83016 -4.73425,-2.16725 -6.45563,-2.97131 -3.71106,-1.73349 -8.73165,-6.27097 -8.73165,-7.89143 0,-0.77429 -0.69869,-1.53453 -2.43323,-2.64758 -2.16595,-1.38989 -2.34286,-1.62748 -1.61055,-2.16295 0.75144,-0.54947 0.71093,-0.67475 -0.46788,-1.44714 -0.7098,-0.46508 -1.58898,-0.73109 -1.95372,-0.59111 -0.44742,0.17168 -1.39001,-1.11045 -2.89726,-3.94093 -1.90876,-3.58448 -2.23859,-3.98391 -2.26508,-2.74299 l -0.031,1.45243 -1.45265,-1.6945 c -0.79895,-0.93196 -1.90141,-2.45701 -2.44988,-3.38897 l -0.99723,-1.6945 1.16938,1.08932 c 1.313,1.22311 1.87551,1.33745 2.67019,0.54277 0.72553,-0.72552 -1.27562,-3.77699 -3.67394,-5.60226 -3.60959,-2.74712 -5.45632,-4.64835 -4.86817,-5.01184 0.39955,-0.24694 0.1106,-0.92911 -0.95545,-2.25567 -1.78828,-2.22527 -7.34577,-13.06366 -8.13963,-15.87416 -2.27955,-8.0703 -3.15385,-10.53982 -4.4614,-12.6016 -0.82115,-1.29483 -1.47336,-2.80178 -1.44934,-3.34877 0.0295,-0.67142 0.18926,-0.49108 0.4918,0.5551 0.24648,0.85229 0.63926,1.66773 0.87283,1.81208 0.70021,0.43276 -2.40078,-9.12624 -3.15146,-9.71458 -0.41375,-0.32428 -0.71763,-1.49501 -0.754,-2.90485 -0.0335,-1.29889 -0.57432,-4.2029 -1.20184,-6.45335 -0.62751,-2.25045 -0.965,-4.26764 -0.74998,-4.48266 0.21502,-0.21502 1.0197,2.19387 1.78818,5.35308 1.17648,4.83643 1.52904,5.70957 2.23132,5.52591 0.99539,-0.2603 0.88352,-0.71842 -3.22265,-13.19776 l -2.62845,-7.98831 -0.12765,-7.14146 c -0.12882,-7.20609 0.20424,-8.55047 1.49915,-6.05135 0.47567,0.918 0.52103,0.70864 0.28848,-1.33139 -0.37488,-3.28863 -0.68046,-4.18746 -1.29453,-3.80794 -0.35571,0.21984 -0.39978,-0.12195 -0.13953,-1.08229 0.20919,-0.77197 0.33604,-4.74741 0.2819,-8.83432 -0.0683,-5.14933 0.0596,-7.33302 0.41646,-7.11249 0.3347,0.20686 0.51491,-0.44551 0.51491,-1.86397 0,-1.20022 0.53349,-3.8819 1.18553,-5.95929 1.23874,-3.94657 1.67337,-7.88228 1.06756,-9.66705 -0.20355,-0.59964 -0.14021,-1.18188 0.14792,-1.35995 0.27709,-0.17126 0.50382,-1.06106 0.50382,-1.97731 0,-0.91625 0.21785,-1.66591 0.48413,-1.66591 0.26628,0 0.48756,-0.49019 0.49173,-1.08932 0.0142,-2.04157 1.84593,-9.80316 3.09947,-13.13349 1.43991,-3.82549 1.5405,-4.534 0.524,-3.69038 -1.25397,1.0407 -0.79142,-0.26995 0.78808,-2.23308 1.85631,-2.30717 2.84297,-4.53742 2.84297,-6.42628 0,-1.82145 0.43603,-2.95686 1.14111,-2.9714 0.30435,-0.006 1.04987,-1.04112 1.6567,-2.29967 2.01885,-4.18702 4.20956,-8.10851 5.31153,-9.50793 0.59912,-0.76084 1.0827,-1.6263 1.07459,-1.92324 -0.008,-0.29694 -0.23249,-0.16631 -0.49865,0.29029 -0.26615,0.4566 -1.6863,2.03256 -3.15589,3.50216 -1.4696,1.46959 -2.51336,2.40319 -2.31948,2.07466 1.65307,-2.80104 4.70466,-7.13215 5.56098,-7.89268 l 1.0528,-0.93501 -0.60289,1.14774 c -0.33159,0.63125 -0.40556,1.02578 -0.16435,0.87671 0.24118,-0.14906 1.28814,-1.92258 2.32655,-3.94115 1.03842,-2.01856 2.41468,-4.01518 3.05836,-4.43694 0.64368,-0.42176 1.02172,-0.52637 0.84009,-0.23247 -0.18165,0.29389 -0.12913,0.53436 0.11668,0.53436 0.24581,0 0.8418,-1.03485 1.32442,-2.29967 1.16268,-3.04708 5.96021,-9.26373 10.43114,-13.51667 1.48754,-1.41503 3.31591,-3.71839 4.06302,-5.11861 1.58998,-2.97988 3.06077,-4.72446 3.98303,-4.72446 0.36135,0 0.79618,-0.38127 0.96628,-0.84725 0.7454,-2.042 8.99536,-10.07592 9.82215,-9.56494 0.2323,0.14357 0.58001,0.006 0.77269,-0.30581 0.21502,-0.34791 0.14077,-0.43732 -0.19226,-0.2315 -0.29843,0.18444 0.0334,-0.54443 0.73741,-1.61969 0.70398,-1.07526 1.61081,-1.95501 2.01516,-1.95501 0.49022,0 0.20871,0.54318 -0.84483,1.63017 -1.18489,1.22249 -1.40771,1.69629 -0.89098,1.89457 0.41629,0.15975 2.22236,-1.14648 4.5625,-3.2998 2.22317,-2.04568 4.26402,-3.53611 4.79016,-3.49825 0.50419,0.0362 2.11013,-0.79191 3.56875,-1.84039 2.34459,-1.68533 2.52119,-1.92503 1.52321,-2.06763 -1.06894,-0.15273 -1.08121,-0.19441 -0.23135,-0.78539 0.49362,-0.34324 1.65784,-0.78965 2.58714,-0.992 0.92931,-0.20235 2.34542,-0.86022 3.14691,-1.46191 1.93997,-1.45636 8.46201,-4.67686 12.25353,-6.05065 1.67752,-0.60781 3.31149,-1.46656 3.63105,-1.90832 0.69776,-0.96458 2.12079,-1.9107 1.59553,-1.06081 -0.19,0.30742 -0.24022,0.55895 -0.11161,0.55895 0.12862,0 3.13708,-1.23319 6.6855,-2.7404 5.02645,-2.13503 7.25378,-2.81838 10.08271,-3.0934 1.99708,-0.19415 4.58436,-0.70388 5.74952,-1.13272 2.64092,-0.97202 2.90789,-0.9752 1.72615,-0.0205 -0.89189,0.72051 -0.86578,0.74161 0.51264,0.41416 0.79883,-0.18977 2.32387,-0.40078 3.38898,-0.46891 1.0651,-0.0682 3.24374,-0.58063 4.84139,-1.1389 3.59341,-1.25562 8.47246,-1.88156 8.47246,-1.08694 0,0.3075 -0.80621,0.57533 -1.81553,0.60315 l -1.81552,0.05 1.82149,0.48361 c 2.93371,0.7789 3.11423,0.52333 2.95592,-4.18475 -0.0869,-2.5858 0.0369,-4.06946 0.32483,-3.8915 0.2598,0.16056 0.4804,-0.42007 0.4994,-1.31441 0.0283,-1.33489 0.10347,-1.44056 0.45011,-0.63376 0.33502,0.77962 0.42271,0.61899 0.45011,-0.82446 0.0188,-0.98601 -0.21879,-2.34762 -0.52779,-3.02579 -0.42437,-0.93141 -0.42644,-2.0325 -0.008,-4.50108 0.30435,-1.79741 0.62877,-4.51134 0.72095,-6.03094 0.14224,-2.3449 0.0726,-2.6379 -0.46028,-1.93656 -0.81306,1.07007 -0.80554,0.77035 0.0893,-3.56221 0.41142,-1.99184 0.59562,-3.86816 0.40933,-4.16958 -0.2177,-0.35225 -0.12053,-0.4132 0.27199,-0.1706 0.4604,0.28453 0.53533,0.0341 0.30441,-1.01718 -0.16846,-0.76703 0.005,-2.42826 0.385,-3.69162 l 0.69129,-2.297 H 240.014 c -3.93893,0 -6.7566,0.19521 -6.85162,0.47469 -0.18343,0.53956 -4.57775,1.46187 -6.96507,1.46187 -0.87343,0 -1.66068,0.19443 -1.74945,0.43207 -0.0887,0.23764 -4.74612,0.69344 -10.34971,1.01288 -10.47154,0.59694 -10.65736,0.58539 -19.91206,-1.23746 -1.36399,-0.26866 -4.03146,-2.51661 -4.03146,-3.39744 0,-0.37575 -0.21786,-0.68317 -0.48414,-0.68317 -0.26628,0 -0.48414,0.41671 -0.48414,0.92604 0,1.31542 -5.21714,6.44698 -7.85061,7.72181 -2.74759,1.33009 -8.1372,2.28432 -8.60717,1.52392 -0.44943,-0.72722 -4.59819,-0.28921 -7.22827,0.76314 -1.7674,0.70717 -1.97733,0.91575 -1.20887,1.20095 0.83735,0.31076 0.79737,0.39748 -0.40122,0.87055 -0.73216,0.28898 -2.75232,0.78726 -4.48924,1.1073 -1.73691,0.32004 -2.91697,0.73086 -2.62234,0.91296 0.35437,0.21901 0.27615,0.43065 -0.23113,0.62531 -0.42174,0.16183 -0.7668,0.0791 -0.7668,-0.18393 0,-0.53388 -1.99325,-0.17412 -3.87312,0.69907 -0.66996,0.31119 -1.85882,0.41975 -2.66278,0.24313 -1.32029,-0.29005 -1.34231,-0.32443 -0.24206,-0.37786 0.66569,-0.0324 2.51753,-0.69499 4.11518,-1.47259 2.32862,-1.13333 2.66475,-1.42895 1.6945,-1.49023 -1.19432,-0.0754 -1.19112,-0.0852 0.24206,-0.74148 1.78987,-0.81957 3.8213,-0.92409 3.35693,-0.17273 -0.72301,1.16985 5.87624,-1.79043 7.62658,-3.4211 0.90266,-0.84097 0.86702,-0.85534 -1.1529,-0.46485 -1.1464,0.22161 -2.30223,0.41576 -2.5685,0.43144 -0.26628,0.0157 -0.15735,0.23968 0.24206,0.49781 0.41665,0.26926 0.48512,0.47247 0.16064,0.47672 -0.31107,0.004 -0.96465,0.1369 -1.45242,0.29516 -0.75665,0.2455 -0.78023,0.20325 -0.16063,-0.28774 0.61959,-0.49099 0.59601,-0.53324 -0.16064,-0.28774 -0.48775,0.15825 -1.14135,0.29108 -1.45241,0.29514 -0.37028,0.005 -0.34263,0.14876 0.0801,0.41672 0.44025,0.27908 0.2092,0.41152 -0.72621,0.41632 -1.60846,0.008 -5.4774,1.042 -6.30246,1.68398 -0.31532,0.24535 -1.84036,0.5301 -3.38897,0.63277 -2.61502,0.17338 -6.0134,1.0895 -6.74113,1.81724 -0.17188,0.17186 -0.92765,-0.005 -1.67949,-0.39441 -0.75186,-0.3888 -1.75908,-0.69777 -2.23829,-0.68661 -0.57066,0.0133 -0.30064,0.32427 0.78257,0.90125 l 1.65385,0.88097 -2.23319,0.33488 c -2.42016,0.36292 -3.9352,-0.19806 -6.15799,-2.28015 -1.30262,-1.22016 -2.82618,-3.55398 -1.97784,-3.02967 0.32334,0.19985 0.39786,0.0143 0.20066,-0.49954 -0.21902,-0.57075 -0.10778,-0.74756 0.36865,-0.58596 0.37528,0.12731 0.68232,0.82705 0.68232,1.55497 0,1.41193 0.77562,2.17768 3.78276,3.73463 l 1.8462,0.95587 -0.56088,-1.04802 c -0.30849,-0.57642 -0.46235,-1.56347 -0.34192,-2.19345 0.16252,-0.85019 -0.044,-1.22864 -0.80117,-1.46824 -1.39363,-0.44099 -5.41488,-4.73305 -6.95226,-7.42047 -0.69313,-1.21161 -1.32906,-2.29237 -1.41317,-2.40169 -0.0841,-0.10931 -0.59001,0.19678 -1.1242,0.68021 -0.8503,0.76952 -0.96597,1.45742 -0.92883,5.5243 0.0403,4.40397 0.72351,10.92187 0.86118,8.21462 0.0356,-0.69965 0.37375,-1.52861 0.75151,-1.84212 0.59247,-0.49171 0.59226,-0.25572 -0.001,1.7175 -0.7386,2.45417 -1.15638,3.18484 -1.19076,2.08259 -0.0118,-0.37722 -0.4467,0.11943 -0.96652,1.10368 -1.38101,2.61489 -3.36557,3.89135 -10.33377,6.64667 -3.43101,1.35667 -9.82224,4.31632 -14.20271,6.577 -8.611592,4.44427 -10.283738,4.85361 -13.531521,3.31244 -0.924771,-0.43884 -2.358707,-1.6407 -3.186531,-2.67081 -1.079327,-1.34308 -1.615251,-1.69947 -1.894367,-1.25972 -0.288935,0.4552 -0.391146,0.41147 -0.396651,-0.1697 -0.0096,-1.01887 -3.616535,-3.4032 -4.585638,-3.0313 -0.97014,0.37227 -0.941178,0.54555 0.475667,2.84593 0.724158,1.17574 1.193734,1.60371 1.19524,1.08932 0.0015,-0.46598 0.213506,-0.84724 0.471426,-0.84724 0.257917,0 0.340041,-0.38127 0.182497,-0.84725 -0.227284,-0.67226 -0.138648,-0.64726 0.429162,0.12103 0.39358,0.53256 1.195496,2.4233 1.782026,4.20167 1.171967,3.55337 0.97639,5.43352 -0.879101,8.45122 -0.555013,0.90266 -0.756076,1.69477 -0.496161,1.95468 0.94842,0.94842 -2.664111,4.12855 -8.740121,7.69397 -3.688217,2.16425 -8.655807,5.67919 -12.294496,8.69925 -3.358286,2.7872 -6.297969,5.06764 -6.532782,5.06764 -0.234818,0 -2.08811,-0.75702 -4.118433,-1.68226 -2.815521,-1.28308 -3.691485,-1.51284 -3.691485,-0.96828 0,0.39269 0.265357,0.65952 0.589678,0.59295 0.810939,-0.16645 1.217258,2.78856 0.748921,5.44657 -0.211129,1.19825 -0.979949,3.08744 -1.708477,4.1982 -1.92055,2.92817 -8.861966,10.57745 -9.541292,10.51428 -0.318192,-0.0296 -0.578533,0.20517 -0.578533,0.5217 0,1.74838 -7.621801,10.17859 -9.209974,10.18684 -0.388532,0.002 -0.918858,0.38328 -1.178508,0.84724 -0.328653,0.58727 -0.302441,0.84358 0.08626,0.84358 0.307089,0 -0.07363,0.71977 -0.84603,1.5995 -0.772412,0.87972 -1.9303,2.45924 -2.573087,3.51002 -2.876272,4.70189 -16.6790438,20.9731 -17.280854,20.37128 -0.1063657,-0.10636 0.2655119,-1.99074 0.8263979,-4.1875 0.5608808,-2.19675 0.9055932,-4.29169 0.7660263,-4.6554 -0.139568,-0.3637 -0.097206,-0.66171 0.09415,-0.66225 0.1913517,-4.7e-4 0.3952328,-0.67487 0.4530726,-1.49852 0.09317,-1.32678 0.016173,-1.42373 -0.6750073,-0.85008 -0.6796358,0.56404 -0.7454251,0.5232 -0.5105447,-0.317 0.1482971,-0.53046 0.4033466,-1.75953 0.5667725,-2.73127 0.1634269,-0.97173 0.638542,-2.45115 1.0558132,-3.28759 0.5487969,-1.10009 0.6890129,-2.3524 0.5068697,-4.52703 -0.138488,-1.65342 -0.1432809,-2.51281 -0.010652,-1.90973 0.4492723,2.04277 1.092801,0.58673 0.8650367,-1.95724 -0.1513463,-1.69043 -0.085742,-2.20737 0.1979557,-1.55996 0.3752618,0.85636 0.4661974,0.7794 0.7866548,-0.66565 0.2384974,-1.07547 0.1707221,-1.75236 -0.1982897,-1.98042 -0.4087158,-0.2526 -0.1559895,-2.04004 0.9326762,-6.59645 1.9788071,-8.28192 6.6586681,-24.23691 7.4926911,-25.54475 0.364451,-0.57149 0.934584,-1.96759 1.266956,-3.10244 0.332377,-1.13483 0.936646,-2.33308 1.342819,-2.66276 0.627824,-0.50959 0.684716,-0.45432 0.37962,0.36885 -0.317935,0.85782 -0.277383,0.88543 0.355421,0.24207 0.748873,-0.76137 0.953528,-1.53506 0.832411,-3.14691 -0.06884,-0.91614 -0.107909,-0.92195 -0.725594,-0.10778 -0.682134,0.8991 -0.686705,0.54291 -0.07183,-5.59656 0.100862,-1.00718 1.21158,-3.8394 2.468253,-6.29382 1.256667,-2.45443 3.131484,-6.38593 4.166261,-8.7367 1.768384,-4.01732 6.245895,-11.59983 7.48218,-12.67079 0.30738,-0.26628 0.916253,-1.57345 1.353054,-2.90484 0.800042,-2.43858 3.953676,-7.50417 4.671801,-7.50417 0.212693,0 0.528807,-0.64693 0.70247,-1.43762 0.359949,-1.63883 6.301266,-9.86099 7.292291,-10.09176 0.359221,-0.0837 2.072263,-2.09289 3.806758,-4.46497 1.950963,-2.66813 3.58858,-4.42204 4.294171,-4.59914 0.627301,-0.15744 1.512115,-0.91527 1.966253,-1.68406 1.642391,-2.78035 7.317644,-8.0366 10.481819,-9.70796 1.730799,-0.91422 3.146909,-1.91877 3.146909,-2.232338 0,-0.313563 0.980383,-1.272566 2.17863,-2.131107 1.198246,-0.858541 2.97153,-2.268098 3.940638,-3.132349 2.082242,-1.85697 3.608977,-2.436485 4.490809,-1.704629 0.473561,0.393026 0.795883,0.340767 1.246399,-0.202071 0.334207,-0.402699 0.44537,-0.732172 0.247023,-0.732172 -0.198347,0 -0.119171,-0.290953 0.17595,-0.646545 0.396715,-0.478011 1.547955,-0.587997 4.416544,-0.421938 2.597223,0.15035 3.879957,0.05152 3.879957,-0.298982 0,-0.629835 3.032604,-1.530926 5.164913,-1.534679 1.96979,-0.0034 3.065466,-0.431668 3.065466,-1.198014 0,-0.745086 4.1461,-1.680439 9.60789,-2.167523 2.22216,-0.198178 4.18544,-0.595187 4.36285,-0.882253 0.68218,-1.103786 17.47983,-2.349942 17.82163,-1.322124 0.26663,0.801746 5.44294,0.431094 6.42788,-0.460276 1.31648,-1.191391 4.05225,-1.497271 4.99145,-0.558073 0.42674,0.426735 1.29977,0.775882 1.94007,0.775882 1.58251,0 6.83518,1.057159 7.13535,1.436071 0.30373,0.383376 4.46474,1.678135 4.98214,1.550255 1.05724,-0.261314 20.45802,6.199698 22.8785,7.61919 1.39196,0.816312 8.01335,3.013934 11.04872,3.667043 0.76369,0.164321 1.25577,0.431515 1.09352,0.59376 -0.64279,0.642794 0.88107,1.594443 2.55313,1.594443 1.11624,0 2.05,0.327379 2.52883,0.886619 0.41754,0.48765 3.02584,1.6074 5.79624,2.48834 2.7704,0.88095 5.55667,2.00701 6.1917,2.50236 0.63503,0.49535 1.3804,0.90063 1.65636,0.90063 0.27597,0 0.89025,0.35158 1.36505,0.78127 0.69285,0.62702 1.15108,0.68095 2.3209,0.27315 1.301,-0.45354 1.57647,-0.36842 2.56381,0.79219 1.00276,1.1787 2.17102,2.07713 4.97933,3.82923 0.53256,0.33225 3.19547,1.69864 5.9176,3.03641 2.72212,1.33776 6.099,3.36616 7.50416,4.50755 1.40517,1.14139 4.50406,3.54308 6.88641,5.33709 4.30756,3.24378 4.33488,3.25572 4.93377,2.15632 0.33122,-0.60805 1.30661,-3.958 2.16752,-7.44435 1.45404,-5.88829 1.51989,-6.50094 0.92661,-8.61997 -0.35129,-1.25464 -0.7957,-2.10584 -0.98758,-1.89157 -0.19189,0.21428 -0.71201,2.89502 -1.15579,5.9572 -0.90187,6.22286 -1.29189,8.37407 -1.47653,8.14398 -0.0687,-0.0857 0.12551,-4.51292 0.43156,-9.83846 0.53718,-9.34737 0.58223,-9.6241 1.30051,-7.98831 l 0.74405,1.69449 0.3903,-1.93656 c 0.36539,-1.81305 0.53952,-1.3499 2.73013,7.2621 2.51013,9.86814 2.715,10.97261 1.61648,8.71452 -0.68969,-1.41769 -0.70007,-1.38874 -0.43409,1.21035 0.42708,4.17337 1.18911,6.74573 1.91573,6.46691 0.69445,-0.26649 0.96509,0.4156 1.4681,3.70003 0.1835,1.19824 0.54796,2.58618 0.80987,3.08429 0.33333,0.63393 0.31865,0.80829 -0.0489,0.58112 -0.60208,-0.3721 -0.40076,0.95366 0.98063,6.45793 1.06984,4.26292 1.11137,5.16425 0.147,3.19051 -0.61753,-1.26388 -0.67603,-1.29531 -0.45065,-0.24208 0.14246,0.6657 0.36851,1.86395 0.50235,2.66278 0.21569,1.28746 0.18865,1.3287 -0.23813,0.3631 -0.26481,-0.59912 -0.57673,-1.08931 -0.69316,-1.08931 -0.37168,0 1.12845,5.19072 2.12534,7.35405 0.82142,1.78257 0.8793,1.08959 0.085,-1.01862 -0.17395,-0.46176 -0.0567,-0.56021 0.36037,-0.30248 0.4431,0.27385 0.54317,0.12488 0.35316,-0.52575 -0.82294,-2.81805 -1.33029,-5.14518 -1.15907,-5.31641 0.10758,-0.10757 0.47543,0.7314 0.81744,1.8644 0.342,1.13299 0.9281,3.06084 1.30243,4.28408 0.37434,1.22325 0.55062,2.56286 0.39173,2.97691 -0.15888,0.41405 -0.0562,0.89663 0.22827,1.07243 0.28443,0.17578 0.51732,0.79695 0.51753,1.38036 2.1e-4,0.5834 0.64652,2.42657 1.43626,4.09592 0.78975,1.66937 1.6743,3.92058 1.96569,5.00271 0.4456,1.65484 0.86026,2.11371 2.60921,2.88735 1.9381,0.85731 10.44922,1.91083 10.44922,1.29342 0,-0.14836 -1.52427,-0.52685 -3.38727,-0.84109 -1.86299,-0.31423 -3.50982,-0.76964 -3.65962,-1.01202 -0.35013,-0.56652 0.55988,-0.55548 2.68963,0.0327 0.93197,0.25737 4.09098,0.8023 7.02003,1.21096 5.70365,0.79578 10.09196,2.01093 9.67845,2.68 -0.49637,0.80314 1.93674,1.92953 4.16797,1.92953 1.41267,0 2.47862,0.27101 2.8564,0.72621 0.37456,0.45132 1.43873,0.72621 2.81135,0.72621 3.24117,0 7.73806,1.41412 9.43996,2.96856 0.81664,0.7459 3.10053,1.94548 5.07533,2.66572 1.97481,0.72025 6.26778,2.90619 9.53993,4.85766 3.27221,1.95147 6.19336,3.54812 6.4915,3.54812 1.9216,0 14.321,9.02719 23.82898,17.34828 9.08009,7.94663 10.61244,9.389 10.54665,9.92715 -0.0377,0.30944 -0.0431,0.83469 -0.0116,1.16724 0.0734,0.77447 3.88754,4.72092 4.56259,4.72092 0.28074,0 1.15026,1.089 1.93229,2.42001 1.75777,2.99176 8.58521,12.4646 9.3181,12.92857 0.29561,0.18713 0.93075,1.21239 1.41141,2.27836 0.48071,1.06596 1.09072,1.89323 1.35559,1.83838 1.07537,-0.22269 11.40184,21.60964 13.4634,28.46454 0.32031,1.0651 1.02086,2.808 1.55675,3.87311 0.5359,1.06512 0.90622,1.93656 0.823,1.93656 -0.0832,0 0.3189,1.41611 0.89362,3.14691 1.15308,3.47252 2.72954,12.96991 2.53143,15.25041 -0.30589,3.52041 -0.17517,5.73844 0.71343,12.1035 1.30393,9.34066 1.3383,31.56542 0.062,40.18362 -3.55693,24.02073 -12.17263,44.07428 -26.93638,62.69612 -5.42092,6.83753 -16.75903,18.04531 -24.45967,24.17853 -8.15234,6.49294 -18.42588,13.25341 -27.29829,17.96359 -3.89161,2.06596 -7.81431,4.22365 -8.71713,4.79488 -5.25253,3.32339 -30.61043,11.38816 -40.53502,12.89168 -1.30041,0.19699 -2.09206,0.45073 -1.75922,0.56388 1.25845,0.42763 0.51262,0.95956 -2.17863,1.55375 -1.53109,0.33807 -3.4871,0.90427 -4.34669,1.25828 -0.91384,0.37637 -1.67776,0.45775 -1.83952,0.19607 -0.15215,-0.24618 -0.75602,-0.438 -1.34195,-0.42623 -0.58593,0.0116 -7.68312,0.0155 -15.77153,0.008 -10.69297,-0.009 -14.98683,0.1477 -15.73455,0.57636 -1.45279,0.83292 -12.71167,0.80285 -13.91309,-0.0373 z m 48.04507,-1.02032 c -0.44771,-0.28361 0.4657,-0.62415 2.78648,-1.03892 1.89888,-0.33933 3.35929,-0.71018 3.24534,-0.82415 -0.24694,-0.24695 -7.01802,0.76408 -7.62353,1.13832 -0.69624,0.4303 0.0627,1.16198 1.19701,1.15404 0.7908,-0.005 0.89124,-0.11479 0.3947,-0.42929 z m -97.13023,-13.11922 c -0.16457,-0.26628 -0.5587,-0.48081 -0.87582,-0.47673 -0.34646,0.004 -0.28675,0.19474 0.1496,0.47673 0.93009,0.60107 1.0977,0.60107 0.72622,0 z m 127.08673,-30.69645 c 4.14883,-0.14937 6.00546,-0.0801 5.08346,0.18976 -1.08452,0.3174 -0.65533,0.37693 1.69449,0.23503 1.7308,-0.10452 3.77692,-0.19302 4.54694,-0.19668 0.77003,-0.004 1.75041,-0.31044 2.17864,-0.68175 0.42822,-0.37131 2.35156,-0.79962 4.27404,-0.95181 5.21263,-0.41263 16.73927,-3.96497 19.01705,-5.86078 0.39943,-0.33243 1.77433,-0.99122 3.05531,-1.46396 1.28099,-0.47274 2.21277,-0.97584 2.07062,-1.11801 -0.14219,-0.14217 2.17471,-1.61237 5.14869,-3.26712 6.22526,-3.46385 13.26311,-8.575 17.82559,-12.94568 5.10778,-4.89297 9.78844,-10.32739 11.47247,-13.31987 0.86226,-1.53217 1.57666,-2.56788 1.5876,-2.3016 0.0112,0.26627 0.9432,-1.25877 2.07168,-3.38899 1.12849,-2.13021 3.30169,-5.95392 4.82939,-8.49711 1.52771,-2.54321 3.16299,-5.70222 3.63401,-7.02003 0.47097,-1.31782 1.45198,-3.02871 2.18003,-3.80197 2.26999,-2.41094 4.96515,-13.29584 6.42492,-25.94797 1.18024,-10.22923 0.77753,-25.75944 -0.91637,-35.34222 -4.44746,-25.15982 -15.17978,-47.5702 -33.59743,-70.15545 -5.40818,-6.63199 -17.43611,-18.65271 -23.60787,-23.59378 -10.86831,-8.70111 -24.30436,-16.88964 -32.43738,-19.76879 -1.33138,-0.47132 -3.10722,-1.15721 -3.94628,-1.52419 -0.83907,-0.36698 -1.66801,-0.66724 -1.84208,-0.66724 -0.17407,0 -1.25783,-0.42883 -2.40836,-0.95296 -5.06185,-2.30593 -18.9815,-5.3016 -27.90502,-6.00548 l -3.18023,-0.25085 -0.69047,1.78912 c -0.37976,0.98401 -0.76607,1.95819 -0.85847,2.16483 -0.0924,0.20665 1.31051,-0.18079 3.11757,-0.86097 2.69006,-1.01254 3.35319,-1.11582 3.65872,-0.56988 0.20524,0.36674 3.88641,5.96633 8.18038,12.44353 4.31499,6.50891 7.91574,12.44552 8.04985,13.27187 0.14306,0.88156 -0.18211,2.68483 -0.79234,4.39407 -0.56923,1.5944 -1.07952,3.18668 -1.13398,3.53841 -0.0644,0.41599 1.93144,1.30697 5.71067,2.54935 3.19532,1.05044 9.15444,3.54041 13.24252,5.5333 7.33017,3.57338 8.64485,4.08614 8.06305,3.14482 -0.57781,-0.93493 1.45542,0.1868 2.85019,1.57243 0.7707,0.76561 3.05826,2.61725 5.08347,4.11476 4.63065,3.42399 11.84545,10.38322 18.01722,17.37904 2.62045,2.97035 5.43612,5.69364 6.25702,6.05174 0.96165,0.41949 2.19756,1.77048 3.47448,3.79801 1.09004,1.7308 2.1564,3.26233 2.36977,3.40342 0.9828,0.65 4.79081,7.0837 4.79081,8.0942 0,0.62371 0.54881,1.68285 1.21959,2.35363 0.67082,0.67078 1.08196,1.44233 0.91372,1.71455 -0.17656,0.28573 -0.99913,-0.17695 -1.94581,-1.0945 -0.90195,-0.87421 -1.63993,-1.44202 -1.63993,-1.2618 0,0.18023 0.83249,2.12926 1.84995,4.3312 1.01747,2.20193 2.4039,5.70607 3.08097,7.78696 1.15444,3.54793 1.28186,3.73264 2.047,2.96751 0.44874,-0.44875 0.94063,-1.43971 1.09313,-2.20212 0.47016,-2.35064 0.9802,-1.14022 1.59854,3.79351 0.32601,2.6012 1.24022,7.22781 2.03159,10.28138 0.8531,3.29182 1.33178,6.14958 1.17583,7.02003 -0.14466,0.80745 -0.0765,2.77527 0.15153,4.37293 0.47079,3.29899 0.33639,3.83585 -0.50045,1.99912 -1.19103,-2.61397 -1.51085,-1.30358 -1.19602,4.89988 0.5311,10.46355 0.84817,13.41949 1.34441,12.53278 0.24546,-0.43863 0.38034,-3.84679 0.29978,-7.5737 -0.0806,-3.7269 -0.0112,-6.77582 0.15444,-6.77539 0.16553,4.3e-4 0.51474,2.56067 0.77608,5.68943 0.41472,4.96513 0.35139,6.36461 -0.49799,11.00353 -0.64806,3.53976 -1.08689,4.99505 -1.3138,4.35726 -0.26909,-0.75614 -0.41215,-0.55017 -0.67998,0.97893 -0.18654,1.06511 -0.64488,2.48122 -1.01853,3.14691 -0.61017,1.08706 -0.6855,0.5199 -0.73997,-5.56761 l -0.0606,-6.77797 -0.69625,3.87313 c -0.3829,2.13021 -0.87357,4.5267 -1.09033,5.32554 -0.21675,0.79883 -0.2943,3.32057 -0.17235,5.60388 0.171,3.20134 0.0436,4.49625 -0.55724,5.65795 -0.98295,1.90078 -1.61064,2.28975 -2.50165,1.55028 -0.38775,-0.32182 -0.70893,-0.50396 -0.71382,-0.40479 -0.0136,0.27621 -4.60567,13.5086 -5.35507,15.43072 -0.67523,1.73177 -4.56699,6.92755 -6.98067,9.3197 -0.73884,0.73226 -1.82037,1.33139 -2.40336,1.33139 -0.73551,0 -1.86395,1.02574 -3.68611,3.35063 -2.39794,3.0596 -2.66049,3.25935 -3.02243,2.29966 -0.38678,-1.02565 -0.4305,-1.01288 -1.81552,0.53013 -0.78054,0.8696 -1.41917,1.90131 -1.41917,2.2927 0,0.79715 -4.24314,3.06181 -8.10934,4.32811 -2.63547,0.8632 -3.54487,2.0276 -1.23935,1.58688 l 1.30234,-0.24897 -1.18131,0.90524 c -0.64971,0.49788 -2.56956,1.46569 -4.26628,2.1507 -3.12876,1.26314 -4.42882,1.40505 -2.26554,0.24731 1.3797,-0.73839 1.95501,-1.90802 1.27363,-2.58936 -0.63171,-0.63172 -3.96878,0.6277 -9.237,3.48606 -2.26336,1.22802 -4.95537,2.61469 -5.98228,3.08148 -1.66841,0.75839 -1.83527,0.76575 -1.56797,0.0691 0.22816,-0.59458 0.0968,-0.7 -0.55359,-0.44431 -1.65201,0.64944 -7.67997,1.63553 -11.98796,1.96106 -4.93021,0.37254 -15.15929,-0.48271 -17.50736,-1.46379 -0.84204,-0.35184 -3.23859,-1.01367 -5.32566,-1.47076 -2.08708,-0.45708 -4.01352,-1.00316 -4.281,-1.2135 -0.26748,-0.21033 -2.29178,-0.62962 -4.49845,-0.93175 -3.57897,-0.49004 -8.32908,-1.9967 -8.32908,-2.64188 0,-0.13314 0.99845,0.18591 2.21878,0.709 1.22032,0.5231 2.58196,0.94837 3.02587,0.94505 0.44391,-0.003 -1.88736,-1.09263 -5.1806,-2.4207 -3.29323,-1.32808 -6.48978,-2.41467 -7.10343,-2.41467 -0.61364,0 -2.05857,-0.74119 -3.21095,-1.6471 -1.15238,-0.9059 -4.32032,-2.97495 -7.03987,-4.5979 -2.71955,-1.62294 -5.18264,-3.39552 -5.47354,-3.93909 -0.41103,-0.76801 -0.0105,-0.62062 1.79771,0.66127 1.27966,0.90726 4.12235,2.67663 6.3171,3.93193 2.19474,1.25531 4.1139,2.48213 4.26479,2.72628 0.44341,0.71747 1.10132,0.51049 1.28207,-0.40334 0.12865,-0.65037 -1.52245,-1.78408 -7.10557,-4.87898 -13.70478,-7.59701 -17.14877,-10.28969 -23.01802,-17.99662 -0.91253,-1.19826 -1.79462,-2.28757 -1.96021,-2.42071 -0.1656,-0.13314 -0.43455,-0.78879 -0.59768,-1.45701 -0.16314,-0.66821 -1.0724,-2.06189 -2.02058,-3.09707 -0.9482,-1.03519 -1.62009,-1.98605 -1.4931,-2.11303 0.12698,-0.12699 1.03608,0.24421 2.02024,0.82486 1.66798,0.98414 1.58222,0.82212 -1.26465,-2.38899 -1.77415,-2.00115 -3.18903,-3.22625 -3.37624,-2.92335 -0.17722,0.28676 -0.85154,-0.61988 -1.49849,-2.01476 -0.64693,-1.39488 -2.07209,-3.85077 -3.16702,-5.45755 -2.94991,-4.32893 -6.51113,-11.12041 -6.38041,-12.16788 0.0629,-0.50401 -0.38178,-2.44142 -0.98819,-4.30537 -0.60641,-1.86393 -1.43166,-5.78546 -1.83392,-8.71451 -0.7372,-5.36803 -1.74598,-9.59055 -2.53056,-10.59231 -0.23386,-0.2986 -0.5486,-1.63222 -0.69943,-2.96361 -0.15083,-1.33138 -0.43565,-2.8377 -0.63295,-3.34736 -0.22403,-0.57872 -0.17586,-0.81366 0.12827,-0.6257 0.32202,0.19903 0.41203,-2.19305 0.26571,-7.06164 -0.13986,-4.65384 1.8e-4,-8.69852 0.38066,-10.99367 0.33106,-1.99708 0.76341,-4.58849 0.96078,-5.75868 l 0.35885,-2.12763 -0.91459,1.15935 -0.91459,1.15935 0.32976,-1.45242 c 0.18137,-0.79884 0.8463,-2.21495 1.47762,-3.14691 1.21492,-1.79347 3.05705,-7.14044 3.06159,-8.88656 0.005,-1.77767 0.99448,-4.70865 1.48736,-4.40403 0.25817,0.15956 0.93193,-0.75551 1.49724,-2.03349 1.00055,-2.26189 1.78748,-3.56833 6.1212,-10.16215 1.14867,-1.7477 1.95881,-3.30731 1.80032,-3.46581 -0.15848,-0.15848 -1.6179,1.11665 -3.24314,2.83362 l -2.95497,3.12177 2.92153,-3.87312 c 3.08793,-4.09371 7.3761,-8.5494 7.3761,-7.66425 0,0.28912 -0.32679,0.79687 -0.72621,1.12836 -0.39941,0.33148 -0.72621,0.81472 -0.72621,1.07385 0,0.25915 -0.45374,1.15839 -1.00829,1.99833 l -1.00829,1.52716 1.24795,-1.45243 c 0.68639,-0.79882 1.24904,-1.64358 1.25036,-1.87722 0.004,-0.77453 6.99595,-8.67708 8.4746,-9.57882 2.09544,-1.27788 2.49382,-1.09201 0.76941,0.35899 -0.81608,0.68667 -1.96952,1.93939 -2.56319,2.7838 -1.25597,1.78639 4.43286,-3.25127 6.63468,-5.87524 0.73881,-0.88048 2.56627,-2.3872 4.06101,-3.34828 4.02855,-2.59023 13.49271,-7.39644 14.56475,-7.39644 1.70769,0 8.56688,-2.40244 10.38836,-3.63852 0.98786,-0.67039 2.02158,-1.07951 2.29717,-0.9092 0.27559,0.17033 0.13886,-0.24313 -0.30386,-0.91879 -0.85505,-1.30498 -3.82944,-14.66758 -3.46215,-15.55388 0.1194,-0.28811 0.25301,-0.0881 0.29692,0.44444 0.0585,0.70938 0.19553,0.58027 0.51252,-0.48286 0.63739,-2.13769 -0.33125,-7.5035 -1.56143,-8.64958 -0.90716,-0.84516 -1.22186,-0.87247 -3.68978,-0.32017 -2.21504,0.49571 -2.54229,0.69093 -1.82812,1.09061 1.35321,0.7573 0.0117,1.32586 -3.14885,1.33457 -2.08362,0.005 -4.60083,0.70118 -11.13521,3.07642 -10.22251,3.71587 -14.06104,5.49177 -14.3626,6.64489 -0.12515,0.47861 -0.5442,0.9917 -0.93121,1.14021 -0.44946,0.17248 -0.57843,0.0674 -0.357,-0.29085 1.14605,-1.85435 -5.14564,2.36571 -10.98493,7.36799 -2.509,2.14935 -5.27872,4.25184 -6.15492,4.67218 -0.87619,0.42033 -3.04153,2.31474 -4.81184,4.20978 -1.77031,1.89505 -2.93913,3.0716 -2.59737,2.61456 0.34177,-0.45703 0.53873,-1.07896 0.43769,-1.38208 -0.10104,-0.30313 -0.99309,0.60507 -1.98234,2.01819 -0.98924,1.41313 -1.79862,2.26473 -1.79862,1.89247 0,-0.85112 -2.40061,2.90802 -4.29369,6.72355 -1.88891,3.80713 -5.38475,9.67426 -5.98548,10.04553 -0.74575,0.4609 0.10189,-1.7888 1.39094,-3.69176 1.60813,-2.37398 1.41923,-2.7788 -0.35417,-0.75902 -1.55262,1.76834 -3.5573,6.30939 -3.10698,7.03802 0.14168,0.22924 -0.50403,2.14901 -1.43489,4.26618 -0.93087,2.11717 -1.93226,4.96744 -2.22532,6.33392 -0.29305,1.36648 -0.71863,2.36969 -0.94572,2.22934 -0.22708,-0.14035 -0.6211,0.67514 -0.8756,1.81219 -0.41241,1.84265 -0.47205,1.90949 -0.54858,0.61495 -0.16398,-2.77342 -0.91482,0.24445 -0.96363,3.87311 -0.0502,3.73239 -0.66118,7.00113 -1.39326,7.45396 -0.26341,0.16292 -0.43961,2.36874 -0.39813,4.98377 0.0417,2.63171 0.23764,4.33218 0.44617,3.87311 0.20446,-0.4501 0.26288,0.92454 0.12985,3.05476 -0.13305,2.13022 -0.33034,5.28922 -0.43842,7.02002 -0.14499,2.32201 -0.10294,2.63929 0.16055,1.21036 0.35434,-1.9218 0.35763,-1.91626 0.43252,0.7262 0.0415,1.46454 -0.17568,4.84141 -0.48265,7.50417 -0.32322,2.80372 -0.408,6.23583 -0.20145,8.15448 0.30624,2.84474 0.47811,3.28131 1.21582,3.08839 0.74492,-0.1948 0.90947,0.26591 1.23758,3.46489 0.20813,2.02926 0.37826,4.28202 0.37806,5.00612 -2e-4,0.7241 0.13875,1.23057 0.30878,1.12549 0.17003,-0.10504 0.28307,0.59461 0.25121,1.55489 -0.0318,0.96028 0.53236,3.61281 1.2538,5.89454 0.72146,2.28173 1.44092,4.80217 1.59882,5.60101 0.24962,1.26287 0.16754,1.1997 -0.62899,-0.48415 -1.20654,-2.55057 -1.21373,-2.01832 -0.0196,1.45242 1.14755,3.33543 1.19058,3.8106 0.1973,2.17864 l -0.7367,-1.21035 0.30733,1.44455 c 0.30521,1.43464 3.40258,8.48032 3.72805,8.48032 0.53726,0 -0.16966,-3.60461 -1.26022,-6.42591 -1.52741,-3.95146 -1.58921,-4.65813 -0.17894,-2.04655 0.57516,1.06511 0.9998,2.10433 0.94365,2.30938 -0.0562,0.20504 0.45885,1.47981 1.14448,2.83281 0.68561,1.35301 1.12529,2.77606 0.97706,3.16235 -0.14823,0.38629 -0.077,0.58335 0.15834,0.4379 0.23533,-0.14544 0.55713,0.0724 0.71512,0.48415 0.16918,0.44087 0.0845,0.62324 -0.20611,0.44366 -0.27135,-0.16771 1.56066,3.68804 4.07114,8.56833 2.51047,4.8803 5.45376,11.01193 6.54065,13.62587 2.11149,5.0781 2.9044,6.39149 6.26455,10.37677 2.88889,3.42632 3.58692,3.24217 0.91761,-0.24208 -3.01329,-3.93322 -3.8842,-5.65976 -2.60787,-5.16999 0.35286,0.1354 1.02036,1.10476 1.48334,2.15413 0.78808,1.78623 2.96681,4.36928 11.91515,14.12629 1.99708,2.17755 3.26092,3.82034 2.80855,3.65065 -1.58737,-0.59544 -0.15236,1.74405 2.08149,3.39345 1.17149,0.865 2.98181,2.34955 4.02292,3.29901 1.04111,0.94945 3.00188,2.28811 4.35726,2.9748 4.31858,2.18794 8.23684,4.92245 9.47824,6.61477 0.66232,0.9029 2.29629,2.24266 3.63105,2.97726 1.33475,0.73459 6.02156,3.35751 10.41514,5.82873 4.39357,2.4712 9.07761,4.84023 10.409,5.2645 16.00283,5.09955 25.675,7.61391 33.59506,8.73331 6.34375,0.89661 9.00306,1.11693 11.18789,0.92691 0.93197,-0.081 4.63563,-0.25325 8.23038,-0.38267 z m 9.44072,-30.2912 c 2.03639,-2.28554 3.49152,-2.98887 5.43103,-2.62503 l 1.82444,0.34227 -2.4422,0.83013 c -1.3432,0.45658 -3.19353,1.21471 -4.11185,1.68476 l -1.66971,0.85463 z m 48.93561,-38.62415 c 0.4272,-0.99854 0.90975,-2.14232 1.07237,-2.54173 0.46883,-1.15153 2.70484,-4.22345 2.29056,-3.14691 -0.20494,0.53255 -0.59453,1.62187 -0.86583,2.4207 -1.19249,3.51141 -2.001,5.08347 -2.6146,5.08347 -0.53522,0 -0.51315,-0.34132 0.1175,-1.81553 z m 8.47322,-19.76905 c 0.0232,-0.564 0.13793,-0.67871 0.29247,-0.2925 0.13987,0.34949 0.12268,0.76706 -0.0382,0.92794 -0.16082,0.16087 -0.27528,-0.12507 -0.25427,-0.63544 z M 190.64952,257.16851 c 0.006,-0.19971 0.45476,-0.90777 0.99742,-1.57346 l 0.98666,-1.21035 -0.76779,1.57346 c -0.72959,1.49519 -1.23979,2.00289 -1.21629,1.21035 z m 120.83641,-28.28897 c 0.2336,-0.37798 0.0758,-0.45691 -0.48414,-0.24207 -0.55986,0.21484 -0.71773,0.13591 -0.48414,-0.24207 0.22983,-0.37185 0.0815,-0.45914 -0.43994,-0.25902 -0.8105,0.31101 -8.72,-3.07664 -9.27318,-3.9717 -0.34767,-0.56253 1.62604,0.0933 7.23815,2.40529 4.47703,1.84433 4.95164,2.15861 3.88052,2.56963 -0.51914,0.19922 -0.6668,0.11139 -0.43727,-0.26006 z m -15.47683,-7.47963 c -1.29294,-0.39713 -2.23502,-0.83784 -2.0935,-0.97935 0.28541,-0.2854 5.65464,1.17714 5.65464,1.54029 0,0.37321 -1.06694,0.20515 -3.56114,-0.56094 z m -56.72735,-5.48319 c 0.15738,-0.25465 0.60597,-0.34026 0.99686,-0.19027 1.00076,0.38404 0.88283,0.65327 -0.28615,0.65327 -0.54828,0 -0.86809,-0.20835 -0.71071,-0.463 z m 47.71625,0.0999 c 0.008,-0.19971 0.33527,-0.786 0.72621,-1.30288 0.72507,-0.95862 0.94665,-0.48021 0.41695,0.90018 -0.29572,0.77061 -1.17184,1.07925 -1.14316,0.4027 z m -44.52896,-20.8563 c -0.33737,-1.02224 -0.52219,-2.27603 -0.41069,-2.7862 0.11936,-0.54624 0.44301,0.14644 0.78722,1.68479 0.69473,3.10492 0.48609,3.7152 -0.37653,1.10141 z m 1.50155,0.88553 c 0,-0.66569 0.10989,-0.93803 0.24419,-0.60517 0.13431,0.33284 0.13431,0.87749 0,1.21035 -0.1343,0.33284 -0.24419,0.0605 -0.24419,-0.60518 z m 51.79272,190.36975 c -0.34928,-0.11642 -0.86524,0.0186 -1.14657,0.29984 -0.35926,0.35927 -0.17024,0.42227 0.63505,0.21169 0.65466,-0.1712 0.87412,-0.39066 0.51152,-0.51153 z m -3.9393,-0.20336 c 0,-0.24238 -0.20477,-0.31412 -0.45504,-0.15945 -0.25027,0.15468 -1.17619,-0.17933 -2.05759,-0.74225 l -1.60257,-1.02347 2.16412,0.30943 c 1.19027,0.17019 2.30223,0.5329 2.47103,0.80603 0.18239,0.29511 1.021,0.36263 2.067,0.1664 1.38622,-0.26007 1.82459,-0.16208 2.0638,0.46128 0.23698,0.61758 0.45245,0.66806 0.98055,0.22978 0.78743,-0.65351 5.49789,-1.87531 7.85009,-2.03615 1.12776,-0.0771 1.91235,-0.51212 2.58211,-1.43158 0.52921,-0.72645 1.25174,-1.32081 1.60575,-1.32081 0.83117,0 5.48937,-2.95677 6.90084,-4.38029 1.21591,-1.22627 1.5139,-0.76444 0.34223,0.53027 -0.67504,0.74588 -0.66947,0.85534 0.0574,1.13428 0.54306,0.20839 1.32538,-0.24355 2.40719,-1.39061 0.88147,-0.93464 1.89672,-1.58649 2.25614,-1.44857 0.8671,0.33272 2.80056,-1.18463 1.95704,-1.53587 -0.93289,-0.38847 -0.71618,-1.13959 0.32882,-1.13959 1.31764,0 7.78644,-5.71513 7.45281,-6.58452 -0.17879,-0.4659 -0.0271,-0.59752 0.46943,-0.40704 0.52552,0.20166 1.17108,-0.5393 2.27593,-2.61216 0.85049,-1.59574 1.95932,-3.00273 2.47202,-3.13681 0.51135,-0.13372 1.23035,-0.95812 1.59781,-1.83201 0.55923,-1.33002 0.70781,-1.43579 0.91213,-0.64923 0.22734,0.87539 0.26787,0.86553 0.59243,-0.14423 0.19167,-0.59613 0.53052,-0.97133 0.75308,-0.83379 0.22256,0.13755 0.53667,-0.57296 0.69808,-1.5789 0.40711,-2.53708 1.60009,-5.08986 2.20414,-4.71652 0.33954,0.20984 0.31567,0.53695 -0.0734,1.00578 -0.6946,0.83692 -0.41656,1.25619 0.46976,0.70841 0.35109,-0.21697 0.71313,-1.23998 0.80454,-2.27334 0.35865,-4.05345 1.26104,-6.05166 2.54043,-5.6252 0.45925,0.15308 0.53643,-0.27883 0.30665,-1.71582 -0.19216,-1.20163 -0.10636,-2.04444 0.22919,-2.25183 0.70341,-0.43473 0.69397,-3.04589 -0.0116,-3.28117 -0.37817,-0.12604 -0.29993,-0.66271 0.25233,-1.73065 0.4561,-0.88194 0.6776,-2.03752 0.51488,-2.68582 -0.20261,-0.80738 0.0858,-1.57919 0.99297,-2.65732 1.32528,-1.57501 1.50921,-3.83931 0.29054,-3.5765 -0.4245,0.0916 -0.54756,-0.13416 -0.35163,-0.64476 0.16581,-0.4321 0.30146,-1.32531 0.30146,-1.98493 0,-0.65964 0.20384,-1.07338 0.45292,-0.91941 0.5375,0.33218 0.32525,-7.75043 -0.23994,-9.13776 -0.28749,-0.70561 -0.22275,-0.83103 0.27117,-0.52575 0.48036,0.29689 0.56436,0.18119 0.32374,-0.44591 -0.74814,-1.94954 -0.91992,-6.26775 -0.34471,-8.6654 0.51039,-2.12751 0.48996,-2.77662 -0.13241,-4.20638 l -0.73594,-1.69065 -0.0397,2.08617 c -0.0228,1.19501 -0.23723,1.96393 -0.50249,1.80001 -0.25461,-0.15737 -0.3403,-0.60578 -0.19041,-0.99644 0.14993,-0.39067 -0.29533,-2.12889 -0.98944,-3.86271 -1.29609,-3.23759 -1.59974,-4.86054 -0.81916,-4.37812 0.82231,0.50822 0.86913,-0.93277 0.0778,-2.39515 -0.43223,-0.79883 -1.49313,-2.14812 -2.35751,-2.99841 -1.14519,-1.12653 -1.54286,-1.92344 -1.46564,-2.93705 0.0586,-0.76899 -0.33692,-2.02618 -0.88438,-2.81128 -0.5447,-0.78111 -1.55631,-2.67291 -2.24806,-4.204 -0.69173,-1.5311 -1.46848,-2.78381 -1.72614,-2.78381 -0.25766,0 -2.09812,-2.23616 -4.08988,-4.96923 -1.99174,-2.73308 -4.94897,-6.26239 -6.57152,-7.84291 -1.76145,-1.71575 -2.73868,-3.00438 -2.42534,-3.19804 0.61606,-0.38072 -1.33744,-2.38713 -2.32416,-2.38713 -0.34922,0 -0.63496,-0.27978 -0.63496,-0.62171 0,-0.79077 -5.03859,-5.79769 -5.43519,-5.40106 -0.16282,0.16281 -0.54249,-0.16447 -0.84367,-0.72729 -0.30122,-0.56282 -0.75192,-0.89706 -1.00159,-0.74276 -0.24966,0.15432 -1.49148,-0.68191 -2.75954,-1.85827 -2.67672,-2.48312 -9.79663,-7.59381 -10.57926,-7.59381 -0.89375,0 -3.73194,-1.53777 -5.51356,-2.98732 -0.92608,-0.75347 -2.02209,-1.36994 -2.4356,-1.36994 -0.41351,0 -0.98139,-0.60819 -1.26197,-1.35153 -0.44168,-1.17014 -1.08943,-1.5269 -4.8265,-2.65831 -9.69722,-2.93585 -17.83612,-4.02624 -26.58681,-3.56188 -16.77366,0.89007 -31.46618,7.34265 -43.12209,18.93813 -4.1815,4.15981 -8.92295,10.17459 -8.92295,11.31921 0,0.29386 -0.74707,1.70213 -1.66013,3.1295 -3.77485,5.90104 -8.53781,19.06965 -7.49364,20.71838 0.28966,0.45735 0.42677,0.12303 0.43183,-1.05285 0.004,-0.94764 0.30972,-2.1364 0.67919,-2.6417 0.6034,-0.82519 0.66791,-0.66213 0.63375,1.60196 -0.0209,1.38637 -0.16731,2.52066 -0.32532,2.52066 -0.6493,0 -1.84538,2.84658 -2.33939,5.56761 -1.19175,6.56405 -1.23211,8.30186 -0.21644,9.31752 0.91518,0.91519 1.66783,3.81107 1.69925,6.53807 0.008,0.73225 0.2148,1.33138 0.45857,1.33138 0.24378,0 0.30127,0.2297 0.12776,0.51045 -0.20797,0.3365 -0.73748,0.23393 -1.5539,-0.30101 l -1.23843,-0.81144 0.30966,1.87445 c 0.1703,1.03095 0.31204,2.36465 0.31497,2.96377 0.006,1.29755 0.99968,1.41178 2.68334,0.3086 l 1.19153,-0.78071 -0.29615,2.16058 c -0.18884,1.37772 -0.0697,2.58157 0.32863,3.32245 0.34362,0.63903 0.77835,1.99592 0.96606,3.0153 0.32662,1.77369 0.29174,1.84099 -0.81097,1.56424 -1.83627,-0.46088 -1.26205,1.59345 1.17609,4.20753 1.88294,2.01883 2.27579,1.59568 0.82187,-0.88525 -1.68106,-2.86852 -1.32878,-3.16878 0.7227,-0.616 1.27423,1.58561 1.61398,2.45186 1.61398,4.115 0,1.15864 -0.1485,2.25512 -0.33001,2.43664 -0.1815,0.18149 -1.086,-0.40273 -2.00999,-1.2983 -1.93819,-1.87857 -2.39838,-1.77329 -1.59161,0.3641 0.38139,1.0104 1.18015,1.78566 2.41228,2.34127 1.85081,0.83459 2.61125,2.62017 1.11589,2.62017 -1.51448,0 -0.62949,1.50675 1.85317,3.15515 2.77229,1.84069 4.40006,4.35142 3.66857,5.65851 -0.31603,0.56472 -0.1022,0.97798 0.81802,1.58094 1.18607,0.77714 1.20326,0.84867 0.35791,1.48929 -0.82769,0.62725 -0.79798,0.67399 0.43767,0.68835 1.16856,0.0136 1.36237,0.2449 1.63533,1.95196 0.30077,1.88085 1.1542,2.73197 1.1542,1.15107 0,-0.65558 0.12447,-0.68219 0.75264,-0.16085 0.41395,0.34355 0.98395,1.05684 1.26667,1.5851 0.43271,0.80853 0.38469,0.91085 -0.30358,0.64673 -0.44968,-0.17256 -1.24031,-0.0876 -1.75696,0.18898 -1.53503,0.82153 -0.31777,2.23601 2.75886,3.20582 1.48967,0.46958 2.45572,0.93805 2.14677,1.04103 -0.30895,0.10293 1.19346,1.81784 3.33869,3.81079 2.14522,1.99296 3.90041,3.86508 3.90041,4.16029 0,0.83903 2.51329,3.2525 3.38702,3.2525 0.43184,0 1.20807,0.3388 1.72494,0.75291 0.90782,0.72732 0.90382,0.73555 -0.1177,0.24208 -1.9954,-0.96393 -1.84602,-0.50583 0.2991,0.91729 1.18056,0.7832 2.33309,1.30866 2.56117,1.16769 0.2281,-0.14096 0.83431,0.27713 1.34715,0.92909 0.51284,0.65197 1.57776,1.4527 2.36648,1.7794 0.78871,0.32671 1.53984,0.86972 1.66916,1.20672 0.12932,0.33699 -0.91657,-0.0111 -2.32419,-0.77347 -2.13199,-1.15474 -2.65166,-1.27492 -3.11241,-0.71977 -0.4455,0.53682 -0.10061,0.86108 1.77357,1.66732 1.27966,0.5505 3.49027,1.15525 4.91247,1.34391 2.44399,0.32421 3.62315,1.01703 6.72868,3.95343 0.352,0.33284 0.89678,0.61242 1.21061,0.62128 0.31383,0.008 0.0563,0.44459 -0.57235,0.96828 l -1.14295,0.95218 h 1.74812 c 0.99904,0 1.74812,-0.23961 1.74812,-0.55918 0,-0.35493 0.30947,-0.28985 0.84725,0.17817 0.46599,0.40555 2.15092,0.86456 3.74431,1.02003 1.5934,0.15547 2.9732,0.51102 3.06623,0.7901 0.093,0.27909 0.42721,0.50744 0.74262,0.50744 0.31542,0 1.40198,0.56298 2.4146,1.25106 1.6147,1.09721 2.14191,1.20971 4.28691,0.9147 1.43408,-0.19725 2.57146,-0.1432 2.74957,0.13066 0.16707,0.25686 2.11695,0.58827 4.33307,0.73642 3.34426,0.22359 3.98477,0.15329 3.76728,-0.41344 -0.37617,-0.98029 0.20182,-0.84215 1.47295,0.35202 0.99309,0.93296 1.25086,0.97302 2.61765,0.40688 1.04493,-0.43282 1.61504,-0.46869 1.83448,-0.11539 0.54031,0.86987 7.33842,1.34195 7.33842,0.50959 z m 28.0801,-11.70902 c 0,-0.10462 0.32679,-0.31567 0.72621,-0.46895 0.39941,-0.15327 0.72621,-0.0676 0.72621,0.19028 0,0.25791 -0.3268,0.46894 -0.72621,0.46894 -0.39942,0 -0.72621,-0.0857 -0.72621,-0.19027 z M 217.758,352.05993 c 0.004,-0.19971 0.19887,-0.66542 0.43287,-1.03492 0.34744,-0.54865 0.62908,-0.48208 1.53629,0.36311 l 1.11085,1.03491 h -1.54371 c -0.84904,0 -1.54038,-0.16339 -1.5363,-0.3631 z m -9.10924,-18.61518 c -0.31953,-0.31953 -0.58097,-0.97312 -0.58097,-1.45242 0,-0.8069 0.0718,-0.79973 0.96828,0.0968 0.99025,0.99024 1.27414,1.93656 0.58097,1.93656 -0.21303,0 -0.64875,-0.26144 -0.96828,-0.58097 z m -6.87479,-57.00311 c 0,-0.54827 0.21786,-0.99685 0.48414,-0.99685 0.26628,0 0.48414,0.31393 0.48414,0.69763 0,0.38369 -0.21786,0.83229 -0.48414,0.99685 -0.26628,0.16457 -0.48414,-0.14937 -0.48414,-0.69763 z m 1.21035,-5.83826 c -0.16456,-0.26627 -0.0685,-0.48414 0.2135,-0.48414 0.28199,0 0.51271,0.21787 0.51271,0.48414 0,0.26628 -0.0961,0.48415 -0.21349,0.48415 -0.11743,0 -0.34815,-0.21787 -0.51272,-0.48415 z m 45.50916,108.93149 c -0.16457,-0.26628 -0.51708,-0.48414 -0.78336,-0.48414 -0.26627,0 -0.34949,0.21786 -0.18492,0.48414 0.16456,0.26628 0.51707,0.48415 0.78335,0.48415 0.26627,0 0.3495,-0.21787 0.18493,-0.48415 z m -37.99457,-17.4144 c -1.09341,-1.53555 -2.39056,-2.61479 -1.70768,-1.42083 0.4749,0.83037 2.27768,2.85862 2.54083,2.85862 0.10483,0 -0.27006,-0.647 -0.83315,-1.43779 z M 105.43012,338.52822 c 0,-0.89912 -0.15609,-1.15109 -0.50001,-0.80717 -0.27501,0.27501 -0.36064,0.86324 -0.19028,1.30718 0.44846,1.16866 0.69029,0.99348 0.69029,-0.50001 z m 246.46184,-21.18393 c 0.52738,0.32593 0.55706,-0.0891 0.15129,-2.1179 -0.2624,-1.31183 -0.38392,-1.40569 -1.00972,-0.7799 -0.53827,0.53829 -0.61853,1.2105 -0.32975,2.76219 0.27113,1.45665 0.4334,1.73312 0.5602,0.95428 0.0981,-0.60307 0.38078,-0.97147 0.62798,-0.81867 z M 129.83004,239.25533 c 0.44012,-0.8654 0.69128,-1.57345 0.55815,-1.57345 -0.27886,0 -1.71936,2.68398 -1.71936,3.20356 0,0.5055 0.26254,0.13696 1.16121,-1.63011 z m 51.04671,-105.62314 c 1.13534,-0.5792 2.61513,-2.08008 3.93804,-3.99415 1.16561,-1.68645 2.51711,-3.45604 3.00334,-3.93239 0.48624,-0.47636 0.88407,-1.18442 0.88407,-1.57346 0,-0.84535 0.0449,-0.85013 1.784,-0.18997 l 1.36291,0.51739 -1.40547,-1.46845 c -1.40876,-1.47188 -2.22559,-1.56875 -2.22559,-0.26395 0,0.3837 -0.16832,0.69763 -0.37405,0.69763 -0.20571,0 -0.76641,0.7286 -1.24598,1.61912 -1.4016,2.60261 -4.94369,5.98256 -6.94551,6.62759 -2.20996,0.71209 -3.05381,1.32599 -3.05381,2.22158 0,0.96092 2.1387,0.83048 4.27805,-0.26094 z m 11.69856,-4.09632 c 0,-0.10051 -0.38125,-0.48179 -0.84724,-0.84724 -0.76788,-0.60221 -0.785,-0.58508 -0.18279,0.18279 0.63246,0.80646 1.03003,1.06292 1.03003,0.66445 z m 37.67738,-2.39906 c 0.12218,-0.62999 -0.21686,-0.80712 -1.54488,-0.80712 -0.93578,0 -1.85044,0.24111 -2.03257,0.53582 -0.24038,0.38894 -0.42451,0.38479 -0.67169,-0.0152 -0.23045,-0.37291 -0.71943,-0.40778 -1.51293,-0.10791 -1.04013,0.39307 -0.8993,0.481 1.24828,0.77942 1.33139,0.18501 2.63856,0.41001 2.90484,0.50002 0.8399,0.28391 1.44701,-0.05 1.60895,-0.8851 z m 1.05382,-7.98222 c -0.39941,-0.18099 -1.27087,-0.69932 -1.93656,-1.15185 -1.10417,-0.7506 -5.88974,-1.84842 -5.32554,-1.22171 0.94219,1.0466 4.87817,2.75439 6.29381,2.73083 1.00527,-0.0168 1.39912,-0.16204 0.96829,-0.35727 z m 20.6646,-6.4716 c -0.15455,-0.38622 -0.26927,-0.2715 -0.2925,0.2925 -0.021,0.51036 0.0934,0.79631 0.25428,0.63543 0.16087,-0.16087 0.17807,-0.57845 0.0382,-0.92793 z m -34.46259,-3.78235 c -0.16456,-0.26628 -0.51708,-0.48413 -0.78336,-0.48413 -0.26626,0 -0.34949,0.21785 -0.18492,0.48413 0.16457,0.26628 0.51707,0.48414 0.78335,0.48414 0.26628,0 0.3495,-0.21786 0.18493,-0.48414 z m -24.93321,-8.23038 c 0,-0.26628 -0.38125,-0.4808 -0.84724,-0.47672 -0.72406,0.006 -0.74166,0.0756 -0.12104,0.47672 0.91368,0.59046 0.96828,0.59046 0.96828,0 z M 136.173,85.177787 c 0.3441,-0.556752 -0.44017,-0.556752 -2.17862,0 -1.15588,0.370178 -1.14083,0.389795 0.33453,0.435881 0.84968,0.02653 1.67953,-0.169605 1.84409,-0.435881 z M 279.17092,473.68117 c 0.89596,-0.389 1.98529,-0.69876 2.4207,-0.68835 0.4354,0.0106 0.0586,0.33726 -0.83739,0.72622 -0.89597,0.389 -1.98528,0.69875 -2.4207,0.68834 -0.43541,-0.0106 -0.0586,-0.33725 0.83739,-0.72621 z m 12.16895,-3.61212 c 0,-0.26627 0.49019,-0.4808 1.08931,-0.47672 0.88087,0.006 0.95035,0.0972 0.3631,0.47672 -0.93862,0.6066 -1.45241,0.6066 -1.45241,0 z M 159.76961,454.85146 c -2.32269,-1.17791 -3.84301,-2.51875 -3.38041,-2.98135 0.40382,-0.40381 3.20647,1.34064 4.68863,2.91832 0.64099,0.68231 1.07301,1.21099 0.96003,1.17485 -0.11299,-0.0361 -1.1337,-0.53646 -2.26825,-1.11182 z m -32.38044,-35.34573 -1.52174,-2.08941 1.88485,0.74039 c 1.5759,0.61904 1.88483,0.96641 1.88483,2.11937 0,1.85571 -0.44688,1.70257 -2.24794,-0.77035 z M 117.00378,256.64872 c 0.29427,-0.54985 0.77347,-1.14709 1.06488,-1.32719 0.37962,-0.23463 0.37815,-0.044 -0.005,0.67228 -0.29427,0.54986 -0.77347,1.14709 -1.06489,1.3272 -0.37962,0.23461 -0.37814,0.044 0.005,-0.67229 z m 373.87104,-14.55648 c -0.39898,-0.25282 -0.46802,-0.5329 -0.17589,-0.71347 0.26454,-0.16349 0.75022,0.0272 1.07925,0.42362 0.6533,0.78717 0.14098,0.95156 -0.90336,0.28985 z m 1.67784,-3.25982 c -1.1923,-1.49427 -1.4652,-1.63719 -1.84172,-0.96441 -0.24308,0.43439 -0.3084,1.00596 -0.14514,1.27012 0.16324,0.26417 0.13585,0.48031 -0.0609,0.48031 -0.67015,0 -6.23175,-6.11138 -7.19689,-7.9083 -0.52886,-0.98468 -1.1916,-1.70207 -1.4727,-1.59421 -0.80232,0.30789 -1.76367,-0.64704 -4.32444,-4.29548 -2.62556,-3.74082 -6.07966,-8.08423 -12.45399,-15.66035 -2.31801,-2.7551 -5.04363,-6.2124 -6.05684,-7.68288 -1.87647,-2.72334 -2.13926,-4.08024 -2.20917,-11.40655 -0.0121,-1.27635 -0.058,-1.3033 -0.90733,-0.53458 -1.37346,1.24296 -5.05428,1.36968 -8.46882,0.29153 -3.67922,-1.16173 -9.38046,-4.82035 -9.38046,-6.01968 0,-0.47608 -0.25174,-0.8656 -0.55946,-0.8656 -0.30773,0 -1.27354,-0.54466 -2.14634,-1.21035 -0.87276,-0.66569 -1.70015,-1.21035 -1.83867,-1.21035 -0.61176,0 -5.75245,-5.19562 -6.15627,-6.22201 -0.29175,-0.74155 -0.70487,-1.03992 -1.18489,-0.85572 -0.42353,0.16254 -2.0635,-0.58861 -3.85632,-1.76631 -3.62112,-2.37872 -3.65244,-2.50281 -2.18463,-8.64843 0.5252,-2.19883 0.88317,-4.06961 0.79554,-4.15726 -0.44071,-0.44068 -1.80971,0.62319 -2.98579,2.32028 -0.72432,1.04523 -1.45077,1.92078 -1.61427,1.94568 -0.16349,0.0249 -1.27765,0.10041 -2.47589,0.16769 -1.19825,0.0673 -3.59474,0.25618 -5.32554,0.41965 -1.7308,0.16349 -2.49332,0.13651 -1.69449,-0.06 1.21335,-0.29838 1.30645,-0.41476 0.56558,-0.70699 -0.48773,-0.1924 -1.68597,-0.35316 -2.66278,-0.35723 -0.97675,-0.004 -2.10272,-0.24249 -2.50213,-0.52981 -0.61297,-0.44094 -0.59408,-0.47991 0.12103,-0.24985 1.54185,0.49598 0.87872,-0.47102 -0.90693,-1.32253 -1.51521,-0.72256 -1.71517,-0.73477 -1.46762,-0.0897 0.42077,1.09644 0.14345,0.98048 -3.97968,-1.66439 -3.33819,-2.14137 -11.46134,-6.23344 -19.54725,-9.84702 -2.7641,-1.23529 -2.7838,-1.25882 -2.78701,-3.32847 -0.006,-3.72373 1.08394,-9.58854 1.78149,-9.58854 0.36249,0 0.64241,-0.52738 0.64241,-1.21035 0,-1.46497 -0.95438,-1.61009 -1.32281,-0.20115 -0.18989,0.72608 -0.37057,0.83668 -0.64401,0.39424 -0.30689,-0.49662 -0.52393,-0.49556 -1.1276,0.005 -1.19535,0.99206 -6.13396,3.95445 -8.76023,5.25474 -3.2798,1.62389 -7.2056,1.92418 -11.16034,0.85369 -1.72684,-0.46744 -3.25899,-1.04288 -3.40477,-1.27875 -0.14578,-0.23587 -1.31855,-0.42886 -2.60617,-0.42886 -2.44577,0 -8.73698,-1.69671 -8.73698,-2.35631 0,-0.20946 -0.59912,-0.29458 -1.33139,-0.18915 -0.73226,0.10542 -2.31177,-0.0595 -3.51001,-0.36656 -1.19825,-0.30704 -3.39978,-0.81229 -4.89229,-1.12278 -1.4925,-0.3105 -3.01754,-0.81343 -3.38897,-1.11765 -0.37144,-0.30422 -2.03984,-0.93284 -3.70755,-1.39696 -3.56036,-0.99083 -7.3768,-3.98012 -7.3768,-5.77802 0,-0.61046 -0.3068,-1.36455 -0.68175,-1.67576 -0.53934,-0.4476 -0.93353,-0.31411 -1.88646,0.63884 -1.07159,1.07157 -3.16496,1.86526 -7.84079,2.97277 -0.96668,0.22897 -1.20953,0.43632 -0.72621,0.62 1.03523,0.39344 -5.919,1.46051 -9.80382,1.50433 -2.59846,0.0293 -3.26794,-0.11191 -3.26794,-0.68934 0,-0.40345 -0.43036,-0.72621 -0.96829,-0.72621 -0.53255,0 -0.96827,0.21786 -0.96827,0.48414 0,0.81488 -1.84681,0.53811 -2.76495,-0.41436 -1.57734,-1.63634 -3.63925,-2.68803 -5.05811,-2.57992 -0.76995,0.0587 -2.75608,-0.11366 -4.41362,-0.38297 -2.38931,-0.38819 -3.11405,-0.35595 -3.49787,0.15558 -0.37958,0.50585 -1.26838,0.55366 -4.1152,0.22133 -1.99707,-0.23313 -5.04716,-0.58721 -6.77796,-0.78683 l -3.14691,-0.36297 3.87313,-2.55793 c 2.13021,-1.40685 3.94343,-2.75371 4.02937,-2.99302 0.086,-0.23929 1.39312,-1.13002 2.90483,-1.97937 1.51173,-0.84937 3.62005,-2.24093 4.68516,-3.09236 1.94446,-1.55438 7.0338,-4.59278 7.69292,-4.59278 0.19389,0 0.21789,0.21786 0.0533,0.48414 -0.16456,0.26628 -0.0918,0.48413 0.1617,0.48413 0.25351,0 0.59009,-0.33663 0.74798,-0.74806 0.15789,-0.41144 1.05264,-1.06795 1.98836,-1.45891 1.15515,-0.48266 1.70129,-1.02703 1.70129,-1.69576 0,-1.40582 2.20941,-3.29729 3.66492,-3.13752 0.66002,0.0725 1.32925,-0.0773 1.48718,-0.33288 0.42902,-0.69417 6.55674,-3.3472 7.17927,-3.10832 0.2964,0.11375 0.95268,-0.0958 1.4584,-0.46554 0.50572,-0.3698 1.24197,-0.67236 1.63609,-0.67236 0.39413,0 1.06055,-0.29242 1.48093,-0.64983 1.14228,-0.971135 18.72077,-7.404884 22.06647,-8.076358 1.59766,-0.320633 3.49737,-0.887104 4.2216,-1.258817 0.72423,-0.371701 1.48674,-0.639981 1.69449,-0.596172 0.3879,0.08176 3.17857,-1.078092 5.63554,-2.342268 0.76155,-0.391849 1.23891,-0.476592 1.06075,-0.188326 -0.57013,0.922494 2.16841,0.579733 3.61865,-0.452913 0.75464,-0.537376 1.49043,-0.785618 1.63504,-0.551648 0.30355,0.49115 3.4572,-0.310891 8.17848,-2.079957 2.23411,-0.837112 4.25835,-1.232752 6.30727,-1.232752 2.3738,0 3.18661,-0.197775 3.81131,-0.92736 0.43674,-0.510051 0.6667,-1.054708 0.51105,-1.21035 -0.42299,-0.423018 1.43,-0.276337 2.54116,0.201151 0.8408,0.361309 0.78242,0.420563 -0.44377,0.450109 -0.77666,0.01873 -1.32132,0.113671 -1.21035,0.211008 0.11092,0.09733 4.55895,-0.0015 9.8845,-0.21995 l 9.68279,-0.396927 5.78722,1.46569 c 3.69791,0.936545 6.34712,1.360647 7.33815,1.174727 0.85306,-0.160032 3.2101,0.05173 5.23792,0.470589 2.02777,0.418854 3.87127,0.647585 4.09664,0.508299 0.72941,-0.450793 10.39894,3.073804 12.53337,4.568473 1.13947,0.797927 2.20972,1.450783 2.37829,1.450783 0.59157,0 5.24401,3.11899 6.31459,4.233294 0.59505,0.61933 2.47574,1.751451 4.17938,2.51581 1.70365,0.76437 3.25832,1.649947 3.45488,1.967955 0.27378,0.44302 0.11731,0.44973 -0.66938,0.0287 -1.48234,-0.793331 -1.26195,-0.387282 0.49484,0.91156 0.83684,0.6187 1.36295,0.82307 1.16915,0.45415 -0.1938,-0.36892 0.2705,-0.0172 1.0318,0.78166 0.76131,0.79883 2.35936,2.21256 3.55122,3.14162 7.62065,5.94029 16.90293,15.57827 15.47596,16.06898 -0.24787,0.0852 -0.13967,0.69965 0.24048,1.36535 0.3801,0.66569 0.89784,1.64607 1.1505,2.17862 0.68811,1.45052 4.64645,5.07331 4.23182,3.87312 -0.68916,-1.99488 1.86022,1.39442 3.09536,4.1152 1.09881,2.42049 3.67815,6.66379 4.41433,7.26209 0.16379,0.13315 0.44217,0.78673 0.61859,1.45242 l 0.32075,1.21035 -0.86066,-1.2101 c -0.47339,-0.66556 -1.56285,-1.97274 -2.42104,-2.90484 -1.25261,-1.36049 -1.56295,-1.51595 -1.57346,-0.78821 -0.0106,0.72855 -0.14829,0.79432 -0.70175,0.335 -0.8656,-0.71841 -1.94247,-3.60736 -1.16572,-3.12727 0.31372,0.19387 0.42851,0.0534 0.28323,-0.34653 -0.1344,-0.36991 -0.48162,-0.62071 -0.77163,-0.55734 -0.28995,0.0633 -0.42042,-0.16308 -0.2899,-0.50322 0.3112,-0.81093 -2.81862,-4.44575 -4.58815,-5.32852 l -1.38536,-0.69112 0.9615,1.62964 c 0.53202,0.90174 1.19335,1.48637 1.48055,1.30888 0.3251,-0.20094 0.40571,-0.0256 0.21577,0.46935 -0.16673,0.43457 -0.0611,0.9397 0.23462,1.12251 0.34616,0.21393 0.40993,0.0901 0.17895,-0.34761 -0.1974,-0.37399 0.0787,-0.1414 0.61349,0.51684 0.53488,0.65825 0.87799,1.34965 0.76257,1.53642 -0.2762,0.44687 3.65594,6.7075 4.2128,6.7075 0.23654,0 0.43006,0.36211 0.43006,0.8047 0,1.34882 2.28582,4.69169 4.0844,5.97326 0.98362,0.70088 1.70427,1.62992 1.71196,2.20712 0.007,0.54824 0.35038,1.41968 0.76238,1.93656 0.70733,0.88749 0.73236,0.85334 0.45006,-0.61355 l -0.29891,-1.55334 1.48911,0.74287 c 1.68733,0.84176 2.46858,2.02633 2.41615,3.66336 -0.0285,0.90068 -0.20828,0.74033 -0.91245,-0.81542 l -0.87659,-1.93656 -0.51309,1.29231 c -0.28221,0.71077 -0.86095,1.48698 -1.28607,1.72489 -0.69097,0.38669 -0.66817,0.56587 0.21525,1.6889 0.54349,0.69097 0.98818,1.46318 0.98818,1.71603 0,0.25284 1.2728,3.48643 2.82839,7.18574 1.55562,3.6993 3.76393,9.39483 4.90732,12.65672 1.28631,3.66956 2.33065,5.93072 2.73922,5.93072 0.75835,0 0.89827,0.80732 0.18174,1.04897 -0.27732,0.0936 0.13823,2.29848 0.98846,5.24485 2.4729,8.56945 4.30518,16.20786 6.26285,26.10845 1.90964,9.65771 4.06192,23.44911 3.78786,24.27135 -0.0834,0.25014 -0.7815,-0.33459 -1.55138,-1.29941 z M 450.62189,119.3265 c 0,-1.10026 -2.8522,-4.08552 -4.90312,-5.13181 -2.31642,-1.18175 -5.34292,-3.80607 -5.01017,-4.34442 0.3127,-0.50603 -3.26117,-2.99721 -5.83214,-4.0653 l -1.92568,-0.79999 0.99811,1.00589 c 0.54891,0.55324 1.74717,1.37981 2.66277,1.8368 0.91556,0.457 1.66467,1.0557 1.66467,1.33046 0,0.27476 1.61944,2.01766 3.59871,3.87312 1.97931,1.85546 3.43701,3.10124 3.23938,2.76839 -0.90545,-1.52491 0.26322,-0.36561 1.83024,1.81552 1.70021,2.36656 3.67723,3.28665 3.67723,1.71134 z m -165.63148,-6.74297 c 0.6351,-0.35203 0.9558,-0.76299 0.71268,-0.91325 -0.24313,-0.15027 -0.98062,0.14063 -1.63886,0.64645 -1.36983,1.05259 -0.79184,1.2191 0.92618,0.2668 z M 339.2697,89.90811 c 0,-0.283372 -0.30762,-0.236318 -0.72621,0.111071 -0.39941,0.331486 -0.7262,0.678122 -0.7262,0.770302 0,0.09219 0.32679,0.04225 0.7262,-0.111081 0.39943,-0.153268 0.72621,-0.499905 0.72621,-0.770292 z m 64.63269,-0.185009 c -0.53255,-0.412187 -1.98216,-1.269778 -3.22141,-1.905759 -1.97458,-1.013348 -2.32731,-1.066986 -2.8528,-0.433819 -0.80503,0.96997 -0.36441,1.301015 1.82167,1.368645 1.00755,0.03118 2.0497,0.31062 2.31598,0.621001 0.40304,0.469797 1.31187,0.83111 2.66277,1.058605 0.13314,0.02244 -0.19366,-0.296485 -0.72621,-0.708673 z m -23.48911,-4.715102 1.55524,-0.653933 -2.274,-0.311684 c -1.71526,-0.235098 -2.76773,-0.08445 -4.28348,0.613139 l -2.00947,0.924819 2.72823,0.04082 c 1.50054,0.02242 3.42809,-0.253477 4.28348,-0.613135 z M 487.68972,239.27621 c -0.26275,-0.68999 -0.20712,-0.7456 0.27102,-0.27102 0.33086,0.32841 0.47963,0.71906 0.33057,0.86812 -0.14907,0.14907 -0.4198,-0.11963 -0.60159,-0.5971 z m 10.37787,0.31365 c 0,-0.28199 0.21786,-0.37806 0.48414,-0.21349 0.26628,0.16456 0.48414,0.39528 0.48414,0.51271 0,0.11742 -0.21786,0.2135 -0.48414,0.2135 -0.26628,0 -0.48414,-0.23073 -0.48414,-0.51272 z m -5.142,-21.84655 c -0.21869,-0.35056 -0.45732,-1.0731 -0.53028,-1.60566 -0.073,-0.53256 -0.49373,-2.33305 -0.93502,-4.00111 -0.44124,-1.66806 -0.69623,-3.13884 -0.56668,-3.26842 0.1296,-0.12958 0.80454,1.88246 1.49986,4.47119 1.22182,4.54871 1.36581,5.74057 0.53212,4.404 z m -3.01193,-8.62569 c 0,-0.6657 0.1099,-0.93802 0.2442,-0.60518 0.1343,0.33285 0.1343,0.87751 0,1.21035 -0.1343,0.33285 -0.2442,0.0605 -0.2442,-0.60517 z m 0.20154,-9.52169 c -0.17037,-0.44394 -0.0847,-1.03217 0.19027,-1.30717 0.34393,-0.34392 0.50002,-0.092 0.50002,0.80716 0,1.4935 -0.24182,1.66867 -0.69029,0.50001 z m 0.20615,-4.06281 c 0,-0.28198 -0.19501,-0.39217 -0.4334,-0.24484 -0.44793,0.27681 -1.04487,-0.82852 -0.98498,-1.82378 0.0189,-0.31106 0.22125,-0.12984 0.45011,0.40271 0.22885,0.53255 0.43141,0.69595 0.4501,0.36311 0.0609,-1.08211 0.88312,-0.63812 1.12083,0.60517 0.12724,0.66569 0.0436,1.21035 -0.18566,1.21035 -0.22934,0 -0.417,-0.23072 -0.417,-0.51272 z m -318.80612,-3.57783 c 1.47221,-1.24696 2.485,-1.63826 1.93442,-0.74741 -0.16573,0.26818 -0.99557,0.82284 -1.84409,1.23259 l -1.54276,0.745 z m 312.99644,-6.86187 c 0,-0.64334 0.13145,-0.67642 0.72621,-0.1828 0.39942,0.33148 0.72621,0.68496 0.72621,0.78549 0,0.10051 -0.32679,0.18279 -0.72621,0.18279 -0.39941,0 -0.72621,-0.35347 -0.72621,-0.78548 z m 1.28036,-2.72453 c -0.47572,-0.8654 -0.5556,-1.19558 -0.17754,-0.73373 0.37807,0.46183 0.82929,0.69785 1.00266,0.52448 0.17337,-0.17338 0.31523,0.1568 0.31523,0.73373 0,1.38777 -0.11929,1.33291 -1.14035,-0.52448 z m -3.49346,-0.57011 c -0.16223,-0.6464 -0.0641,-1.57232 0.21815,-2.0576 0.42025,-0.7226 0.51577,-0.50988 0.52782,1.17529 0.0164,2.29311 -0.29843,2.66546 -0.74597,0.88231 z m 1.54669,-1.99035 c -0.46715,-1.21746 -0.32937,-1.5316 0.24139,-0.55015 0.28259,0.48596 0.41181,0.98555 0.28714,1.1102 -0.12466,0.12465 -0.36247,-0.12737 -0.52853,-0.56005 z m -0.26367,-3.89474 c 0.0233,-0.564 0.13798,-0.67872 0.29252,-0.29251 0.13987,0.3495 0.12268,0.76707 -0.0382,0.92795 -0.16088,0.16087 -0.27533,-0.12508 -0.25432,-0.63544 z m -5.08656,-6.2679 c -0.45229,-0.69023 -0.73479,-1.51402 -0.62778,-1.83062 0.10699,-0.31661 0.57248,0.15264 1.03446,1.04279 1.02187,1.96891 0.73332,2.52777 -0.40668,0.78783 z m 2.41673,-0.0858 c -0.26275,-0.69001 -0.20712,-0.7456 0.27101,-0.27103 0.33087,0.32842 0.47965,0.71907 0.33057,0.86813 -0.14906,0.14906 -0.4198,-0.11964 -0.60158,-0.5971 z m -1.38266,-3.12281 c -0.18634,-0.70753 -0.46255,-1.68791 -0.61379,-2.17864 -0.1512,-0.49072 0.0792,-0.28051 0.51217,0.46713 0.43297,0.74765 0.70917,1.72803 0.61379,2.17863 -0.12166,0.57507 -0.27431,0.43584 -0.51217,-0.46712 z m 2.07773,0.94867 c 0,-0.0841 -0.2105,-0.91388 -0.46777,-1.84409 l -0.46778,-1.6913 0.95192,1.14295 c 1.06699,1.28111 1.1767,1.80789 0.46777,2.24604 -0.26628,0.16456 -0.48414,0.23045 -0.48414,0.1464 z M 96.247861,163.24533 c 0.01749,-0.38644 6.854209,-4.4783 7.482439,-4.4783 0.2044,0 -1.29702,1.08931 -3.33651,2.4207 -3.830606,2.50065 -4.173639,2.67089 -4.145929,2.0576 z m 379.584459,-2.36496 c -0.55187,-0.7016 -1.00342,-1.60682 -1.00342,-2.01159 0,-0.60062 0.19099,-0.56636 1.03872,0.18632 1.03119,0.9156 1.03468,0.91463 0.48412,-0.1352 -0.79335,-1.51277 -0.68673,-1.73747 0.33803,-0.71265 0.49096,0.49094 1.0209,1.63472 1.17761,2.54173 0.15673,0.90701 0.1726,1.37678 0.0354,1.04392 -0.1373,-0.33284 -0.4622,-0.60517 -0.72204,-0.60517 -0.25979,0 -0.33769,0.21787 -0.17313,0.48414 0.61272,0.99139 -0.20712,0.43925 -1.17518,-0.7915 z m -373.55733,-2.58419 c 0.12935,-0.20931 0.67462,-0.49546 1.21169,-0.63591 0.53708,-0.14045 0.87066,-0.0841 0.7413,0.12519 -0.12935,0.20931 -0.67462,0.49547 -1.21169,0.63591 -0.53707,0.14045 -0.87065,0.0841 -0.7413,-0.12519 z m 8.48066,0.24581 c 0,-0.12377 0.49019,-0.48623 1.08932,-0.80547 0.98775,-0.52632 1.02737,-0.50533 0.42486,0.22504 -0.61864,0.74994 -1.51418,1.09323 -1.51418,0.58043 z m 2.10466,-2.41987 c 0.49186,-0.37266 1.23846,-0.5455 1.65909,-0.38409 0.65075,0.24971 0.62567,0.34798 -0.16809,0.65893 -0.51309,0.201 -1.25968,0.37384 -1.6591,0.38409 -0.5605,0.0143 -0.52216,-0.13596 0.1681,-0.65893 z m 3.9278,-0.0636 c 1.0268,-0.75081 2.40743,-0.92697 1.99157,-0.25412 -0.14491,0.23448 -0.86168,0.54068 -1.59282,0.68045 -1.24253,0.23753 -1.26857,0.2097 -0.39875,-0.42633 z m 0.6164,-1.22467 c 0.32841,-0.33087 0.71906,-0.47962 0.86813,-0.33055 0.14906,0.14905 -0.11964,0.41976 -0.59711,0.60157 -0.69,0.26274 -0.74561,0.20713 -0.27102,-0.27102 z m 354.80233,-5.57601 c -0.25495,-0.66447 -0.18411,-0.69442 0.43234,-0.18279 0.84012,0.69723 0.92751,0.97748 0.30496,0.97748 -0.23776,0 -0.56954,-0.35761 -0.7373,-0.79469 z M 126.0718,147.38651 c -0.18676,-0.48668 -0.11818,-1.10624 0.15239,-1.3768 0.73997,-0.73997 1.06679,-0.1162 0.60009,1.14539 -0.37442,1.01216 -0.44459,1.03374 -0.75248,0.23141 z m 3.00686,-3.16704 c 0.10625,-1.51812 -0.027,-2.39731 -0.3631,-2.39731 -0.29198,0 -0.52952,-0.49019 -0.52788,-1.08931 0.003,-0.99799 0.0636,-0.97305 0.72621,0.29741 0.39777,0.76271 0.72322,1.70147 0.72322,2.08616 0,0.38469 0.21951,0.56378 0.48781,0.39797 0.27983,-0.17295 0.24063,0.27932 -0.092,1.06074 -0.95062,2.23358 -1.1308,2.16643 -0.95431,-0.35566 z m 340.90884,0.47896 c 0,-0.282 0.21786,-0.37806 0.48414,-0.21349 0.26628,0.16456 0.48413,0.39528 0.48413,0.5127 0,0.11743 -0.21785,0.21351 -0.48413,0.21351 -0.26628,0 -0.48414,-0.23073 -0.48414,-0.51272 z m -324.94868,-0.78628 c 0.34949,-0.13986 0.76707,-0.12267 0.92793,0.0381 0.16088,0.16087 -0.12506,0.2753 -0.63543,0.25428 -0.56399,-0.0233 -0.67871,-0.13796 -0.2925,-0.2925 z m -6.55694,-0.48893 c 0.47106,-0.12275 1.12464,-0.11467 1.45243,0.018 0.32778,0.13261 -0.0576,0.23304 -0.85647,0.22318 -0.79883,-0.009 -1.06701,-0.11837 -0.59596,-0.24113 z m 326.9332,-2.08519 -0.85537,-1.69449 1.07657,1.03887 c 0.59211,0.57139 0.97705,1.33391 0.85538,1.6945 -0.13347,0.39569 -0.56029,-0.0161 -1.07658,-1.03888 z M 130.9594,140.89269 c -0.21058,-0.80529 -0.14758,-0.99432 0.21169,-0.63505 0.28133,0.28133 0.41626,0.7973 0.29983,1.14658 -0.12086,0.36258 -0.34032,0.14313 -0.51152,-0.51153 z m 18.52746,0.55426 c 0,-0.48069 2.48441,-1.16793 2.86449,-0.79239 0.32177,0.31794 -0.10755,0.58063 -1.5341,0.93866 -0.7813,0.1961 -1.33039,0.13573 -1.33039,-0.14627 z m 19.3972,-3.29392 c 0.3141,-0.37847 0.88407,-0.68813 1.26659,-0.68813 0.97389,0 0.3769,0.79713 -0.83418,1.11383 -0.82393,0.21546 -0.90131,0.13929 -0.43241,-0.4257 z m -39.69706,-1.2933 c -0.0187,-0.73227 0.18384,-1.33139 0.45011,-1.33139 0.56825,0 0.56825,0.37212 0,1.69449 -0.36869,0.85802 -0.41995,0.81667 -0.45011,-0.3631 z m 335.95909,-0.87582 c 0,-0.28199 0.21787,-0.37807 0.48414,-0.21349 0.26628,0.16456 0.48415,0.39529 0.48415,0.51271 0,0.11742 -0.21787,0.2135 -0.48415,0.2135 -0.26627,0 -0.48414,-0.23072 -0.48414,-0.51272 z m -338.39843,-2.9577 c -0.0217,-1.13913 0.49373,-2.33926 1.00469,-2.33926 0.66118,0 0.51508,1.15796 -0.27847,2.20712 -0.61316,0.81068 -0.71293,0.82883 -0.72622,0.13214 z m 129.28821,-5.52651 c 0.0232,-0.56401 0.13795,-0.67873 0.29249,-0.29251 0.13986,0.34948 0.12266,0.76706 -0.0381,0.92793 -0.16087,0.16088 -0.27529,-0.12507 -0.25427,-0.63542 z m 200.3957,-3.34865 c -0.33618,-0.40509 -0.38861,-0.72621 -0.11856,-0.72621 0.26628,0 0.75535,0.3268 1.08685,0.72621 0.33623,0.4051 0.38866,0.72622 0.11856,0.72622 -0.26628,0 -0.75535,-0.3268 -1.08685,-0.72622 z M 253.77081,109.78276 c 0.16061,-1.41713 0.2597,-3.12126 0.22021,-3.78695 -0.0658,-1.11065 -0.0635,-3.41542 0.0111,-10.651083 0.0321,-3.118052 0.92858,-7.232538 1.7561,-8.060065 0.31896,-0.318956 0.71419,-1.71356 0.87829,-3.09912 0.1641,-1.385565 0.59911,-2.981842 0.9667,-3.547284 0.3676,-0.565447 0.93489,-2.226327 1.26066,-3.690851 0.74213,-3.336247 1.3699,-4.732419 2.87947,-6.403922 0.6559,-0.726249 1.22492,-1.706632 1.2645,-2.17863 0.0983,-1.172229 2.13798,-6.507746 2.78652,-7.289182 0.28898,-0.348198 0.79601,-0.529252 1.12672,-0.402345 0.85045,0.326349 1.26281,-0.229908 0.68582,-0.925143 -0.33805,-0.407317 -0.24046,-0.789196 0.32067,-1.254895 0.44363,-0.368174 0.82758,-0.580479 0.85321,-0.47179 0.11914,0.504953 3.61527,-0.547001 3.84988,-1.158396 0.14613,-0.380801 1.15558,-1.254132 2.24323,-1.940734 1.14342,-0.721809 1.83853,-1.473281 1.64799,-1.781596 -0.36406,-0.589044 0.70904,-1.554002 4.54396,-4.086045 1.40558,-0.928062 2.45688,-1.847138 2.3362,-2.042402 -0.12068,-0.195264 0.58113,-0.887153 1.55957,-1.537531 0.97844,-0.650383 2.62013,-1.883144 3.64818,-2.739476 1.83683,-1.530008 4.99209,-3.016603 4.41263,-2.079003 -0.46458,0.751695 0.56411,0.531648 1.22234,-0.261475 0.33149,-0.399415 0.90282,-0.726209 1.26963,-0.726209 0.37688,0 0.66693,-0.493756 0.66693,-1.135313 0,-1.350557 1.51262,-2.870098 2.48543,-2.496797 0.3789,0.145396 1.93545,-0.146879 3.45897,-0.649503 1.5236,-0.502623 2.77011,-0.755473 2.77011,-0.56189 0,0.416604 2.25362,0.108809 3.63105,-0.495929 1.64689,-0.723014 12.41984,-1.446143 14.48208,-0.972099 1.87164,0.430229 6.93574,0.263346 8.69626,-0.286577 0.59482,-0.185802 0.79288,-0.09759 0.57449,0.25584 -0.47731,0.77227 0.93376,1.182788 2.03667,0.592529 0.65606,-0.351103 1.09431,-0.336404 1.48036,0.04965 0.44212,0.442098 5.54863,0.652455 7.2253,0.297636 0.19962,-0.04225 0.68972,0.04734 1.08913,0.199078 2.11922,0.805074 3.06484,0.75583 3.83875,-0.199902 0.7279,-0.898911 0.86085,-0.918596 1.44553,-0.214038 0.5375,0.647595 0.53407,0.782726 -0.0203,0.817091 -1.01926,0.06316 4.22176,1.39431 8.29216,2.106093 2.21876,0.387984 5.03443,1.344602 7.2392,2.459475 2.01557,1.019216 3.68222,1.602232 3.776,1.320893 0.11354,-0.34064 1.01737,-0.306155 2.79281,0.106559 1.44371,0.335601 2.72619,0.508914 2.84999,0.385144 0.33846,-0.338444 6.22033,1.709507 7.51564,2.616805 0.62188,0.435575 2.13651,1.325028 3.36584,1.976557 1.22933,0.651536 2.39983,1.473268 2.60109,1.826079 0.2013,0.352808 1.07276,0.783692 1.93656,0.957518 3.06954,0.61768 3.45395,0.795166 2.72386,1.257554 -0.36804,0.233089 -0.45126,0.443806 -0.18499,0.468255 1.40372,0.128893 2.35477,0.439662 2.61431,0.85425 0.28928,0.462156 8.05875,4.057868 10.05187,4.652019 1.4238,0.42444 4.568,2.970048 4.16553,3.372514 -0.49358,0.493552 1.85179,2.462825 3.70077,3.107389 2.06447,0.719685 2.00962,0.728099 1.63407,-0.250484 -0.26148,-0.681485 -0.065,-0.643897 1.14751,0.21947 0.80469,0.572985 1.74682,1.383678 2.09362,1.801534 0.36862,0.444198 1.05455,0.656517 1.65149,0.511208 0.56151,-0.136693 0.72733,-0.116358 0.36848,0.04517 -0.46444,0.209051 -0.26381,0.548695 0.696,1.178314 0.74165,0.486532 1.50262,0.789322 1.69105,0.672878 0.18843,-0.116451 0.47683,0.138076 0.64085,0.565606 0.22862,0.595753 0.0991,0.695162 -0.55444,0.425563 -0.46898,-0.193477 -1.54362,-0.51772 -2.38811,-0.720545 -1.20595,-0.289642 -1.48049,-0.225726 -1.27958,0.297867 0.4197,1.093721 -0.56431,0.757732 -1.82099,-0.621776 -0.64556,-0.708631 -0.90138,-1.131498 -0.56853,-0.939706 0.33285,0.191787 0.60517,0.232513 0.60517,0.09051 0,-0.563927 -2.94449,-1.735497 -4.36181,-1.735497 -1.61247,0 -1.57611,0.606487 0.09,1.498118 0.80304,0.429776 0.92635,0.406474 0.62686,-0.11843 -0.20508,-0.359411 0.29145,1.1e-4 1.1034,0.798942 0.81201,0.798831 2.31511,1.888146 3.34033,2.420699 1.02521,0.532555 2.24835,1.314136 2.71811,1.736843 0.80159,0.721344 0.74213,0.801257 -0.96828,1.300632 -1.00231,0.292638 -2.47594,0.425022 -3.27477,0.294188 -1.44559,-0.236764 -1.44705,-0.234691 -0.30632,0.441294 1.06767,0.632684 1.08424,0.704346 0.24207,1.046812 -0.87503,0.355838 -0.87412,0.378782 0.0285,0.715147 0.83379,0.310586 0.84661,0.380621 0.12104,0.65905 -0.44648,0.171356 -0.81181,0.107363 -0.81181,-0.142201 0,-0.249565 -0.31668,-0.332227 -0.70374,-0.183693 -0.38707,0.14853 -1.20406,-0.09509 -1.81553,-0.54138 -1.10558,-0.80693 -1.10262,-0.809555 0.5344,-0.472889 1.48064,0.30451 1.60661,0.2479 1.25329,-0.563131 -0.21603,-0.495925 -0.37952,-1.411574 -0.36325,-2.034777 0.0237,-0.903207 -0.16833,-1.081342 -0.94596,-0.877984 -0.53658,0.140319 -1.33178,0.05737 -1.76706,-0.184335 -0.43529,-0.241698 -3.73262,-0.885739 -7.32737,-1.431196 -3.59473,-0.545462 -7.24394,-1.120639 -8.10934,-1.278178 -1.00308,-0.182608 -1.57345,-0.09141 -1.57345,0.251583 0,0.295911 0.30012,0.538021 0.66695,0.538021 0.36678,0 0.95075,0.342015 1.29768,0.760031 0.53644,0.646332 0.36732,0.634398 -1.13032,-0.07978 -0.96862,-0.461899 -1.65832,-1.006086 -1.53274,-1.209314 0.58465,-0.946029 -7.38933,-1.891637 -15.95154,-1.891637 -6.9932,0 -10.74722,-0.634194 -13.25933,-2.240019 -0.60663,-0.387786 -1.34838,-0.553415 -1.64825,-0.368066 -0.31179,0.192687 -0.41186,0.121136 -0.23375,-0.167092 0.17134,-0.277252 -0.0126,-0.773312 -0.40933,-1.102367 -0.62692,-0.52031 -0.72089,-0.148912 -0.72089,2.849987 v 3.448258 h -2.66277 c -1.95322,0 -2.66278,0.179703 -2.66278,0.674411 0,0.918234 -1.08108,1.262148 -3.96757,1.262148 -1.33976,0 -6.89386,0.895407 -12.34241,1.989792 l -9.90653,1.98979 -2.66936,-1.021511 c -1.46814,-0.56183 -3.08154,-1.021511 -3.58534,-1.021511 -0.56998,0 -1.02919,-0.451102 -1.21573,-1.194204 -0.16484,-0.656813 -0.53226,-1.147005 -0.81654,-1.089315 -0.28424,0.0577 -1.29218,-0.923608 -2.23988,-2.180663 -1.35026,-1.791085 -1.81044,-2.129378 -2.12702,-1.563685 -0.22217,0.397029 -0.27063,1.142052 -0.10762,1.655614 0.1939,0.610912 -0.0784,1.308465 -0.78745,2.017565 -0.59613,0.596103 -0.85331,1.160663 -0.57153,1.254587 0.35443,0.118149 0.32583,1.163044 -0.0929,3.391404 -0.52025,2.768594 -0.87842,3.475506 -2.55185,5.036436 -2.08378,1.943735 -6.53768,3.595083 -8.62185,3.196674 -0.64145,-0.122617 -1.40614,0.07281 -1.70796,0.436463 -0.30055,0.362165 -0.35642,0.666205 -0.12408,0.67564 0.9217,0.03742 -2.07118,1.402075 -3.11015,1.418104 -0.7179,0.01108 -1.40405,0.530686 -1.93656,1.466519 -0.90068,1.582813 -1.67933,1.960447 -1.25415,0.608235 0.15113,-0.48065 -0.18714,-0.271163 -0.78179,0.48414 -0.97321,1.236159 -2.36398,1.931893 -1.69363,0.847245 0.36675,-0.593415 -0.24878,-0.618388 -1.15134,-0.04672 -0.36696,0.23243 -0.53062,0.643596 -0.36368,0.913707 0.40033,0.647745 -2.26876,1.553705 -4.57745,1.553705 -2.23111,0 -4.21304,-0.709114 -5.59216,-2.000818 l -1.03356,-0.968038 -1.12253,1.605461 c -1.90475,2.72419 -5.39278,6.026086 -5.63824,5.337343 -0.17119,-0.48036 -0.38036,-0.494689 -0.902,-0.06174 -0.92533,0.767952 -0.88506,2.080103 0.0528,1.720212 0.65313,-0.250632 0.65313,-0.128508 0,1.134512 -0.40255,0.778446 -0.73192,1.712226 -0.73192,2.075045 0,0.991252 -2.31187,2.962602 -5.56761,4.747562 -1.59766,0.87591 -4.47442,2.63329 -6.3928,3.9053 -1.91837,1.272 -4.39142,2.77364 -5.49565,3.33697 l -2.00769,1.02426 0.29201,-2.57662 z m 107.2852,-49.353288 c 0,-0.169623 -0.3268,-0.579617 -0.72621,-0.911103 -0.39942,-0.331486 -0.72917,-0.412627 -0.73281,-0.180313 -0.005,0.23231 -0.14354,0.933746 -0.31086,1.558747 -0.28341,1.05865 -0.2333,1.092074 0.73284,0.488719 0.57037,-0.35621 1.03704,-0.786432 1.03704,-0.95605 z m 44.92852,-1.009698 c 0.20547,-1.066716 -2.2284,-2.322105 -4.50192,-2.322105 -1.25716,0 -2.06864,-0.352865 -2.91723,-1.26851 -0.86376,-0.931993 -1.7888,-1.32543 -3.48692,-1.483056 -2.13739,-0.198405 -2.24215,-0.158774 -1.39268,0.526793 0.50519,0.407733 1.13739,0.606099 1.40483,0.440809 0.26743,-0.16529 0.72737,0.0292 1.02201,0.432221 0.69005,0.943681 5.5224,3.400303 6.04876,3.075006 0.22072,-0.136407 0.79825,0.190645 1.28345,0.726776 1.01669,1.123452 2.31128,1.058238 2.5397,-0.127934 z M 372.4333,44.510032 c -1.46197,-1.525985 -2.38304,-1.812548 -2.9383,-0.914153 -0.40963,0.662807 0.73425,1.474148 1.74227,1.235758 0.40727,-0.09632 1.01495,0.118711 1.35046,0.477841 0.33546,0.359133 0.75105,0.652972 0.92355,0.652972 0.17245,0 -0.31266,-0.653587 -1.07798,-1.452418 z m -76.7502,-2.885929 c 0.3917,-0.24772 0.59367,-0.568928 0.4488,-0.713791 -0.14486,-0.14487 -0.68321,0.05422 -1.19633,0.442416 -1.02074,0.772242 -0.4005,0.997411 0.74753,0.271375 z m 62.83117,-1.292339 c 0.59912,-0.160556 1.08931,-0.460761 1.08931,-0.667112 0,-0.699073 -2.34595,-0.96886 -3.71848,-0.42763 -1.26791,0.499976 -1.29614,0.566463 -0.3967,0.935044 1.21824,0.499211 1.67003,0.523055 3.02587,0.159698 z M 243.65696,110.82931 c 0.16725,-0.27062 0.5069,-0.3667 0.75478,-0.21349 0.67152,0.41501 0.54631,0.70552 -0.3041,0.70552 -0.41513,0 -0.61793,-0.22141 -0.45068,-0.49203 z m -1.69937,-2.4128 c -0.66569,-0.52071 -1.41235,-0.9516 -1.65923,-0.95752 -0.24689,-0.006 -1.05502,-0.71882 -1.79585,-1.58422 -0.74083,-0.8654 -1.35582,-1.30796 -1.36664,-0.98347 -0.0351,1.05304 -1.59429,0.059 -6.46496,-4.12176 -6.02581,-5.172274 -8.36469,-8.114932 -9.39481,-11.820066 l -0.80073,-2.880085 -0.86749,1.127653 c -0.47711,0.620213 -0.87232,0.922617 -0.87824,0.672015 -0.006,-0.2506 -0.32044,-0.03272 -0.69892,0.484141 -0.56827,0.776062 -1.26408,0.935736 -3.99416,0.916574 -2.76263,-0.01937 -3.92269,-0.312615 -7.05808,-1.784023 -2.06365,-0.968449 -3.75208,-1.992855 -3.75208,-2.27646 0,-0.283604 -0.21729,-0.515643 -0.48285,-0.515643 -1.02483,0 -6.79169,-3.010735 -7.24849,-3.78426 -0.39688,-0.672058 -0.55821,-0.698193 -0.91955,-0.14893 -0.3665,0.557133 -0.81684,0.521544 -2.75192,-0.217476 -4.92516,-1.880932 -6.83159,-5.540445 -6.64756,-12.760361 0.0983,-3.856021 0.0582,-4.035452 -0.72664,-3.250438 -0.63287,0.633032 -0.68743,0.919449 -0.22913,1.202807 0.42747,0.264291 0.0772,0.880253 -1.21034,2.128468 -4.00501,3.882647 -10.05675,5.584219 -16.81375,4.727515 -2.07479,-0.263057 -4.01435,-0.672495 -4.31012,-0.909859 -0.29577,-0.237369 -1.25112,-0.584139 -2.12301,-0.770606 -1.10909,-0.237199 -1.54535,-0.581185 -1.45242,-1.145223 0.0869,-0.527703 -0.20165,-0.806185 -0.83546,-0.806185 -0.53255,0 -0.91381,0.272329 -0.84724,0.605175 0.0716,0.358346 -0.3856,0.605175 -1.12115,0.605175 -0.68319,0 -1.62798,0.206476 -2.09952,0.458839 -0.57587,0.308194 -1.79726,0.212411 -3.72025,-0.291757 -1.5746,-0.412827 -4.37529,-1.005104 -6.22373,-1.316178 -3.19341,-0.537411 -3.38064,-0.642091 -3.7588,-2.101419 -0.38532,-1.487003 -0.44779,-1.518772 -1.96473,-0.999082 -0.86171,0.295219 -2.03481,0.838056 -2.60691,1.206312 -1.41603,0.911486 -6.90429,1.290607 -8.25381,0.570158 -0.81148,-0.433214 -1.74211,-0.434322 -3.926,-0.0048 -1.57433,0.309728 -3.21177,0.429078 -3.63877,0.265227 -0.42699,-0.163853 -1.92823,0.0946 -3.33608,0.574354 -3.24535,1.105892 -2.75507,1.022916 -6.46144,1.093551 -1.9799,0.03772 -3.06282,0.242797 -2.87626,0.544658 0.16806,0.271937 -0.21552,0.48414 -0.87514,0.48414 -0.64591,0 -2.32047,0.476292 -3.72124,1.058432 -2.369155,0.984575 -2.588526,1.001467 -3.143808,0.24207 -0.738936,-1.010371 -1.216409,-1.045758 -1.216409,-0.08997 0,0.928973 -0.646366,0.917542 -2.506423,-0.04435 -1.864176,-0.963986 -8.62879,-1.303813 -8.62879,-0.433456 0,0.76101 -3.778497,1.204129 -9.924871,1.163936 l -4.8414,-0.03166 2.953012,-1.361653 c 1.624154,-0.748906 3.075813,-1.681675 3.225911,-2.072821 0.150098,-0.391147 1.490062,-1.398095 2.977703,-2.237666 1.487641,-0.839576 2.704803,-1.707872 2.704803,-1.929555 0,-0.221682 1.121351,-1.013372 2.491903,-1.759315 1.370541,-0.745944 2.338056,-1.107364 2.150051,-0.803154 -0.188016,0.304208 -0.111124,0.553105 0.170874,0.553105 0.281987,0 0.512716,-0.222536 0.512716,-0.49452 0,-0.271985 0.517415,-0.730272 1.149832,-1.018417 0.758859,-0.345763 1.149831,-0.930745 1.149831,-1.720421 0,-1.469491 0.659842,-2.17819 2.183778,-2.345474 0.639338,-0.07018 2.078216,-0.5948 3.197493,-1.165814 1.119288,-0.571019 2.23041,-0.917489 2.469157,-0.769938 0.238737,0.147552 0.570918,0.04686 0.738178,-0.223759 0.167249,-0.27062 0.726959,-0.492036 1.243799,-0.492036 0.51684,0 0.9397,-0.203184 0.9397,-0.451514 0,-0.248335 0.49019,-0.598591 1.08932,-0.778347 0.59913,-0.179757 3.48581,-1.370441 6.41485,-2.64597 2.92905,-1.27553 6.08487,-2.478884 7.01293,-2.674128 0.92807,-0.195239 2.18079,-0.678266 2.78381,-1.073381 0.60303,-0.395122 1.09641,-0.566106 1.09641,-0.379969 0,0.186138 0.87146,-0.35177 1.93656,-1.19535 1.06511,-0.843578 1.93656,-1.297615 1.93656,-1.008961 0,0.808131 1.51712,0.621418 2.16648,-0.26663 0.31829,-0.4353 1.21507,-0.841518 1.99282,-0.902698 1.09082,-0.08581 4.34739,-1.809755 5.39204,-2.854398 0.0747,-0.07471 -0.95091,-4.241502 -2.27915,-9.259526 -1.32824,-5.018027 -2.34569,-9.192988 -2.26098,-9.277692 0.0847,-0.0847 1.98447,3.713299 4.22171,8.440004 2.23722,4.726708 4.27813,8.743036 4.53533,8.925175 0.6383,0.452007 1.24635,0.01248 0.98197,-0.709775 -0.40684,-1.111449 0.53629,-1.965341 1.53186,-1.38692 0.86984,0.505375 0.86739,0.52779 -0.0633,0.578684 -0.55198,0.03016 -0.7011,0.160264 -0.34683,0.302563 0.3418,0.137286 0.88646,0.03863 1.21035,-0.219219 0.3239,-0.257863 1.67821,-0.619897 3.0096,-0.804514 1.33138,-0.184623 3.76503,-0.865697 5.40811,-1.513495 2.28744,-0.901845 3.89829,-1.177816 6.87495,-1.177816 2.7623,0 3.99957,-0.190317 4.27468,-0.657533 0.21294,-0.361643 1.53161,-0.928192 2.93038,-1.258996 1.39878,-0.330805 2.65378,-0.780341 2.7889,-0.998968 0.48516,-0.784988 6.35017,-1.030112 10.6445,-0.444878 2.39649,0.326597 5.55551,0.651901 7.02003,0.722898 1.46452,0.07099 3.05689,0.148815 3.53859,0.172931 0.51101,0.02558 0.73783,0.267109 0.54454,0.579854 -0.22402,0.362462 0.009,0.427888 0.72087,0.202072 0.57868,-0.183666 1.31401,-0.121453 1.63409,0.138251 0.32006,0.259702 1.56232,0.575835 2.76056,0.702518 4.76839,0.504129 10.22544,1.817659 12.43241,2.992522 1.27939,0.681068 2.02889,1.238309 1.66555,1.238309 -0.53231,0 -0.54355,0.141035 -0.0579,0.72621 0.33148,0.399415 0.90281,0.72621 1.26962,0.72621 0.36682,0 0.66694,0.196551 0.66694,0.436776 0,0.42174 2.54185,1.499784 3.53626,1.499784 0.2678,0 0.10314,-0.424083 -0.36594,-0.942408 -0.84317,-0.931688 -0.83327,-0.93241 0.87107,-0.06349 0.94817,0.483404 2.29794,1.561081 2.9995,2.394833 1.1673,1.387249 2.61842,2.168811 1.91569,1.03177 -0.16457,-0.266277 -0.0939,-0.484141 0.15703,-0.484141 0.25094,0 0.57443,0.451897 0.71886,1.004209 0.14444,0.552316 0.67083,1.110965 1.16976,1.241441 0.49895,0.130476 1.17055,0.658961 1.49246,1.174415 0.60361,0.966537 0.1573,1.291226 -0.65747,0.478307 -0.25296,-0.252387 -1.27012,-0.797123 -2.26034,-1.210525 -1.58206,-0.660487 -1.76659,-0.66355 -1.52166,-0.02528 0.43993,1.146404 -0.51309,0.848518 -1.79805,-0.562027 -0.64554,-0.708631 -0.86772,-1.110695 -0.49373,-0.893476 0.47841,0.277868 0.56853,0.214605 0.304,-0.213403 -0.5206,-0.842331 -3.34269,-1.961948 -4.94529,-1.961948 -1.20712,0 -1.25974,0.06991 -0.57108,0.75857 0.67067,0.670664 1.60441,1.021158 3.03962,1.140948 0.24409,0.02039 0.29951,0.181334 0.12315,0.357692 -0.29192,0.291917 4.08681,3.552467 4.77076,3.552467 0.16083,0 0.81875,0.625504 1.46204,1.390005 0.64329,0.764505 1.86251,1.528589 2.7094,1.697965 0.84687,0.169377 1.84388,0.742119 2.21556,1.272766 0.88563,1.264419 1.79588,1.28742 1.12204,0.02837 -0.70209,-1.311868 -0.67547,-1.342127 0.96855,-1.100836 1.04581,0.153491 1.69195,0.652954 2.24023,1.731672 l 0.77051,1.515968 -1.25714,-1.159792 -1.25713,-1.159791 -0.48697,1.280826 c -0.26784,0.704453 -0.7647,1.288073 -1.10414,1.296933 -0.3747,0.0098 -0.23675,0.351912 0.35113,0.870891 0.53255,0.470128 1.18615,1.201814 1.45242,1.62597 0.26627,0.424154 1.71175,2.592143 3.21215,4.817754 1.50041,2.22561 3.4288,5.40821 4.28529,7.072442 0.85651,1.664231 1.77973,3.025875 2.05164,3.025875 0.3085,0 0.28692,-0.249943 -0.0574,-0.664846 -0.30513,-0.367661 -0.39523,-1.070994 -0.20157,-1.573455 0.28275,-0.733578 0.41703,-0.583228 0.69707,0.780482 0.19077,0.929002 0.15664,1.806656 -0.0759,1.950344 -0.23249,0.143683 0.45181,2.433674 1.52069,5.088868 2.74537,6.819765 4.58866,13.247189 6.51056,22.701737 0.91581,4.50522 1.6651,8.41305 1.6651,8.68406 0,0.27101 -0.65358,-0.13343 -1.45241,-0.89876 l -1.45242,-1.39151 v 1.30093 c 0,1.54141 -0.3208,1.59651 -1.93656,0.33265 z M 90.905921,63.149419 c 0.336195,-0.4051 0.388623,-0.726211 0.118562,-0.726211 -0.266277,0 -0.755361,0.326795 -1.086847,0.726211 -0.336195,0.405099 -0.388622,0.726209 -0.118562,0.726209 0.266278,0 0.755362,-0.326794 1.086847,-0.726209 z m 61.001639,-25.24493 1.21034,-1.164148 -1.69448,0.320249 c -1.69727,0.320776 -3.38899,1.423047 -3.38899,2.208163 0,0.754163 2.63597,-0.174325 3.87313,-1.364264 z m 52.1389,0.967922 c 0.51989,-1.354831 -1.20325,-2.108618 -4.8203,-2.108618 -2.40118,0 -3.54622,-0.21519 -4.10191,-0.770877 -0.52342,-0.523424 -1.2311,-0.678835 -2.20456,-0.484141 -0.78853,0.157705 -1.85505,0.286737 -2.37003,0.286737 -0.54208,0 -0.80145,0.218237 -0.61601,0.518302 0.19926,0.322394 1.05669,0.393891 2.26848,0.189163 1.37341,-0.232039 1.85022,-0.170703 1.61623,0.207909 -0.18255,0.295373 -0.15566,0.544807 0.0597,0.554292 0.21543,0.0095 1.64523,0.316821 3.17734,0.682971 1.94505,0.464832 2.68331,0.500141 2.44651,0.116998 -0.18652,-0.301803 0.41177,-0.06815 1.32954,0.51922 2.00057,1.280376 2.80644,1.352576 3.21495,0.288044 z m -37.76078,-2.682339 c 0.90108,0.03389 1.52285,-0.125276 1.3817,-0.353669 -0.40768,-0.659622 -3.73055,-1.128601 -4.25817,-0.600982 -0.6045,0.604502 0.007,1.653435 0.71137,1.218614 0.28971,-0.179054 1.26401,-0.297837 2.1651,-0.263963 z m 80.30236,61.233125 c -0.26273,-0.689996 -0.20712,-0.745595 0.27103,-0.27102 0.33086,0.328409 0.47962,0.719065 0.33056,0.86813 -0.14907,0.149064 -0.41978,-0.119637 -0.60159,-0.59711 z m -0.81785,-3.288821 c -0.0333,-0.133133 -0.093,-0.405469 -0.13269,-0.60517 -0.0397,-0.199711 -0.36932,-1.404204 -0.7325,-2.676664 -0.99787,-3.496169 -0.37581,-3.187665 0.78756,0.390592 0.5603,1.72332 0.82059,3.133308 0.57844,3.133308 -0.24216,0 -0.46753,-0.108932 -0.50081,-0.242066 z M 424.69402,83.644835 c -2.11569,-4.55565 -3.92957,-8.501653 -4.03085,-8.768893 -0.17395,-0.458887 0.18175,-0.411747 3.17722,0.42108 0.89057,0.247609 1.01475,0.134016 0.79055,-0.723275 -0.15958,-0.610167 -0.87271,-1.192883 -1.78275,-1.456642 l -1.51676,-0.439628 1.33139,-0.04367 c 1.56226,-0.05124 1.75703,-1.070453 0.45368,-2.373807 -0.67857,-0.67858 -0.74553,-1.001226 -0.29499,-1.422069 0.43689,-0.40813 0.98654,-0.246437 2.19635,0.646147 0.88748,0.654776 2.49081,1.437577 3.56294,1.73956 1.71637,0.483447 1.8146,0.583703 0.82211,0.838942 -1.01548,0.261159 -0.71536,0.621045 3.02942,3.632782 2.28615,1.838599 4.08231,3.4172 3.99149,3.508001 -0.0908,0.0908 -2.61949,-0.612112 -5.61937,-1.562029 -2.99988,-0.949917 -5.50758,-1.658049 -5.57274,-1.57363 -0.0651,0.08441 0.70317,3.637019 1.70742,7.894678 1.00424,4.257651 1.77543,7.791648 1.71375,7.853315 -0.0616,0.06164 -1.84316,-3.615217 -3.95886,-8.170868 z M 245.08459,82.724877 c -0.17551,-0.283992 -0.21529,-0.620184 -0.0884,-0.747091 0.12691,-0.126907 0.35974,0.105451 0.51743,0.51635 0.32736,0.853107 0.0484,1.003167 -0.42905,0.230741 z m -1.45858,-0.494113 c -0.17892,-0.289482 -0.0828,-0.768781 0.21349,-1.065109 0.39563,-0.395619 0.53879,-0.255765 0.53879,0.526324 0,1.168961 -0.25149,1.34908 -0.75228,0.538785 z m 0.26814,-3.375371 c 0,-0.281991 -0.27233,-0.349103 -0.60518,-0.149134 -0.41622,0.250058 -0.39909,0.109478 0.0549,-0.450236 0.36302,-0.447597 0.85321,-0.694426 1.08931,-0.548501 0.58702,0.362794 0.54415,1.660585 -0.0549,1.660585 -0.26628,0 -0.48414,-0.230722 -0.48414,-0.512714 z m 159.28203,-4.971048 c 0,-0.443006 0.46599,-0.573966 1.50146,-0.42199 1.06506,0.156314 1.31135,0.340878 0.84725,0.63495 -0.99602,0.631168 -2.34871,0.50852 -2.34871,-0.21296 z M 238.5686,72.77294 c 0,-0.643326 0.13145,-0.676407 0.72622,-0.182792 0.39941,0.331485 0.72621,0.684956 0.72621,0.785488 0,0.100535 -0.3268,0.182791 -0.72621,0.182791 -0.39942,0 -0.72622,-0.35347 -0.72622,-0.785487 z m 169.63925,-0.46446 c 0.16166,-0.421192 0.29387,-0.856918 0.29387,-0.96828 0,-0.111356 0.43572,-0.202472 0.96828,-0.202472 1.03606,0 1.37849,0.945216 0.3631,1.00231 -0.33284,0.01869 -0.16944,0.221261 0.36311,0.45011 0.80319,0.345139 0.69116,0.421885 -0.65698,0.45011 -1.29037,0.02701 -1.56469,-0.123746 -1.33138,-0.731778 z m -4.54753,-0.202473 c -0.59825,-0.386629 -0.5556,-0.462115 0.24207,-0.428467 0.53255,0.02246 1.51294,0.215277 2.17863,0.428467 1.1861,0.379853 1.18125,0.388441 -0.24208,0.428469 -0.79882,0.02246 -1.77921,-0.170344 -2.17862,-0.428469 z m -5.56761,-0.484139 c -0.16455,-0.266277 -0.0685,-0.48414 0.21351,-0.48414 0.28201,0 0.5127,0.217863 0.5127,0.48414 0,0.266277 -0.0961,0.484139 -0.21345,0.484139 -0.11746,0 -0.34815,-0.217862 -0.51276,-0.484139 z M 239.81354,70.861076 c -0.92804,-0.928048 -1.01268,-1.503371 -0.11107,-0.755109 0.35734,0.29657 0.79307,0.395867 0.96828,0.220662 0.1752,-0.17521 0.31856,0.04454 0.31856,0.488337 0,1.002504 -0.21111,1.010778 -1.17577,0.0461 z m 153.0004,0.352304 c -0.2564,-0.41488 3.12372,-1.665907 3.49578,-1.29384 0.11149,0.111531 -0.36761,0.345937 -1.06472,0.520901 -0.69712,0.174963 -1.26748,0.51236 -1.26748,0.749772 0,0.547515 -0.82933,0.564024 -1.16358,0.02319 z m -7.793,-0.559792 c -0.16457,-0.266277 0.16223,-0.48414 0.7262,-0.48414 0.56402,0 0.89082,0.217863 0.72621,0.48414 -0.16456,0.266277 -0.49136,0.48414 -0.72621,0.48414 -0.2348,0 -0.5616,-0.217863 -0.7262,-0.48414 z M 237.67017,68.838063 c -0.5283,-1.234576 -0.51634,-1.263053 0.16437,-0.391606 0.40374,0.516877 0.73406,1.116 0.73406,1.331385 0,0.735849 -0.32839,0.392328 -0.89843,-0.939779 z m 144.11308,1.000665 c 0.3495,-0.139854 0.76706,-0.122658 0.92795,0.03819 0.16088,0.160875 -0.12505,0.275301 -0.63544,0.254279 -0.56397,-0.02324 -0.67871,-0.137951 -0.29251,-0.292498 z m 20.66672,-0.15342 c 0.1646,-0.266277 0.60033,-0.484139 0.96828,-0.484139 0.368,0 0.80373,0.217862 0.96828,0.484139 0.17037,0.275669 -0.24658,0.48414 -0.96828,0.48414 -0.72171,0 -1.13865,-0.208471 -0.96828,-0.48414 z M 382.8423,69.201169 c -0.62584,-0.404451 -0.61306,-0.470339 0.0925,-0.476729 0.4503,-0.0039 0.95331,0.210451 1.11787,0.476729 0.3787,0.612726 -0.26221,0.612726 -1.21035,0 z m 9.19866,-0.484141 c 0,-0.266277 0.21787,-0.48414 0.48414,-0.48414 0.26627,0 0.48414,0.217863 0.48414,0.48414 0,0.266277 -0.21787,0.484141 -0.48414,0.484141 -0.26627,0 -0.48414,-0.217864 -0.48414,-0.484141 z m 28.28685,-0.231675 c -0.81907,-0.619685 -0.83302,-0.707687 -0.11426,-0.721209 0.45029,-0.0084 0.96227,0.216963 1.13782,0.500954 0.52738,0.853335 -0.0285,0.972976 -1.02356,0.220255 z m -49.10486,-0.744027 c 0,-0.265193 1.43213,-0.476718 3.22761,-0.476718 1.77519,0 3.13684,0.07844 3.02587,0.17431 -0.52974,0.457764 -6.25348,0.734552 -6.25348,0.302408 z m -133.5844,-1.243271 c 0.0232,-0.563999 0.13795,-0.678716 0.2925,-0.292503 0.13985,0.349486 0.12266,0.767057 -0.0382,0.927937 -0.16087,0.160874 -0.2753,-0.125073 -0.25427,-0.635434 z m 139.15201,-0.201726 c 0.1646,-0.266278 0.39529,-0.484141 0.51274,-0.484141 0.11741,0 0.21347,0.217863 0.21347,0.484141 0,0.266276 -0.2307,0.484139 -0.51271,0.484139 -0.28197,0 -0.37807,-0.217863 -0.2135,-0.484139 z m -144.193,-2.743462 c -0.17753,-0.177515 -0.32277,-0.639916 -0.32277,-1.027558 0,-0.571595 0.13725,-0.590893 0.72621,-0.102105 0.39941,0.331487 0.72621,0.793889 0.72621,1.027559 0,0.501336 -0.66988,0.561882 -1.12965,0.102104 z m 1.99311,-1.492763 c -0.40647,-0.465985 -1.02056,-1.391903 -1.36465,-2.057595 -0.5721,-1.106807 -0.55671,-1.153507 0.17985,-0.545897 0.44302,0.365453 0.80548,0.892958 0.80548,1.172228 0,0.279277 0.36056,0.90619 0.80125,1.393142 0.44068,0.486953 0.69231,0.885367 0.55917,0.885367 -0.13313,0 -0.57464,-0.38126 -0.9811,-0.847245 z m 0.29772,-2.66277 -0.80023,-1.573455 1.25702,1.15969 c 0.69137,0.637829 1.14195,1.345884 1.00131,1.573455 -0.41073,0.664564 -0.61153,0.50486 -1.4581,-1.15969 z m 175.79196,0.605175 c -0.16456,-0.266277 0.0276,-0.48414 0.42701,-0.48414 0.39942,0 0.86085,0.217863 1.0254,0.48414 0.16462,0.266276 -0.0276,0.48414 -0.42696,0.48414 -0.39941,0 -0.86085,-0.217864 -1.02545,-0.48414 z M 229.96451,57.798311 c -1.21911,-0.853891 -1.02823,-1.795927 0.2682,-1.323614 0.70966,0.258545 0.68962,0.13598 -0.13655,-0.835141 l -0.96828,-1.138165 1.29829,0.935034 c 0.71405,0.514268 1.54307,1.46189 1.84226,2.105825 0.46705,1.005219 0.44416,1.087944 -0.16189,0.584967 -0.47177,-0.391534 -0.76246,-0.416046 -0.8765,-0.07392 -0.10639,0.319154 -0.58291,0.223144 -1.26553,-0.254988 z m -3.59017,-7.325182 c 0.34948,-0.139853 0.76705,-0.122657 0.92793,0.0382 0.16087,0.160874 -0.12507,0.275301 -0.63543,0.254279 -0.56401,-0.02324 -0.67872,-0.13795 -0.2925,-0.292497 z m -6.92658,-3.055291 c -0.48342,-0.534186 -0.65401,-0.971248 -0.37906,-0.971248 0.60916,0 1.81668,1.383846 1.49138,1.70916 -0.12834,0.128335 -0.62888,-0.203727 -1.11232,-0.737912 z m 4.11251,0.452598 c 0,-0.281992 0.21787,-0.378065 0.48414,-0.213496 0.26627,0.164569 0.48414,0.395291 0.48414,0.512714 0,0.117423 -0.21787,0.213496 -0.48414,0.213496 -0.26627,0 -0.48414,-0.230721 -0.48414,-0.512714 z m -14.16109,-9.490719 c 0.33284,-0.134305 0.8775,-0.134305 1.21035,0 0.33284,0.134305 0.0605,0.244195 -0.60518,0.244195 -0.66569,0 -0.93802,-0.10989 -0.60517,-0.244195 z"
       id="path357" />
  </g>
</svg>
