<?xml version="1.0" encoding="UTF-8"?>
<!DOCTYPE svg PUBLIC "-//W3C//DTD SVG 1.1//EN" "http://www.w3.org/Graphics/SVG/1.1/DTD/svg11.dtd">
<svg xmlns="http://www.w3.org/2000/svg" version="1.1" width="1080px" height="1081px" style="shape-rendering:geometricPrecision; text-rendering:geometricPrecision; image-rendering:optimizeQuality; fill-rule:evenodd; clip-rule:evenodd" xmlns:xlink="http://www.w3.org/1999/xlink">
<g><path style="opacity:0.952" fill="#fefffe" d="M 818.5,247.5 C 819.675,247.281 820.675,247.614 821.5,248.5C 823.478,251.645 825.978,254.312 829,256.5C 829.49,257.793 829.657,259.127 829.5,260.5C 831.652,261.077 831.985,262.244 830.5,264C 834.255,265.87 834.255,267.87 830.5,270C 831.085,271.302 831.751,272.469 832.5,273.5C 832.756,275.937 833.423,278.271 834.5,280.5C 835.325,281.386 836.325,281.719 837.5,281.5C 837.62,283.199 837.954,284.865 838.5,286.5C 838.148,287.786 837.482,288.619 836.5,289C 836.667,289.5 836.833,290 837,290.5C 837.893,289.289 838.726,289.289 839.5,290.5C 837.102,292.621 836.935,294.955 839,297.5C 839.71,296.027 840.876,295.36 842.5,295.5C 842.678,298.216 843.178,300.883 844,303.5C 843.411,285.943 847.578,269.61 856.5,254.5C 857.873,254.657 859.207,254.49 860.5,254C 863.816,250.354 867.482,247.021 871.5,244C 874.86,241.454 878.526,239.621 882.5,238.5C 882.33,237.178 882.663,236.011 883.5,235C 898.151,231.908 912.817,231.741 927.5,234.5C 928.293,234.069 929.127,233.735 930,233.5C 935.712,235.068 941.212,237.068 946.5,239.5C 947.086,239.291 947.586,238.957 948,238.5C 950.069,239.264 952.236,239.764 954.5,240C 971.288,247.698 987.288,256.698 1002.5,267C 1003.76,269.317 1005.76,271.651 1008.5,274C 1005.56,274.361 1002.73,273.861 1000,272.5C 999.5,272.833 999,273.167 998.5,273.5C 1000.14,277.729 1000.98,282.062 1001,286.5C 998.3,280.421 995.134,274.754 991.5,269.5C 987.39,269.584 983.223,269.917 979,270.5C 977.71,268.646 976.21,268.313 974.5,269.5C 973.306,266.381 971.806,266.048 970,268.5C 969.534,266.648 968.701,264.648 967.5,262.5C 962.549,262.279 957.715,262.945 953,264.5C 951.213,264.241 949.713,263.575 948.5,262.5C 946.401,261.388 944.067,260.721 941.5,260.5C 941.5,261.833 941.5,263.167 941.5,264.5C 932.156,266.002 922.823,267.669 913.5,269.5C 908.822,269.415 905.322,267.415 903,263.5C 901.139,266.175 900.139,269.175 900,272.5C 896.059,276.155 891.392,278.489 886,279.5C 884.3,281.606 882.133,283.106 879.5,284C 875.787,284.405 872.121,284.405 868.5,284C 864.843,286.993 862.177,290.66 860.5,295C 855.5,298 850.5,301 845.5,304C 844.978,304.561 844.645,305.228 844.5,306C 847.542,317.126 849.875,328.126 851.5,339C 852.815,344.725 854.815,350.225 857.5,355.5C 892.464,359.23 922.297,373.897 947,399.5C 951.981,407.433 957.481,415.099 963.5,422.5C 971.993,436.974 977.659,452.474 980.5,469C 989.504,536.003 963.837,584.336 903.5,614C 892.706,619.102 881.706,622.602 870.5,624.5C 870.5,625.5 870.5,626.5 870.5,627.5C 866.02,627.268 861.687,627.935 857.5,629.5C 848.156,628.429 838.49,628.262 828.5,629C 827.892,629.87 827.059,630.37 826,630.5C 821.168,629.91 816.335,629.243 811.5,628.5C 811.709,627.914 812.043,627.414 812.5,627C 809.479,626.327 806.479,625.993 803.5,626C 805.26,626.965 805.594,628.132 804.5,629.5C 792.787,625.65 781.12,621.483 769.5,617C 766.712,614.626 767.046,613.293 770.5,613C 766.23,612.743 762.23,611.576 758.5,609.5C 757.833,608.167 757.167,606.833 756.5,605.5C 751.883,603.956 748.716,600.956 747,596.5C 744.708,595.21 742.708,593.543 741,591.5C 737.013,587.169 733.347,582.502 730,577.5C 729.383,576.551 729.549,575.718 730.5,575C 728.321,574.558 727.655,573.558 728.5,572C 722.653,562.798 718.153,552.964 715,542.5C 713.377,538.013 712.544,533.347 712.5,528.5C 711.127,528.343 709.793,528.51 708.5,529C 704.849,530.987 701.349,533.153 698,535.5C 695.455,546.601 691.788,557.601 687,568.5C 685.061,570.194 683.228,572.027 681.5,574C 682.804,574.804 683.471,575.971 683.5,577.5C 681.443,581.011 679.61,584.678 678,588.5C 677.506,590.134 677.34,591.801 677.5,593.5C 673.991,593.808 672.324,595.808 672.5,599.5C 671.448,599.351 670.448,599.517 669.5,600C 669.833,600.333 670.167,600.667 670.5,601C 665.569,604.574 660.569,608.241 655.5,612C 649.782,614.659 644.115,616.492 638.5,617.5C 634.998,616.49 631.332,616.49 627.5,617.5C 601.001,618.455 582.834,606.788 573,582.5C 570.433,573.647 568.433,564.647 567,555.5C 560.792,568.661 553.459,580.994 545,592.5C 539.155,607.576 527.655,616.41 510.5,619C 505.518,619.96 500.851,619.127 496.5,616.5C 493.747,618.994 491.08,618.994 488.5,616.5C 486.833,617.833 485.167,617.833 483.5,616.5C 481.231,619.058 479.565,618.558 478.5,615C 466.572,612.785 456.405,607.285 448,598.5C 440.477,583.887 436.977,568.553 437.5,552.5C 438.996,539.207 440.162,525.874 441,512.5C 441.972,508.857 442.806,505.19 443.5,501.5C 443.192,500.692 442.692,500.025 442,499.5C 434.728,510.438 426.061,520.105 416,528.5C 411.692,530.655 407.526,532.988 403.5,535.5C 403.025,539.503 401.691,543.169 399.5,546.5C 399.833,547.167 400.167,547.833 400.5,548.5C 396.968,554.887 394.301,561.554 392.5,568.5C 390.493,570.008 388.826,571.842 387.5,574C 388.435,576.381 388.768,578.881 388.5,581.5C 387.5,581.5 386.5,581.5 385.5,581.5C 385.274,585.292 384.44,588.959 383,592.5C 381.989,593.337 380.822,593.67 379.5,593.5C 379.033,595.711 378.033,597.711 376.5,599.5C 374.167,601.167 372.167,603.167 370.5,605.5C 366.83,606.678 363.83,608.845 361.5,612C 355.287,614.749 349.12,616.582 343,617.5C 339.977,616.838 336.81,616.838 333.5,617.5C 302.747,617.883 283.581,603.216 276,573.5C 275.548,567.524 274.381,561.691 272.5,556C 274.619,536.451 277.785,516.951 282,497.5C 285.545,486.967 289.545,476.634 294,466.5C 298.417,459.293 302.584,451.959 306.5,444.5C 306.291,443.914 305.957,443.414 305.5,443C 309.061,439.225 312.395,435.225 315.5,431C 320.331,428.155 325.498,426.322 331,425.5C 332.36,427.105 333.86,428.605 335.5,430C 339.639,431.163 343.472,432.996 347,435.5C 349.388,434.883 351.721,434.55 354,434.5C 355.876,435.619 356.709,437.286 356.5,439.5C 359.068,440.45 361.568,440.45 364,439.5C 364.699,441.074 364.365,442.407 363,443.5C 361.506,442.253 360.006,442.253 358.5,443.5C 360.149,444.648 361.649,445.981 363,447.5C 363.617,448.449 363.451,449.282 362.5,450C 363.793,450.49 365.127,450.657 366.5,450.5C 367.178,454.273 365.844,457.106 362.5,459C 363.325,460.688 364.325,460.855 365.5,459.5C 375.315,461.276 384.315,465.11 392.5,471C 395.422,474.092 397.755,477.592 399.5,481.5C 398.253,483.323 397.586,485.323 397.5,487.5C 403.257,487.084 405.591,489.584 404.5,495C 405.658,496.009 406.325,497.342 406.5,499C 405.483,502.036 405.483,505.036 406.5,508C 404.397,512.024 404.23,516.191 406,520.5C 416.293,511.91 425.96,502.91 435,493.5C 435.908,490.257 437.908,487.923 441,486.5C 441.333,485.5 441.667,484.5 442,483.5C 450.304,473.859 458.637,464.192 467,454.5C 466.737,455.951 466.904,457.284 467.5,458.5C 470.489,456.243 473.822,454.576 477.5,453.5C 485.869,455.315 494.202,457.315 502.5,459.5C 503.167,459.167 503.833,458.833 504.5,458.5C 511.313,463.405 518.98,466.072 527.5,466.5C 527.38,468.734 527.713,470.901 528.5,473C 527.899,474.605 526.899,475.938 525.5,477C 522.766,477.21 520.266,478.044 518,479.5C 515.38,479.343 512.713,479.009 510,478.5C 505.715,480.066 501.548,481.733 497.5,483.5C 497.366,490.993 495.533,497.993 492,504.5C 490.606,511.203 489.106,517.87 487.5,524.5C 489.204,527.446 490.204,530.613 490.5,534C 489.254,545.196 487.921,556.363 486.5,567.5C 486.598,569.937 487.598,571.937 489.5,573.5C 488.878,576.37 488.211,579.204 487.5,582C 487.546,584.942 487.88,587.942 488.5,591C 488.05,592.285 487.383,593.452 486.5,594.5C 488.45,597.515 490.116,600.681 491.5,604C 494.637,605.322 497.804,606.488 501,607.5C 502.61,607.87 504.11,607.203 505.5,605.5C 506.293,605.931 507.127,606.265 508,606.5C 512.08,604.75 515.913,602.583 519.5,600C 523.301,595.363 526.967,590.696 530.5,586C 529.306,583.342 530.306,582.176 533.5,582.5C 535.489,575.871 538.656,569.871 543,564.5C 543.757,560.002 545.257,555.835 547.5,552C 547.167,551.667 546.833,551.333 546.5,551C 551.816,542.052 557.316,533.219 563,524.5C 568.775,519.282 572.775,512.949 575,505.5C 577.211,498.242 579.211,490.909 581,483.5C 588.913,466.433 597.413,449.767 606.5,433.5C 611.446,431.092 615.946,428.092 620,424.5C 621.487,403.877 626.154,383.877 634,364.5C 634.333,361.5 634.667,358.5 635,355.5C 641.229,341.976 648.229,328.976 656,316.5C 664.895,305.936 674.729,296.436 685.5,288C 688.244,286.309 691.077,284.809 694,283.5C 695.144,283.911 696.311,284.244 697.5,284.5C 721.403,275.521 745.403,275.021 769.5,283C 783.32,287.437 796.653,292.937 809.5,299.5C 810.167,299.167 810.833,298.833 811.5,298.5C 820.112,303.817 828.445,309.65 836.5,316C 837.5,316.667 838.5,316.667 839.5,316C 838.973,310.74 838.14,305.573 837,300.5C 836.383,301.449 836.549,302.282 837.5,303C 830.283,299.598 823.449,294.432 817,287.5C 816.261,285.779 815.427,284.113 814.5,282.5C 811.227,283.585 807.894,283.752 804.5,283C 798.193,280.047 791.859,277.047 785.5,274C 783.745,271.07 782.578,267.903 782,264.5C 778.521,267.863 774.354,269.197 769.5,268.5C 760.461,267.132 751.461,266.132 742.5,265.5C 742.719,264.325 742.386,263.325 741.5,262.5C 733.461,263.181 725.295,264.515 717,266.5C 715.893,266.415 714.893,266.081 714,265.5C 711.814,267.555 709.147,268.555 706,268.5C 697.862,268.162 689.695,267.996 681.5,268C 686.854,264.635 692.187,261.302 697.5,258C 698.304,256.229 699.471,254.729 701,253.5C 701.333,253.833 701.667,254.167 702,254.5C 712.853,249.131 723.687,244.631 734.5,241C 735.804,240.196 736.471,239.029 736.5,237.5C 734.995,232.156 733.828,226.823 733,221.5C 736.194,226.554 738.861,231.888 741,237.5C 741.79,235.21 743.124,234.877 745,236.5C 767.683,227.823 789.85,228.989 811.5,240C 813.884,242.385 816.55,244.385 819.5,246C 818.944,246.383 818.611,246.883 818.5,247.5 Z M 818.5,247.5 C 817.749,248.573 816.749,248.74 815.5,248C 816.352,246.272 817.352,246.105 818.5,247.5 Z M 822.5,255.5 C 820.901,254.201 820.401,252.535 821,250.5C 822.009,252.025 822.509,253.692 822.5,255.5 Z M 822.5,255.5 C 824.196,255.685 825.529,256.519 826.5,258C 824.588,258.279 823.254,257.446 822.5,255.5 Z M 829.5,260.5 C 829.995,266.186 828.995,266.686 826.5,262C 827.244,260.961 828.244,260.461 829.5,260.5 Z M 973.5,264.5 C 974.873,264.343 976.207,264.51 977.5,265C 976.294,266.018 976.627,266.518 978.5,266.5C 980.998,265.37 983.332,265.37 985.5,266.5C 981.801,267.511 978.134,267.511 974.5,266.5C 973.702,266.043 973.369,265.376 973.5,264.5 Z M 985.5,266.5 C 987.337,266.639 987.67,267.306 986.5,268.5C 985.702,268.043 985.369,267.376 985.5,266.5 Z M 991.5,269.5 C 991.639,267.663 992.306,267.33 993.5,268.5C 993.043,269.298 992.376,269.631 991.5,269.5 Z M 634.5,433.5 C 634.5,432.5 634.5,431.5 634.5,430.5C 630.317,431.154 627.484,429.488 626,425.5C 624.612,426.554 623.112,426.72 621.5,426C 632.643,411.528 644.476,397.694 657,384.5C 658.846,381.431 659.846,378.098 660,374.5C 662.373,376.85 664.873,377.017 667.5,375C 673.62,368.773 680.62,363.773 688.5,360C 689.87,358.559 690.87,356.892 691.5,355C 691.647,351.955 691.48,348.788 691,345.5C 693.469,347.652 696.302,349.152 699.5,350C 695.774,351.043 696.107,351.543 700.5,351.5C 700.5,350.5 700.5,349.5 700.5,348.5C 701.5,348.5 702.5,348.5 703.5,348.5C 703.369,349.239 703.536,349.906 704,350.5C 707.624,348.791 710.458,346.291 712.5,343C 715.756,341.526 719.089,340.36 722.5,339.5C 722.141,341.485 721.308,342.151 720,341.5C 718.5,342.333 717.333,343.5 716.5,345C 719.025,344.245 721.692,343.411 724.5,342.5C 725.705,341.005 725.705,339.672 724.5,338.5C 726.103,337.404 727.603,336.07 729,334.5C 729.308,335.308 729.808,335.975 730.5,336.5C 731.314,334.234 731.814,331.9 732,329.5C 732.333,331.5 732.667,333.5 733,335.5C 734.269,334.095 734.769,332.429 734.5,330.5C 735.222,330.082 735.722,329.416 736,328.5C 737.582,330.711 739.749,332.045 742.5,332.5C 744.048,330.624 746.048,329.624 748.5,329.5C 748.833,330.167 749.167,330.833 749.5,331.5C 752.287,332.048 754.954,332.048 757.5,331.5C 764.866,328.436 772.532,326.269 780.5,325C 783.311,323.356 785.644,321.19 787.5,318.5C 791.739,321.102 796.406,322.436 801.5,322.5C 813.467,321.835 825.467,320.502 837.5,318.5C 836.921,330.111 835.921,341.778 834.5,353.5C 826.096,354.466 817.763,355.633 809.5,357C 798.002,361.586 786.669,366.419 775.5,371.5C 775.574,375.161 774.574,375.828 772.5,373.5C 769.908,374.804 768.075,376.804 767,379.5C 766.282,378.549 765.449,378.383 764.5,379C 749.154,394.173 735.487,410.673 723.5,428.5C 724.167,428.833 724.833,429.167 725.5,429.5C 722.044,432.24 720.211,435.907 720,440.5C 718.634,442.37 717.467,444.37 716.5,446.5C 716.709,447.086 717.043,447.586 717.5,448C 715.516,453.887 713.85,459.887 712.5,466C 712.833,467 713.167,468 713.5,469C 710.059,476.743 709.059,484.743 710.5,493C 709.896,495.524 709.229,498.024 708.5,500.5C 709.216,504.671 709.216,509.004 708.5,513.5C 704.983,515.008 702.149,517.341 700,520.5C 699.979,514.776 699.813,509.109 699.5,503.5C 700.167,501.5 700.833,499.5 701.5,497.5C 700.91,496.201 699.91,495.368 698.5,495C 700.056,489.898 698.056,487.398 692.5,487.5C 693.008,484.824 693.175,482.157 693,479.5C 690.197,476.025 687.363,472.525 684.5,469C 679.941,466.479 675.274,464.145 670.5,462C 668.888,461.28 667.388,461.446 666,462.5C 663.073,460.898 660.24,459.898 657.5,459.5C 659.874,456.972 660.874,453.972 660.5,450.5C 659.127,450.657 657.793,450.49 656.5,450C 657.022,449.439 657.355,448.772 657.5,448C 656.004,446.669 654.671,445.169 653.5,443.5C 655.056,441.299 656.223,441.299 657,443.5C 659.27,440.403 658.77,439.403 655.5,440.5C 653.803,440.101 652.137,439.601 650.5,439C 651.668,437.594 651.335,436.428 649.5,435.5C 645.878,434.675 642.211,434.175 638.5,434C 639.706,432.982 639.373,432.482 637.5,432.5C 636.416,432.685 635.416,433.018 634.5,433.5 Z M 735.5,324.5 C 734.5,324.5 733.5,324.5 732.5,324.5C 732.688,326.103 732.188,327.437 731,328.5C 730.336,325.819 731.003,323.485 733,321.5C 734.045,322.373 734.878,323.373 735.5,324.5 Z M 736.5,325.5 C 738.703,326.052 739.536,327.385 739,329.5C 737.519,328.529 736.685,327.196 736.5,325.5 Z M 855.5,367.5 C 859.243,367.459 859.41,368.126 856,369.5C 855.536,368.906 855.369,368.239 855.5,367.5 Z M 834.5,373.5 C 833.876,373.917 833.543,374.584 833.5,375.5C 835.565,382.128 836.565,388.795 836.5,395.5C 821.066,399.476 807.233,407.809 795,420.5C 793.303,422.699 791.803,425.032 790.5,427.5C 790.624,428.107 790.957,428.44 791.5,428.5C 789.891,429.175 788.558,430.842 787.5,433.5C 786.653,439.53 784.653,445.53 781.5,451.5C 781.553,459.765 781.719,468.098 782,476.5C 786.437,510.573 803.271,536.406 832.5,554C 845.459,559.315 858.959,562.815 873,564.5C 877.234,564.157 881.401,563.491 885.5,562.5C 886.167,562.833 886.833,563.167 887.5,563.5C 892.733,562.602 898.066,561.102 903.5,559C 907.08,556.062 911.08,553.728 915.5,552C 919.354,548.124 923.52,544.624 928,541.5C 931.482,538.201 933.649,534.201 934.5,529.5C 936.911,529.863 938.411,528.863 939,526.5C 940.878,519.977 941.878,513.31 942,506.5C 942.333,508.833 942.667,511.167 943,513.5C 947.381,505.619 948.381,497.286 946,488.5C 945.667,491.5 945.333,494.5 945,497.5C 944.32,490.611 944.82,484.778 946.5,480C 944.538,473.266 943.038,466.433 942,459.5C 941.333,460.833 940.667,462.167 940,463.5C 938.83,460.148 937.664,456.814 936.5,453.5C 937.788,451.965 937.788,450.299 936.5,448.5C 933.67,444.176 930.837,439.843 928,435.5C 921.5,430.333 915.667,424.5 910.5,418C 905.384,414.553 900.55,410.72 896,406.5C 890.584,404.539 885.417,402.205 880.5,399.5C 879.893,399.624 879.56,399.957 879.5,400.5C 877.304,400.435 875.304,399.768 873.5,398.5C 874.311,397.784 874.978,396.95 875.5,396C 875.912,393.536 875.412,391.036 874,388.5C 869.127,381.924 864.627,375.09 860.5,368C 880.345,370.063 898.345,377.063 914.5,389C 942.919,410.991 961.419,439.491 970,474.5C 972.707,492.719 971.707,510.719 967,528.5C 962.014,537.135 957.014,545.801 952,554.5C 928.819,583.12 898.985,593.954 862.5,587C 846.739,584.064 832.072,578.398 818.5,570C 812.7,564.601 806.367,559.934 799.5,556C 794.746,548.905 789.579,542.071 784,535.5C 783,535.167 782,534.833 781,534.5C 774.168,521.342 768.501,507.675 764,493.5C 762.875,486.205 761.375,479.039 759.5,472C 762.057,463.826 762.057,455.659 759.5,447.5C 760.891,437.753 763.891,428.586 768.5,420C 771.455,415.32 774.455,410.153 777.5,404.5C 781.034,402.3 784.034,399.467 786.5,396C 792.516,390.998 798.849,386.498 805.5,382.5C 814.908,377.579 824.575,374.579 834.5,373.5 Z M 843.5,407.5 C 854.969,406.576 866.136,407.909 877,411.5C 882.413,415.874 888.246,419.708 894.5,423C 896.305,425.403 898.638,427.07 901.5,428C 908,435.833 914.5,443.667 921,451.5C 922.356,456.098 924.522,460.265 927.5,464C 926.978,464.561 926.645,465.228 926.5,466C 927.241,469.358 928.574,472.358 930.5,475C 929.954,479.94 929.954,484.773 930.5,489.5C 929.12,496.633 927.953,503.633 927,510.5C 922.693,520.252 916.527,528.752 908.5,536C 901.454,540.189 894.121,543.856 886.5,547C 878.717,546.311 871.05,546.478 863.5,547.5C 836.463,542.113 817.13,527.28 805.5,503C 805.957,502.586 806.291,502.086 806.5,501.5C 805.167,500.167 803.833,498.833 802.5,497.5C 803.792,493.717 802.958,490.384 800,487.5C 799.206,484.529 798.539,481.529 798,478.5C 796.632,480.815 795.799,480.815 795.5,478.5C 797.501,474.273 797.168,470.107 794.5,466C 794.906,462.112 796.239,458.612 798.5,455.5C 797.178,453.443 797.511,451.61 799.5,450C 799.108,448.989 798.441,448.489 797.5,448.5C 804.68,427.045 820.013,413.378 843.5,407.5 Z M 344.5,457.5 C 345.289,457.783 345.956,458.283 346.5,459C 342.296,462.541 338.796,466.707 336,471.5C 335.333,470.167 335.333,468.833 336,467.5C 338.238,465.691 339.405,463.358 339.5,460.5C 341.933,460.727 343.599,459.727 344.5,457.5 Z M 630.5,469.5 C 632.034,464.949 634.701,461.115 638.5,458C 639.725,457.437 640.725,457.77 641.5,459C 639.998,459.583 638.665,460.416 637.5,461.5C 638.55,463.102 637.883,463.935 635.5,464C 634.336,466.328 632.67,468.162 630.5,469.5 Z M 674.5,466.5 C 675.267,467.172 675.934,468.005 676.5,469C 674.939,469.188 674.272,468.355 674.5,466.5 Z M 332.5,479.5 C 332.312,477.897 332.812,476.563 334,475.5C 334.348,477.14 333.848,478.473 332.5,479.5 Z M 356.5,476.5 C 361.84,478.655 367.173,479.989 372.5,480.5C 372.809,483.346 374.475,484.846 377.5,485C 381.969,489.883 383.636,495.55 382.5,502C 383.748,504.257 385.415,506.257 387.5,508C 386.167,510.667 386.167,513.333 387.5,516C 385.875,518.11 384.542,520.443 383.5,523C 383.833,523.333 384.167,523.667 384.5,524C 376.828,524.173 369.828,522.006 363.5,517.5C 362.914,517.709 362.414,518.043 362,518.5C 361.027,516.36 359.527,514.693 357.5,513.5C 356.571,512.311 356.238,510.978 356.5,509.5C 355.5,509.5 354.5,509.5 353.5,509.5C 351.75,505.426 350.083,501.259 348.5,497C 349.815,495.605 349.481,494.605 347.5,494C 349.155,491.493 349.989,488.659 350,485.5C 352.137,483.679 352.97,481.346 352.5,478.5C 354.38,478.771 355.713,478.104 356.5,476.5 Z M 626.5,476.5 C 628.973,476.947 629.14,477.947 627,479.5C 626.517,478.552 626.351,477.552 626.5,476.5 Z M 651.5,476.5 C 656.111,478.499 660.778,479.832 665.5,480.5C 668.688,482.932 671.688,485.599 674.5,488.5C 677.092,493.279 677.925,498.279 677,503.5C 679.231,504.966 680.731,506.966 681.5,509.5C 680.366,511.538 680.366,513.538 681.5,515.5C 679.949,518.359 678.949,521.359 678.5,524.5C 671.02,523.593 664.02,521.26 657.5,517.5C 656.914,517.709 656.414,518.043 656,518.5C 653,514.5 650,510.5 647,506.5C 644.906,502.552 643.406,498.385 642.5,494C 644.442,491.493 645.109,488.827 644.5,486C 646.74,484.058 648.073,481.558 648.5,478.5C 649.739,478.058 650.739,477.391 651.5,476.5 Z M 393.5,479.5 C 393.56,478.957 393.893,478.624 394.5,478.5C 396.959,481.77 396.625,482.103 393.5,479.5 Z M 332.5,479.5 C 332.291,480.922 331.791,482.255 331,483.5C 330.227,481.648 330.727,480.314 332.5,479.5 Z M 328.5,485.5 C 329.776,486.386 329.776,487.386 328.5,488.5C 327.913,487.767 327.913,486.767 328.5,485.5 Z M 621.5,492.5 C 623.418,499.012 625.918,505.346 629,511.5C 636.326,523.228 646.493,530.395 659.5,533C 665.13,533.966 670.796,534.633 676.5,535C 674.918,545.402 671.418,555.569 666,565.5C 661.856,570.314 658.523,575.647 656,581.5C 651.839,586.661 647.339,591.494 642.5,596C 638.364,598.068 634.031,599.568 629.5,600.5C 620.048,593.433 615.381,584.1 615.5,572.5C 615.137,568.831 613.804,565.664 611.5,563C 613.968,560.284 613.968,557.451 611.5,554.5C 612.769,547.713 613.769,540.88 614.5,534C 614.167,533 613.833,532 613.5,531C 613.938,526.496 615.272,522.329 617.5,518.5C 617.48,515.206 617.48,511.873 617.5,508.5C 618.052,506.667 618.885,505 620,503.5C 620.743,501.559 620.576,499.726 619.5,498C 621.192,496.599 621.859,494.766 621.5,492.5 Z M 327.5,494.5 C 330.71,502.961 334.377,511.294 338.5,519.5C 341.978,522.122 345.645,524.622 349.5,527C 350.448,527.483 351.448,527.649 352.5,527.5C 352.38,530.205 353.38,530.872 355.5,529.5C 363.726,533.095 372.393,534.762 381.5,534.5C 380.598,545.982 377.098,556.648 371,566.5C 365.363,574.971 359.529,583.304 353.5,591.5C 349.899,594.594 345.899,597.094 341.5,599C 338.874,599.995 336.207,600.328 333.5,600C 325.522,591.981 321.522,582.648 321.5,572C 320.069,569.708 319.236,567.208 319,564.5C 318.25,563.874 317.416,563.374 316.5,563C 318.18,562.653 319.18,561.653 319.5,560C 318.399,557.965 317.732,555.798 317.5,553.5C 319.123,547.652 319.456,541.819 318.5,536C 319.211,533.204 319.878,530.37 320.5,527.5C 320.291,526.914 319.957,526.414 319.5,526C 321.032,523.966 322.365,521.799 323.5,519.5C 323.2,515.617 323.2,511.784 323.5,508C 323.99,506.018 324.99,504.351 326.5,503C 325.919,502.107 325.585,501.107 325.5,500C 325.954,498.061 326.621,496.228 327.5,494.5 Z M 401.5,498.5 C 403.76,499.238 403.927,500.238 402,501.5C 401.517,500.552 401.351,499.552 401.5,498.5 Z M 696.5,498.5 C 699.134,499.658 698.967,500.658 696,501.5C 695.53,500.423 695.697,499.423 696.5,498.5 Z M 900.5,556.5 C 901.239,556.369 901.906,556.536 902.5,557C 900.86,559.054 899.194,559.387 897.5,558C 898.737,557.768 899.737,557.268 900.5,556.5 Z M 733.5,580.5 C 734.497,579.287 735.497,579.454 736.5,581C 735.423,581.47 734.423,581.303 733.5,580.5 Z"/></g>
<g><path style="opacity:0.167" fill="#fefffe" d="M 948.5,262.5 C 947.749,263.573 946.749,263.74 945.5,263C 946.448,262.517 947.448,262.351 948.5,262.5 Z"/></g>
<g><path style="opacity:0.347" fill="#fefffe" d="M 962.5,263.5 C 963.552,263.351 964.552,263.517 965.5,264C 964.382,265.074 963.382,266.24 962.5,267.5C 961.808,266.975 961.308,266.308 961,265.5C 960.282,266.451 959.449,266.617 958.5,266C 959.858,265.066 961.192,264.232 962.5,263.5 Z"/></g>
<g><path style="opacity:0.349" fill="#fefffe" d="M 832.5,273.5 C 832.369,272.761 832.536,272.094 833,271.5C 834.509,272.09 836.009,272.756 837.5,273.5C 836.67,275.135 836.503,276.802 837,278.5C 835.483,276.76 833.983,275.094 832.5,273.5 Z"/></g>
<g><path style="opacity:0.958" fill="#fefffe" d="M 1052.5,376.5 C 1053.04,379.846 1053.7,383.18 1054.5,386.5C 1058.57,390.833 1059.57,395.667 1057.5,401C 1057.53,402.07 1057.86,402.903 1058.5,403.5C 1058.56,408.454 1059.23,413.287 1060.5,418C 1059.55,418.617 1058.72,418.451 1058,417.5C 1057.38,418.449 1057.55,419.282 1058.5,420C 1057.55,420.483 1056.55,420.649 1055.5,420.5C 1047.44,408.76 1037.94,396.76 1027,384.5C 1026.12,381.182 1025.29,377.848 1024.5,374.5C 1020.79,375.167 1017.12,374.667 1013.5,373C 1006.15,366.976 998.813,360.976 991.5,355C 992.422,352.495 992.922,349.995 993,347.5C 989.112,350.591 984.612,351.757 979.5,351C 970.971,345.568 961.971,340.901 952.5,337C 951.727,333.133 951.394,329.3 951.5,325.5C 947.289,328.607 942.622,330.607 937.5,331.5C 927.466,329.432 917.466,327.265 907.5,325C 904.869,323.673 902.202,322.34 899.5,321C 898.929,319.795 898.262,318.628 897.5,317.5C 891.767,320.1 885.767,321.767 879.5,322.5C 877.971,322.471 876.804,321.804 876,320.5C 873.761,321.869 871.927,321.369 870.5,319C 863.141,318.825 855.808,317.992 848.5,316.5C 855.897,311.106 863.563,306.106 871.5,301.5C 872.648,299.851 873.981,298.351 875.5,297C 889.88,291.65 904.38,286.483 919,281.5C 919.772,281.645 920.439,281.978 921,282.5C 927.836,279.777 934.836,277.444 942,275.5C 956.997,275.957 971.83,277.79 986.5,281C 1009.76,292.592 1027.43,309.925 1039.5,333C 1037.91,332.383 1036.57,332.716 1035.5,334C 1037.22,335.057 1039.05,335.89 1041,336.5C 1042.64,341.786 1045.31,346.453 1049,350.5C 1049.18,352.488 1049.01,354.488 1048.5,356.5C 1047.45,356.351 1046.45,356.517 1045.5,357C 1047.57,365.612 1049.07,365.445 1050,356.5C 1051.79,358.333 1051.95,360.333 1050.5,362.5C 1054.5,365.5 1054.5,368.5 1050.5,371.5C 1051.03,373.336 1051.69,375.003 1052.5,376.5 Z M 1040.5,340.5 C 1042.15,342.186 1042.31,343.853 1041,345.5C 1039.96,343.701 1039.8,342.034 1040.5,340.5 Z M 1045.5,352.5 C 1043.17,351.838 1042.5,350.505 1043.5,348.5C 1045.11,349.32 1045.78,350.654 1045.5,352.5 Z"/></g>
<g><path style="opacity:0.974" fill="#fefffe" d="M 122.5,400.5 C 119.265,407.465 115.598,414.299 111.5,421C 112.938,421.219 114.271,421.719 115.5,422.5C 113.813,428.565 110.646,433.565 106,437.5C 104.666,444.489 101.999,450.822 98,456.5C 98.6492,464.128 96.8158,470.961 92.5,477C 93.8045,477.804 94.4712,478.971 94.5,480.5C 92.9785,484.676 92.1452,489.009 92,493.5C 91.6174,494.056 91.1174,494.389 90.5,494.5C 92.245,498.218 91.5783,501.384 88.5,504C 89.0446,508.815 89.378,513.649 89.5,518.5C 89,518.833 88.5,519.167 88,519.5C 86.779,518.728 85.779,517.728 85,516.5C 85.4318,520.11 85.2651,523.776 84.5,527.5C 87.2048,527.62 87.8715,526.62 86.5,524.5C 87.325,523.614 88.325,523.281 89.5,523.5C 89.2577,526.681 89.2577,529.681 89.5,532.5C 87.5,534.167 85.5,535.833 83.5,537.5C 84.5807,540.746 86.5807,543.246 89.5,545C 89.0426,545.414 88.7093,545.914 88.5,546.5C 90.7705,551.844 91.4371,557.011 90.5,562C 92.5962,568.049 94.4296,574.215 96,580.5C 97.832,585.356 100.165,590.023 103,594.5C 104.171,595.893 105.671,596.727 107.5,597C 112.328,597.629 116.995,596.962 121.5,595C 132.413,590.631 142.58,585.131 152,578.5C 155.318,575.844 158.818,573.511 162.5,571.5C 165.74,567.945 169.073,564.445 172.5,561C 178.205,556.821 183.871,552.655 189.5,548.5C 190.95,547.15 191.617,545.484 191.5,543.5C 192.873,543.657 194.207,543.49 195.5,543C 196.376,541.415 197.709,540.415 199.5,540C 200.337,538.989 200.67,537.822 200.5,536.5C 202.813,535.332 205.146,533.998 207.5,532.5C 211.279,529.098 214.946,525.598 218.5,522C 222.102,521.571 224.768,519.737 226.5,516.5C 227.651,515.269 228.817,515.269 230,516.5C 231.009,514.975 231.509,513.308 231.5,511.5C 233.5,511.167 235.5,510.833 237.5,510.5C 237.5,509.167 237.5,507.833 237.5,506.5C 241.71,507.288 244.377,505.621 245.5,501.5C 246.086,501.709 246.586,502.043 247,502.5C 248.046,500.91 249.213,499.41 250.5,498C 258.765,492.869 267.098,488.036 275.5,483.5C 276.48,482.019 277.647,480.685 279,479.5C 280.584,480.861 282.418,481.528 284.5,481.5C 284.975,484.885 283.642,487.218 280.5,488.5C 279.194,489.912 278.36,491.579 278,493.5C 270.611,498.9 263.778,504.733 257.5,511C 255.833,511.833 254.167,512.667 252.5,513.5C 249.892,517.943 246.392,521.61 242,524.5C 241.517,525.448 241.351,526.448 241.5,527.5C 240.5,527.5 239.5,527.5 238.5,527.5C 238.435,529.696 237.768,531.696 236.5,533.5C 230.844,538.246 226.344,543.912 223,550.5C 220.503,552.328 218.17,554.328 216,556.5C 214.848,559.44 213.848,562.44 213,565.5C 207.273,573.212 201.606,580.879 196,588.5C 194.804,593.223 192.804,597.557 190,601.5C 189.153,604.588 189.653,607.421 191.5,610C 190.671,611.816 189.837,613.649 189,615.5C 185.622,619.749 182.122,623.916 178.5,628C 176.866,628.494 175.199,628.66 173.5,628.5C 173.022,631.278 174.022,633.278 176.5,634.5C 175.081,636.336 173.914,638.336 173,640.5C 170.369,642.124 167.536,643.291 164.5,644C 162.167,646.333 159.833,648.667 157.5,651C 150.546,651.484 143.546,651.651 136.5,651.5C 127.479,648.09 118.812,644.924 110.5,642C 103.948,639.093 98.2813,635.093 93.5,630C 91.7444,629.798 90.0777,629.298 88.5,628.5C 84.1667,624.333 79.8333,620.167 75.5,616C 68.4973,611.903 62.3306,606.737 57,600.5C 56.5172,599.552 56.3505,598.552 56.5,597.5C 55.448,597.649 54.448,597.483 53.5,597C 54.9047,595.731 56.5714,595.231 58.5,595.5C 58.628,593.345 58.128,591.345 57,589.5C 52.2289,584.393 48.2289,578.726 45,572.5C 44.8117,575.913 45.6451,579.079 47.5,582C 47.1667,582.5 46.8333,583 46.5,583.5C 42.7269,578.351 39.2269,573.017 36,567.5C 35.7132,565.109 35.2132,562.776 34.5,560.5C 36.5298,560.106 38.8631,559.773 41.5,559.5C 41.7733,557.549 41.1066,556.049 39.5,555C 40.0968,553.938 40.4302,552.772 40.5,551.5C 40.0694,549.246 39.4028,547.079 38.5,545C 39.331,541.892 40.1643,542.059 41,545.5C 42.8452,542.028 42.3452,538.862 39.5,536C 40.0219,535.439 40.3552,534.772 40.5,534C 36.7837,525.59 34.7837,516.756 34.5,507.5C 35.5,507.5 36.5,507.5 37.5,507.5C 37.6606,496.945 37.6606,486.445 37.5,476C 37.1667,475.833 36.8333,475.667 36.5,475.5C 35.6816,478.107 35.1816,480.774 35,483.5C 33.4126,482.273 32.0793,482.606 31,484.5C 30,482.833 29,481.167 28,479.5C 27.7508,480.624 27.2508,481.624 26.5,482.5C 26.1667,481 25.8333,479.5 25.5,478C 26.1326,471.511 26.6326,465.011 27,458.5C 28.7315,453.65 29.7315,448.65 30,443.5C 33.2998,435.057 35.9664,426.391 38,417.5C 45.2808,403.938 52.2808,390.271 59,376.5C 68.472,366.359 77.972,356.193 87.5,346C 89.0249,344.991 90.6916,344.491 92.5,344.5C 92.5,343.5 92.5,342.5 92.5,341.5C 93.9305,341.579 95.2638,341.246 96.5,340.5C 98.9928,338.42 101.659,336.586 104.5,335C 112.69,332.326 120.857,329.493 129,326.5C 130.506,328.328 132.173,328.662 134,327.5C 136.802,328.33 139.635,329.163 142.5,330C 149.3,333.233 155.967,336.733 162.5,340.5C 171.865,348.368 180.699,356.701 189,365.5C 192.054,368.585 194.388,372.252 196,376.5C 198.491,378.29 200.658,380.457 202.5,383C 203.448,383.483 204.448,383.649 205.5,383.5C 205.34,385.199 205.506,386.866 206,388.5C 211.384,395.913 214.217,404.079 214.5,413C 216.434,414.954 216.767,417.12 215.5,419.5C 217.801,432.425 219.468,445.259 220.5,458C 220.618,464.426 220.118,470.926 219,477.5C 218.282,481.655 216.782,485.488 214.5,489C 216.938,491.562 216.938,494.062 214.5,496.5C 212.889,495.68 212.222,494.346 212.5,492.5C 209.004,491.142 205.838,491.808 203,494.5C 199.949,491.662 197.782,492.329 196.5,496.5C 195.186,495.687 194.019,494.687 193,493.5C 192.667,493.833 192.333,494.167 192,494.5C 189.555,493.094 187.055,491.76 184.5,490.5C 183.833,490.833 183.167,491.167 182.5,491.5C 177.6,486.703 171.933,482.869 165.5,480C 164.696,478.229 163.529,476.729 162,475.5C 156.357,455.511 152.524,434.844 150.5,413.5C 150.9,409.671 151.234,405.837 151.5,402C 150.922,400.189 150.422,398.355 150,396.5C 149.276,398.959 147.943,399.959 146,399.5C 141.49,402.18 136.99,405.013 132.5,408C 129.518,408.498 126.518,408.665 123.5,408.5C 123.599,405.763 123.265,403.096 122.5,400.5 Z M 122.5,400.5 C 124.102,398.301 125.936,396.301 128,394.5C 129.563,390.81 131.063,387.143 132.5,383.5C 135.257,382.247 137.591,380.413 139.5,378C 140.635,377.251 141.635,377.417 142.5,378.5C 141.608,381.284 140.442,383.95 139,386.5C 134.696,390.458 130.863,394.791 127.5,399.5C 125.955,400.452 124.288,400.785 122.5,400.5 Z M 34.5,438.5 C 35.844,440.185 35.6773,441.852 34,443.5C 33.6155,441.803 33.7822,440.137 34.5,438.5 Z M 29.5,467.5 C 31.3442,468.204 31.8442,469.537 31,471.5C 30.2904,472.973 29.1238,473.64 27.5,473.5C 27.6036,471.297 28.2702,469.297 29.5,467.5 Z M 86.5,483.5 C 87.3764,483.369 88.0431,483.702 88.5,484.5C 86.1916,485.873 85.5249,485.54 86.5,483.5 Z M 89.5,487.5 C 90.7759,488.386 90.7759,489.386 89.5,490.5C 88.4376,489.575 88.4376,488.575 89.5,487.5 Z M 90.5,494.5 C 89.6365,495.463 88.9698,495.463 88.5,494.5C 89.2565,493.227 89.9232,493.227 90.5,494.5 Z"/></g>
<g><path style="opacity:0.22" fill="#fefffe" d="M 749.5,331.5 C 748.828,332.267 747.995,332.934 747,333.5C 746.812,331.939 747.645,331.272 749.5,331.5 Z"/></g>
<g><path style="opacity:0.358" fill="#fefffe" d="M 724.5,338.5 C 725.705,339.672 725.705,341.005 724.5,342.5C 721.692,343.411 719.025,344.245 716.5,345C 717.333,343.5 718.5,342.333 720,341.5C 721.308,342.151 722.141,341.485 722.5,339.5C 723.492,339.672 724.158,339.338 724.5,338.5 Z"/></g>
<g><path style="opacity:0.32" fill="#fefffe" d="M 1052.5,376.5 C 1053.54,374.312 1055.04,374.312 1057,376.5C 1056.14,379.391 1056.47,382.058 1058,384.5C 1055.89,381.998 1054.06,379.332 1052.5,376.5 Z"/></g>
<g><path style="opacity:0.235" fill="#fefffe" d="M 1058.5,403.5 C 1058.46,399.757 1059.13,399.59 1060.5,403C 1059.91,403.464 1059.24,403.631 1058.5,403.5 Z"/></g>
<g><path style="opacity:0.188" fill="#fefffe" d="M 1062.5,416.5 C 1064.34,416.639 1064.67,417.306 1063.5,418.5C 1062.7,418.043 1062.37,417.376 1062.5,416.5 Z"/></g>
<g><path style="opacity:0.912" fill="#fefffe" d="M 452.5,623.5 C 454.086,624.413 455.586,624.413 457,623.5C 458.435,625.211 460.269,626.378 462.5,627C 463.167,628 463.833,629 464.5,630C 467.589,632.073 470.923,633.74 474.5,635C 474.167,635.333 473.833,635.667 473.5,636C 475.478,636.481 476.811,637.647 477.5,639.5C 474.801,651.604 473.468,663.438 473.5,675C 472.833,675.333 472.167,675.667 471.5,676C 471.712,678.469 472.045,680.969 472.5,683.5C 472.471,685.029 471.804,686.196 470.5,687C 471.167,688 471.833,689 472.5,690C 471.41,693.213 471.41,696.38 472.5,699.5C 474.168,704.172 475.835,708.839 477.5,713.5C 481.849,709.318 486.015,704.985 490,700.5C 489.826,686.691 493.493,674.024 501,662.5C 502.313,661.427 503.813,660.76 505.5,660.5C 508.028,661.746 510.695,662.746 513.5,663.5C 515.472,665.415 516.472,667.749 516.5,670.5C 520.025,670.346 522.859,671.679 525,674.5C 526.691,677.607 527.858,680.941 528.5,684.5C 534.511,681.002 537.844,675.836 538.5,669C 548.768,667.323 552.101,671.489 548.5,681.5C 549.148,690.218 550.314,698.885 552,707.5C 555.207,695.796 558.541,684.129 562,672.5C 562.895,669.534 562.395,666.867 560.5,664.5C 560.833,662.833 561.833,661.833 563.5,661.5C 566.145,662.108 568.812,662.608 571.5,663C 575.28,672.174 576.28,681.507 574.5,691C 575.284,696.782 575.95,702.616 576.5,708.5C 580.107,708.621 582.273,706.955 583,703.5C 586.358,690.122 588.858,676.622 590.5,663C 594.107,662.203 597.274,663.036 600,665.5C 601.254,674.125 602.254,682.791 603,691.5C 605.176,682.462 607.51,673.462 610,664.5C 615.321,652.784 622.155,651.617 630.5,661C 630.167,661.333 629.833,661.667 629.5,662C 631.478,668.827 632.811,675.827 633.5,683C 633.734,689.167 633.234,695.667 632,702.5C 635.992,693.201 639.992,683.867 644,674.5C 644.915,675.328 645.581,676.328 646,677.5C 647.833,674.333 650.333,671.833 653.5,670C 658.77,669.326 663.936,669.826 669,671.5C 670.727,671.354 670.894,670.687 669.5,669.5C 669.904,664.987 672.237,663.487 676.5,665C 677.684,666.18 678.351,667.68 678.5,669.5C 678.249,671.845 677.915,674.178 677.5,676.5C 680.777,689.832 683.11,703.332 684.5,717C 684.075,725.823 682.575,734.656 680,743.5C 678.833,744.667 677.667,745.833 676.5,747C 670.529,748.786 664.529,749.286 658.5,748.5C 656.623,744.732 655.29,740.732 654.5,736.5C 654.153,730.352 656.319,725.352 661,721.5C 661.87,722.108 662.37,722.941 662.5,724C 659.745,731.316 660.578,737.816 665,743.5C 667.44,742.726 668.773,741.06 669,738.5C 671.394,723.272 670.727,708.272 667,693.5C 664.167,697 661.333,700.5 658.5,704C 647.41,707.247 641.576,703.08 641,691.5C 639.572,697.689 637.572,703.689 635,709.5C 631.229,713.788 626.729,714.621 621.5,712C 617.383,707.886 615.383,702.886 615.5,697C 617.014,685.413 619.014,673.913 621.5,662.5C 621.444,661.263 620.944,660.263 620,659.5C 615.825,668.772 613.325,678.272 612.5,688C 610.52,694.049 609.02,700.215 608,706.5C 607.215,708.286 606.049,709.786 604.5,711C 600.167,711.667 595.833,711.667 591.5,711C 590.845,709.513 589.845,708.347 588.5,707.5C 583.75,713.143 577.75,714.976 570.5,713C 565.297,710.447 562.13,706.28 561,700.5C 560.975,711.856 555.475,716.023 544.5,713C 542.04,711.542 539.873,709.709 538,707.5C 536.188,699.945 535.188,692.278 535,684.5C 532.933,687.07 530.433,689.07 527.5,690.5C 524.661,695.509 522.494,700.842 521,706.5C 515.727,713.092 508.894,715.259 500.5,713C 496.333,711.5 493.5,708.667 492,704.5C 487.378,711.958 483.878,719.625 481.5,727.5C 480.349,728.731 479.183,728.731 478,727.5C 474.284,730.787 470.118,731.287 465.5,729C 462.675,726.876 460.175,724.376 458,721.5C 457.667,718.167 457.333,714.833 457,711.5C 454.664,710.708 454.164,709.375 455.5,707.5C 454.933,704.474 453.933,701.641 452.5,699C 452.735,698.127 453.069,697.293 453.5,696.5C 452.179,692.216 451.012,687.883 450,683.5C 446.609,687.617 442.442,689.617 437.5,689.5C 438.237,703.942 431.237,711.275 416.5,711.5C 408.033,711.353 402.366,707.353 399.5,699.5C 398.329,704.841 395.829,709.508 392,713.5C 375.597,716.094 368.931,709.094 372,692.5C 372.457,689.204 373.291,686.037 374.5,683C 368.783,682.568 363.283,681.402 358,679.5C 357.727,677.899 357.227,676.399 356.5,675C 359.705,667.575 362.372,659.908 364.5,652C 366.915,649.403 369.748,648.903 373,650.5C 374.801,653.647 376.634,656.813 378.5,660C 376.518,665.747 374.851,671.581 373.5,677.5C 378.69,676.336 383.523,677.336 388,680.5C 388.218,688.087 387.385,695.587 385.5,703C 385.603,704.561 385.937,706.061 386.5,707.5C 387.5,708.833 388.5,708.833 389.5,707.5C 394.076,696.684 398.909,686.017 404,675.5C 405.15,673.359 406.65,671.526 408.5,670C 405.132,664.48 404.632,658.646 407,652.5C 409.377,648.912 411.877,645.412 414.5,642C 427.926,638.047 435.259,643.047 436.5,657C 436.042,659.831 434.708,662.164 432.5,664C 434.98,664.915 435.647,666.415 434.5,668.5C 435.301,671.133 436.967,672.967 439.5,674C 438.601,675.236 437.434,676.07 436,676.5C 432.845,675.59 430.178,673.924 428,671.5C 426.833,672.667 425.667,673.833 424.5,675C 432.78,678.96 441.114,679.126 449.5,675.5C 448.039,660.719 448.706,645.886 451.5,631C 450.919,630.107 450.585,629.107 450.5,628C 451.074,626.393 451.74,624.893 452.5,623.5 Z M 423.5,646.5 C 425.89,646.685 426.89,648.018 426.5,650.5C 426.269,654.518 425.102,658.184 423,661.5C 420.733,660.065 418.733,660.398 417,662.5C 416.516,660.087 416.85,657.754 418,655.5C 419.844,652.472 421.678,649.472 423.5,646.5 Z M 512.5,675.5 C 517.771,676.104 520.771,679.104 521.5,684.5C 521.081,685.672 520.415,686.672 519.5,687.5C 513.05,685.769 510.717,681.769 512.5,675.5 Z M 664.5,676.5 C 665.978,676.238 667.311,676.571 668.5,677.5C 665.179,686.146 660.346,693.813 654,700.5C 653.056,699.737 652.556,698.737 652.5,697.5C 654.219,689.046 658.219,682.046 664.5,676.5 Z M 504.5,682.5 C 506.483,683.902 508.149,685.736 509.5,688C 512.536,690.006 515.869,690.84 519.5,690.5C 518.487,697.022 515.487,702.522 510.5,707C 509.167,707.667 507.833,707.667 506.5,707C 505.137,705.055 504.303,702.888 504,700.5C 503.425,694.478 503.591,688.478 504.5,682.5 Z M 415.5,683.5 C 418.646,685.575 421.979,687.408 425.5,689C 429.875,692.005 430.708,695.838 428,700.5C 421.648,707.816 416.648,707.149 413,698.5C 412.121,693.187 412.955,688.187 415.5,683.5 Z"/></g>
<g><path style="opacity:0.934" fill="#fefffe" d="M 236.5,631.5 C 239.505,631.253 242.005,632.253 244,634.5C 245.466,637.732 246.633,641.065 247.5,644.5C 252.774,640.682 258.44,637.515 264.5,635C 269.519,634.118 273.853,635.451 277.5,639C 279.066,640.684 280.066,642.684 280.5,645C 279.156,652.033 276.823,658.7 273.5,665C 276.743,665.171 280.077,665.838 283.5,667C 291.205,670.375 297.371,675.541 302,682.5C 303.155,689.364 301.322,695.197 296.5,700C 296.833,700.333 297.167,700.667 297.5,701C 293.193,704.972 288.859,708.972 284.5,713C 282.112,714.861 279.446,716.194 276.5,717C 269.327,725.583 261.827,726.417 254,719.5C 250.797,720.31 247.631,721.31 244.5,722.5C 242.803,722.101 241.137,721.601 239.5,721C 237.625,718.057 236.125,714.89 235,711.5C 234.615,706.585 233.782,701.752 232.5,697C 232.725,675.01 234.058,653.176 236.5,631.5 Z M 267.5,642.5 C 268.376,642.369 269.043,642.702 269.5,643.5C 264.839,653.474 258.672,662.474 251,670.5C 247.52,661.89 249.353,654.723 256.5,649C 260.262,646.794 263.929,644.627 267.5,642.5 Z M 249.5,690.5 C 252.113,691.435 254.779,691.602 257.5,691C 262.7,680.896 271.034,676.23 282.5,677C 273.914,688.921 263.414,698.754 251,706.5C 249.661,701.264 249.161,695.93 249.5,690.5 Z"/></g>
<g><path style="opacity:0.887" fill="#fefffe" d="M 332.5,664.5 C 335.518,664.335 338.518,664.502 341.5,665C 342.211,666.255 343.044,667.421 344,668.5C 344.246,671.89 344.746,675.223 345.5,678.5C 344.367,686.117 344.2,693.784 345,701.5C 346.693,711.259 350.026,711.925 355,703.5C 356.742,695.739 359.909,688.739 364.5,682.5C 364.833,683.833 365.167,685.167 365.5,686.5C 363.845,693.967 361.678,701.3 359,708.5C 351.781,715.727 343.947,716.394 335.5,710.5C 334.396,708.611 333.063,706.945 331.5,705.5C 329.609,708.131 327.609,710.631 325.5,713C 321.833,713.667 318.167,713.667 314.5,713C 311.117,711.62 309.284,709.12 309,705.5C 306.366,693.094 309.199,682.261 317.5,673C 322.094,671.373 326.761,671.206 331.5,672.5C 331.833,669.833 332.167,667.167 332.5,664.5 Z M 326.5,676.5 C 327.833,676.5 329.167,676.5 330.5,676.5C 330.901,687.4 328.734,697.734 324,707.5C 320.533,711.758 318.199,711.091 317,705.5C 314.202,693.632 317.369,683.965 326.5,676.5 Z"/></g>
<g><path style="opacity:0.885" fill="#fefffe" d="M 704.5,664.5 C 708.819,665.035 713.152,665.535 717.5,666C 719.007,667.473 719.674,669.307 719.5,671.5C 718.871,679.482 717.038,687.149 714,694.5C 710.262,697.292 706.429,697.626 702.5,695.5C 700.824,701.319 702.824,705.485 708.5,708C 711.669,709.266 714.669,709.266 717.5,708C 722.779,699.951 727.946,691.784 733,683.5C 734.931,680.895 736.764,680.895 738.5,683.5C 735.684,689.803 732.85,696.136 730,702.5C 727.894,706.604 725.061,710.104 721.5,713C 690.806,713.923 682.306,700.423 696,672.5C 698.703,669.629 701.536,666.962 704.5,664.5 Z M 707.5,680.5 C 707.11,683.839 706.61,687.173 706,690.5C 705,691.167 704,691.833 703,692.5C 702.633,687.764 704.133,683.764 707.5,680.5 Z"/></g>
</svg>
